<svg xmlns="http://www.w3.org/2000/svg" xmlns:xlink="http://www.w3.org/1999/xlink" width="1350" zoomAndPan="magnify" viewBox="0 0 1012.5 599.999999" height="800" preserveAspectRatio="xMidYMid meet" version="1.0"><defs><clipPath id="ae27e10a31"><path d="M 372.613281 60.117188 L 612.496094 60.117188 L 612.496094 300 L 372.613281 300 Z M 372.613281 60.117188 " clip-rule="nonzero"/></clipPath></defs><g clip-path="url(#ae27e10a31)"><path fill="#fff6e9" d="M 612.496094 180.058594 C 612.496094 182.023438 612.445312 183.984375 612.351562 185.945312 C 612.253906 187.90625 612.109375 189.863281 611.917969 191.816406 C 611.722656 193.769531 611.484375 195.714844 611.195312 197.65625 C 610.90625 199.601562 610.574219 201.535156 610.191406 203.457031 C 609.808594 205.382812 609.375 207.296875 608.898438 209.203125 C 608.421875 211.105469 607.898438 212.996094 607.328125 214.875 C 606.761719 216.753906 606.144531 218.617188 605.484375 220.464844 C 604.820312 222.3125 604.117188 224.144531 603.363281 225.957031 C 602.613281 227.773438 601.816406 229.566406 600.980469 231.339844 C 600.140625 233.113281 599.257812 234.867188 598.332031 236.597656 C 597.40625 238.328125 596.4375 240.039062 595.429688 241.722656 C 594.421875 243.40625 593.371094 245.0625 592.28125 246.695312 C 591.191406 248.328125 590.058594 249.929688 588.890625 251.507812 C 587.722656 253.085938 586.515625 254.632812 585.269531 256.148438 C 584.023438 257.667969 582.742188 259.152344 581.425781 260.605469 C 580.105469 262.0625 578.753906 263.480469 577.363281 264.871094 C 575.976562 266.257812 574.554688 267.609375 573.101562 268.929688 C 571.648438 270.246094 570.160156 271.53125 568.644531 272.773438 C 567.125 274.019531 565.578125 275.226562 564.003906 276.398438 C 562.425781 277.566406 560.820312 278.695312 559.1875 279.785156 C 557.558594 280.875 555.898438 281.925781 554.214844 282.9375 C 552.53125 283.945312 550.824219 284.914062 549.09375 285.835938 C 547.363281 286.761719 545.609375 287.644531 543.835938 288.484375 C 542.058594 289.324219 540.265625 290.117188 538.453125 290.871094 C 536.640625 291.621094 534.808594 292.328125 532.960938 292.988281 C 531.113281 293.648438 529.25 294.265625 527.371094 294.835938 C 525.492188 295.40625 523.601562 295.929688 521.695312 296.40625 C 519.792969 296.882812 517.878906 297.3125 515.953125 297.695312 C 514.027344 298.078125 512.09375 298.414062 510.152344 298.703125 C 508.210938 298.988281 506.261719 299.230469 504.308594 299.421875 C 502.355469 299.613281 500.398438 299.757812 498.4375 299.855469 C 496.476562 299.953125 494.515625 300 492.554688 300 C 490.589844 300 488.628906 299.953125 486.667969 299.855469 C 484.707031 299.757812 482.75 299.613281 480.796875 299.421875 C 478.84375 299.230469 476.894531 298.988281 474.953125 298.703125 C 473.011719 298.414062 471.078125 298.078125 469.15625 297.695312 C 467.230469 297.3125 465.316406 296.882812 463.410156 296.40625 C 461.507812 295.929688 459.613281 295.40625 457.738281 294.835938 C 455.859375 294.265625 453.996094 293.648438 452.148438 292.988281 C 450.296875 292.328125 448.46875 291.621094 446.65625 290.871094 C 444.839844 290.117188 443.046875 289.324219 441.273438 288.484375 C 439.496094 287.644531 437.746094 286.761719 436.015625 285.835938 C 434.28125 284.914062 432.574219 283.945312 430.890625 282.9375 C 429.207031 281.925781 427.550781 280.875 425.917969 279.785156 C 424.285156 278.695312 422.683594 277.566406 421.105469 276.398438 C 419.527344 275.226562 417.980469 274.019531 416.464844 272.773438 C 414.945312 271.53125 413.460938 270.246094 412.007812 268.929688 C 410.550781 267.609375 409.128906 266.257812 407.742188 264.871094 C 406.355469 263.480469 405 262.0625 403.683594 260.605469 C 402.363281 259.152344 401.082031 257.667969 399.839844 256.148438 C 398.59375 254.632812 397.386719 253.085938 396.214844 251.507812 C 395.046875 249.929688 393.917969 248.328125 392.828125 246.695312 C 391.734375 245.0625 390.6875 243.40625 389.675781 241.722656 C 388.667969 240.039062 387.699219 238.328125 386.773438 236.597656 C 385.851562 234.867188 384.96875 233.113281 384.128906 231.339844 C 383.289062 229.566406 382.492188 227.773438 381.742188 225.957031 C 380.992188 224.144531 380.285156 222.3125 379.625 220.464844 C 378.960938 218.617188 378.347656 216.753906 377.777344 214.875 C 377.207031 212.996094 376.683594 211.105469 376.207031 209.203125 C 375.730469 207.296875 375.300781 205.382812 374.917969 203.457031 C 374.535156 201.535156 374.199219 199.601562 373.910156 197.65625 C 373.625 195.714844 373.382812 193.769531 373.191406 191.816406 C 373 189.863281 372.855469 187.90625 372.757812 185.945312 C 372.660156 183.984375 372.613281 182.023438 372.613281 180.058594 C 372.613281 178.097656 372.660156 176.132812 372.757812 174.175781 C 372.855469 172.214844 373 170.257812 373.191406 168.304688 C 373.382812 166.347656 373.625 164.402344 373.910156 162.460938 C 374.199219 160.519531 374.535156 158.585938 374.917969 156.660156 C 375.300781 154.734375 375.730469 152.820312 376.207031 150.914062 C 376.683594 149.011719 377.207031 147.121094 377.777344 145.242188 C 378.347656 143.363281 378.960938 141.5 379.625 139.652344 C 380.285156 137.804688 380.992188 135.972656 381.742188 134.160156 C 382.492188 132.347656 383.289062 130.550781 384.128906 128.777344 C 384.96875 127.003906 385.851562 125.25 386.773438 123.519531 C 387.699219 121.789062 388.667969 120.082031 389.675781 118.398438 C 390.6875 116.714844 391.734375 115.054688 392.828125 113.421875 C 393.917969 111.792969 395.046875 110.1875 396.214844 108.609375 C 397.386719 107.035156 398.59375 105.488281 399.839844 103.96875 C 401.082031 102.453125 402.363281 100.964844 403.683594 99.511719 C 405 98.058594 406.355469 96.636719 407.742188 95.25 C 409.128906 93.859375 410.550781 92.507812 412.007812 91.1875 C 413.460938 89.871094 414.945312 88.589844 416.464844 87.34375 C 417.980469 86.097656 419.527344 84.890625 421.105469 83.722656 C 422.683594 82.550781 424.285156 81.421875 425.917969 80.332031 C 427.550781 79.242188 429.207031 78.191406 430.890625 77.183594 C 432.574219 76.171875 434.28125 75.207031 436.015625 74.28125 C 437.746094 73.355469 439.496094 72.472656 441.273438 71.632812 C 443.046875 70.792969 444.839844 70 446.65625 69.25 C 448.46875 68.496094 450.296875 67.789062 452.148438 67.128906 C 453.996094 66.46875 455.859375 65.851562 457.738281 65.28125 C 459.613281 64.714844 461.507812 64.191406 463.410156 63.714844 C 465.316406 63.234375 467.230469 62.804688 469.15625 62.421875 C 471.078125 62.039062 473.011719 61.703125 474.953125 61.417969 C 476.894531 61.128906 478.84375 60.886719 480.796875 60.695312 C 482.75 60.503906 484.707031 60.359375 486.667969 60.261719 C 488.628906 60.167969 490.589844 60.117188 492.554688 60.117188 C 494.515625 60.117188 496.476562 60.167969 498.4375 60.261719 C 500.398438 60.359375 502.355469 60.503906 504.308594 60.695312 C 506.261719 60.886719 508.210938 61.128906 510.152344 61.417969 C 512.09375 61.703125 514.027344 62.039062 515.953125 62.421875 C 517.878906 62.804688 519.792969 63.234375 521.695312 63.714844 C 523.601562 64.191406 525.492188 64.714844 527.371094 65.28125 C 529.25 65.851562 531.113281 66.46875 532.960938 67.128906 C 534.808594 67.789062 536.640625 68.496094 538.453125 69.25 C 540.265625 70 542.058594 70.792969 543.835938 71.632812 C 545.609375 72.472656 547.363281 73.355469 549.09375 74.28125 C 550.824219 75.207031 552.53125 76.171875 554.214844 77.183594 C 555.898438 78.191406 557.558594 79.242188 559.1875 80.332031 C 560.820312 81.421875 562.425781 82.550781 564.003906 83.722656 C 565.578125 84.890625 567.125 86.097656 568.644531 87.34375 C 570.160156 88.589844 571.648438 89.871094 573.101562 91.1875 C 574.554688 92.507812 575.976562 93.859375 577.363281 95.25 C 578.753906 96.636719 580.105469 98.058594 581.425781 99.511719 C 582.742188 100.964844 584.023438 102.453125 585.269531 103.96875 C 586.515625 105.488281 587.722656 107.035156 588.890625 108.609375 C 590.058594 110.1875 591.191406 111.792969 592.28125 113.421875 C 593.371094 115.054688 594.421875 116.714844 595.429688 118.398438 C 596.4375 120.082031 597.40625 121.789062 598.332031 123.519531 C 599.257812 125.25 600.140625 127.003906 600.980469 128.777344 C 601.816406 130.550781 602.613281 132.347656 603.363281 134.160156 C 604.117188 135.972656 604.820312 137.804688 605.484375 139.652344 C 606.144531 141.5 606.761719 143.363281 607.328125 145.242188 C 607.898438 147.121094 608.421875 149.011719 608.898438 150.914062 C 609.375 152.820312 609.808594 154.734375 610.191406 156.660156 C 610.574219 158.585938 610.910156 160.519531 611.195312 162.460938 C 611.484375 164.402344 611.722656 166.347656 611.917969 168.304688 C 612.109375 170.257812 612.253906 172.214844 612.351562 174.175781 C 612.445312 176.132812 612.496094 178.097656 612.496094 180.058594 Z M 612.496094 180.058594 " fill-opacity="1" fill-rule="nonzero"/></g></svg>