<svg xmlns="http://www.w3.org/2000/svg" xmlns:xlink="http://www.w3.org/1999/xlink" width="1350" zoomAndPan="magnify" viewBox="0 0 1012.5 599.999999" height="800" preserveAspectRatio="xMidYMid meet" version="1.0"><defs><clipPath id="2139ba9ef1"><path d="M 449 171 L 1012 171 L 1012 527 L 449 527 Z M 449 171 " clip-rule="nonzero"/></clipPath><clipPath id="b79c0a65a6"><path d="M -68.433594 22.414062 L 1001.269531 -18.132812 L 1021.117188 505.480469 L -48.585938 546.027344 Z M -68.433594 22.414062 " clip-rule="nonzero"/></clipPath><clipPath id="36f1f1edc6"><path d="M -68.433594 22.414062 L 1001.269531 -18.132812 L 1021.117188 505.480469 L -48.585938 546.027344 Z M -68.433594 22.414062 " clip-rule="nonzero"/></clipPath><clipPath id="1d7f357c52"><path d="M 0 15 L 1012 15 L 1012 547 L 0 547 Z M 0 15 " clip-rule="nonzero"/></clipPath><clipPath id="1fc2e29884"><path d="M -68.433594 22.414062 L 1001.269531 -18.132812 L 1021.117188 505.480469 L -48.585938 546.027344 Z M -68.433594 22.414062 " clip-rule="nonzero"/></clipPath><clipPath id="ca4d820eb3"><path d="M -68.433594 22.414062 L 1001.269531 -18.132812 L 1021.117188 505.480469 L -48.585938 546.027344 Z M -68.433594 22.414062 " clip-rule="nonzero"/></clipPath><clipPath id="07ce26b57c"><path d="M 0 284 L 1012 284 L 1012 543 L 0 543 Z M 0 284 " clip-rule="nonzero"/></clipPath><clipPath id="2916c2a27b"><path d="M -68.433594 22.414062 L 1001.269531 -18.132812 L 1021.117188 505.480469 L -48.585938 546.027344 Z M -68.433594 22.414062 " clip-rule="nonzero"/></clipPath><clipPath id="52c035c591"><path d="M -68.433594 22.414062 L 1001.269531 -18.132812 L 1021.117188 505.480469 L -48.585938 546.027344 Z M -68.433594 22.414062 " clip-rule="nonzero"/></clipPath><clipPath id="ba8c118d8c"><path d="M 0 378 L 935 378 L 935 547 L 0 547 Z M 0 378 " clip-rule="nonzero"/></clipPath><clipPath id="858399c111"><path d="M -68.433594 22.414062 L 1001.269531 -18.132812 L 1021.117188 505.480469 L -48.585938 546.027344 Z M -68.433594 22.414062 " clip-rule="nonzero"/></clipPath><clipPath id="6b1c061737"><path d="M -68.433594 22.414062 L 1001.269531 -18.132812 L 1021.117188 505.480469 L -48.585938 546.027344 Z M -68.433594 22.414062 " clip-rule="nonzero"/></clipPath><clipPath id="84e36b974d"><path d="M 672 230 L 1012 230 L 1012 519 L 672 519 Z M 672 230 " clip-rule="nonzero"/></clipPath><clipPath id="bb1605d4e3"><path d="M -68.433594 22.414062 L 1001.269531 -18.132812 L 1021.117188 505.480469 L -48.585938 546.027344 Z M -68.433594 22.414062 " clip-rule="nonzero"/></clipPath><clipPath id="8fc87ec326"><path d="M -68.433594 22.414062 L 1001.269531 -18.132812 L 1021.117188 505.480469 L -48.585938 546.027344 Z M -68.433594 22.414062 " clip-rule="nonzero"/></clipPath></defs><g clip-path="url(#2139ba9ef1)"><g clip-path="url(#b79c0a65a6)"><g clip-path="url(#36f1f1edc6)"><path fill="#ff8b8b" d="M 873.882812 171.652344 L 871.421875 171.835938 C 865.53125 172.34375 859.660156 173.421875 853.8125 175.058594 C 787.136719 199.886719 744.324219 215.0625 725.378906 220.585938 C 696.746094 229.746094 672.609375 236.515625 652.964844 240.898438 C 576.082031 249.886719 508.375 250.695312 449.851562 243.328125 L 472.660156 526.425781 L 917.6875 509.554688 C 949.621094 496.492188 983.507812 479.210938 1019.339844 457.71875 L 1009.660156 202.148438 C 937.007812 187.496094 899.027344 178.148438 895.726562 174.105469 Z M 873.882812 171.652344 " fill-opacity="1" fill-rule="nonzero"/></g></g></g><g clip-path="url(#1d7f357c52)"><g clip-path="url(#1fc2e29884)"><g clip-path="url(#ca4d820eb3)"><path fill="#ff8b8b" d="M 114.644531 15.460938 L 107.730469 16.246094 C 104.882812 16.066406 100.378906 17.4375 94.214844 20.359375 L 61.328125 41.042969 C -0.242188 96.957031 -41.617188 139.164062 -62.796875 167.664062 L -48.449219 546.179688 L 995.746094 506.59375 C 1004.519531 500.980469 1012.734375 494.007812 1020.390625 485.675781 L 1014.785156 337.546875 C 969.601562 331.121094 873.574219 313.289062 726.703125 284.054688 L 423.738281 193.195312 C 417.171875 191.125 403.355469 183.816406 382.292969 171.261719 L 240.339844 68.390625 C 206.703125 49.546875 164.804688 31.902344 114.644531 15.460938 Z M 114.644531 15.460938 " fill-opacity="1" fill-rule="nonzero"/></g></g></g><g clip-path="url(#07ce26b57c)"><g clip-path="url(#2916c2a27b)"><g clip-path="url(#52c035c591)"><path fill="#ff8b8b" d="M 218.304688 284.671875 L 205.253906 288.527344 C 194.851562 290.554688 174.992188 300.507812 145.679688 318.386719 C 87.875 355.125 36.457031 389.859375 -8.582031 422.589844 L 45.539062 542.613281 L 1021.140625 505.632812 L 1015.25 349.839844 C 1014.277344 349.425781 1013.175781 349.042969 1011.941406 348.695312 C 1009.28125 347.71875 1003.351562 346.859375 994.144531 346.121094 L 800.9375 350.566406 L 583.03125 335.234375 L 481.847656 330.976562 L 343.128906 310.914062 L 243.789062 286.738281 C 240.671875 286.070312 232.175781 285.382812 218.304688 284.671875 Z M 218.304688 284.671875 " fill-opacity="1" fill-rule="nonzero"/></g></g></g><g clip-path="url(#ba8c118d8c)"><g clip-path="url(#858399c111)"><g clip-path="url(#6b1c061737)"><path fill="#ff7c7c" d="M -2.035156 378 L -16.011719 379.117188 C -29.503906 380.824219 -42.300781 384.140625 -54.40625 389.066406 L -48.449219 546.179688 L 934.796875 508.90625 L 884.328125 508.164062 L 723.59375 489.058594 C 686.097656 481.570312 617.277344 470.8125 517.128906 456.796875 C 454.472656 452.105469 411.351562 449.203125 387.761719 448.085938 C 300.972656 446.332031 246.46875 444.609375 224.246094 442.917969 C 189.007812 438.082031 163.851562 433.652344 148.777344 429.625 C 133.886719 426.539062 97.675781 411.546875 40.148438 384.644531 C 29.777344 381.875 15.714844 379.660156 -2.035156 378 " fill-opacity="1" fill-rule="nonzero"/></g></g></g><g clip-path="url(#84e36b974d)"><g clip-path="url(#bb1605d4e3)"><g clip-path="url(#8fc87ec326)"><path fill="#ff7c7c" d="M 1010.703125 230.066406 L 1000.292969 242.664062 C 966.515625 282.667969 939.179688 313.1875 918.285156 334.222656 C 886.066406 351.796875 860.792969 367.253906 842.464844 380.601562 C 802.671875 426.691406 779.792969 451.746094 773.820312 455.773438 L 672.9375 518.832031 L 1021.152344 505.632812 L 1010.703125 230.066406 " fill-opacity="1" fill-rule="nonzero"/></g></g></g></svg>