<svg xmlns="http://www.w3.org/2000/svg" xmlns:xlink="http://www.w3.org/1999/xlink" width="1350" zoomAndPan="magnify" viewBox="0 0 1012.5 599.999999" height="800" preserveAspectRatio="xMidYMid meet" version="1.0"><defs><clipPath id="1c39f1c0f1"><path d="M 0 265 L 750 265 L 750 599.851562 L 0 599.851562 Z M 0 265 " clip-rule="nonzero"/></clipPath><clipPath id="70bad99f1f"><path d="M 73 264.027344 L 1012 264.027344 L 1012 599.851562 L 73 599.851562 Z M 73 264.027344 " clip-rule="nonzero"/></clipPath><clipPath id="b035861ddd"><path d="M 0 319 L 856 319 L 856 599.851562 L 0 599.851562 Z M 0 319 " clip-rule="nonzero"/></clipPath><clipPath id="c874aa16df"><path d="M 0 384 L 1012 384 L 1012 599.851562 L 0 599.851562 Z M 0 384 " clip-rule="nonzero"/></clipPath></defs><g clip-path="url(#1c39f1c0f1)"><path fill="#ff7c7c" d="M 0.0078125 265.042969 L 8.777344 270.859375 C 56.339844 301.085938 84.996094 317.878906 94.742188 321.238281 L 121.152344 328.523438 C 167.265625 334.113281 193.125 338.214844 198.730469 340.820312 L 401.785156 426.871094 C 433.597656 436.558594 466.589844 445.621094 500.761719 454.054688 C 524.453125 459.410156 539.539062 461.523438 546.03125 460.394531 C 554.253906 460.386719 606.660156 451.425781 703.25 433.515625 L 749.089844 608.0625 L 0.00390625 608.0625 L 0.0078125 265.042969 " fill-opacity="1" fill-rule="nonzero"/></g><g clip-path="url(#70bad99f1f)"><path fill="#ffffff" d="M 958.441406 264.085938 L 959.457031 264.097656 C 999.507812 272.304688 1042.929688 292.664062 1089.71875 325.179688 L 1089.714844 608.0625 L 170.5 608.0625 L 73.160156 450.28125 C 145.648438 457.433594 200.066406 460.605469 236.417969 459.796875 L 306.488281 455.535156 C 363.214844 447.128906 437.921875 437.726562 530.617188 427.332031 C 553.847656 421.691406 565.300781 418.695312 564.972656 418.335938 L 716.699219 354.136719 C 763.332031 341.382812 796.148438 332.886719 815.148438 328.644531 C 841.765625 311.847656 874.113281 294.578125 912.191406 276.835938 C 932.183594 268.429688 947.601562 264.179688 958.441406 264.085938 " fill-opacity="1" fill-rule="nonzero"/></g><g clip-path="url(#b035861ddd)"><path fill="#ffe2f1" d="M 0 319.5625 L 41.804688 331.671875 L 137.972656 377.660156 C 161.835938 398.1875 191.605469 418.453125 227.285156 438.457031 C 246.3125 448.128906 268.546875 456.089844 293.988281 462.339844 L 504.046875 496.519531 C 563.914062 502.792969 601.085938 506.335938 615.566406 507.144531 C 615.328125 508.15625 617.328125 508.789062 621.570312 509.050781 C 653.6875 510.101562 731.703125 506.28125 855.613281 497.589844 L 728.128906 608.0625 L 0 608.0625 Z M 0 319.5625 " fill-opacity="1" fill-rule="nonzero"/></g><g clip-path="url(#c874aa16df)"><path fill="#ff8b8b" d="M 1006.675781 384.585938 L 1022.902344 386.46875 C 1041.234375 390.421875 1063.503906 399.925781 1089.71875 414.976562 L 1089.714844 608.0625 L 0.0117188 608.0625 L 0 559.132812 L 9.472656 557.597656 C 38.566406 553.351562 98.359375 547.792969 188.855469 540.921875 C 260.53125 537.851562 317.589844 536.46875 360.03125 536.785156 L 486.21875 528.113281 L 705.910156 500.417969 L 766.414062 485.1875 C 806.503906 464.925781 854.121094 446.777344 909.265625 430.75 L 1006.675781 384.585938 " fill-opacity="1" fill-rule="nonzero"/></g></svg>