<svg xmlns="http://www.w3.org/2000/svg" xmlns:xlink="http://www.w3.org/1999/xlink" width="1350" zoomAndPan="magnify" viewBox="0 0 1012.5 599.999999" height="800" preserveAspectRatio="xMidYMid meet" version="1.0"><defs><clipPath id="a5a97bb813"><path d="M 538 472 L 1011 472 L 1011 599.851562 L 538 599.851562 Z M 538 472 " clip-rule="nonzero"/></clipPath><clipPath id="143c46ca88"><path d="M 789 472.410156 L 928 472.410156 L 928 523 L 789 523 Z M 789 472.410156 " clip-rule="nonzero"/></clipPath><clipPath id="1d69f79a78"><path d="M 590.03125 534.417969 C 604.648438 534.285156 619.1875 533.304688 633.910156 531.183594 C 650.019531 528.859375 674.195312 533.902344 693.144531 532.519531 C 702.121094 531.867188 708.585938 527.296875 716.550781 524.914062 C 724.867188 522.421875 734.386719 523.359375 743.125 521.199219 C 753.785156 518.558594 764.800781 511.925781 775.925781 510.628906 C 793.785156 508.554688 794.765625 515.386719 814.15625 509.273438 C 831.121094 503.929688 916.75 471.578125 925.277344 472.476562 C 945.464844 474.597656 975.851562 511.710938 987.738281 522.589844 C 994.246094 528.550781 1002.734375 533.316406 1010.605469 538.433594 L 1010.605469 605.679688 C 990.78125 603.390625 971.023438 600.128906 962.71875 598.480469 C 954.421875 596.828125 875.371094 584.542969 787.738281 571.035156 C 757.121094 566.316406 725.453125 561.449219 695.390625 556.835938 C 622.605469 545.664062 559.222656 535.980469 542.886719 533.484375 C 544.84375 533.160156 547.082031 532.703125 548.5625 532.820312 C 562.601562 533.929688 576.351562 534.546875 590.03125 534.417969 Z M 542.886719 533.484375 C 540.566406 533.863281 538.632812 534.050781 538.808594 532.859375 C 538.808594 532.859375 540.222656 533.078125 542.886719 533.484375 Z M 542.886719 533.484375 " clip-rule="evenodd"/></clipPath><clipPath id="ccd4d26b9c"><path d="M 674 506 L 782 506 L 782 536 L 674 536 Z M 674 506 " clip-rule="nonzero"/></clipPath><clipPath id="23c2a219e9"><path d="M 590.03125 534.417969 C 604.648438 534.285156 619.1875 533.304688 633.910156 531.183594 C 650.019531 528.859375 674.195312 533.902344 693.144531 532.519531 C 702.121094 531.867188 708.585938 527.296875 716.550781 524.914062 C 724.867188 522.421875 734.386719 523.359375 743.125 521.199219 C 753.785156 518.558594 764.800781 511.925781 775.925781 510.628906 C 793.785156 508.554688 794.765625 515.386719 814.15625 509.273438 C 831.121094 503.929688 916.75 471.578125 925.277344 472.476562 C 945.464844 474.597656 975.851562 511.710938 987.738281 522.589844 C 994.246094 528.550781 1002.734375 533.316406 1010.605469 538.433594 L 1010.605469 605.679688 C 990.78125 603.390625 971.023438 600.128906 962.71875 598.480469 C 954.421875 596.828125 875.371094 584.542969 787.738281 571.035156 C 757.121094 566.316406 725.453125 561.449219 695.390625 556.835938 C 622.605469 545.664062 559.222656 535.980469 542.886719 533.484375 C 544.84375 533.160156 547.082031 532.703125 548.5625 532.820312 C 562.601562 533.929688 576.351562 534.546875 590.03125 534.417969 Z M 542.886719 533.484375 C 540.566406 533.863281 538.632812 534.050781 538.808594 532.859375 C 538.808594 532.859375 540.222656 533.078125 542.886719 533.484375 Z M 542.886719 533.484375 " clip-rule="evenodd"/></clipPath><clipPath id="5bf613ba77"><path d="M 48 521 L 790 521 L 790 599.851562 L 48 599.851562 Z M 48 521 " clip-rule="nonzero"/></clipPath><clipPath id="1cd0945113"><path d="M 353 533 L 1011 533 L 1011 599.851562 L 353 599.851562 Z M 353 533 " clip-rule="nonzero"/></clipPath><clipPath id="7aabe68855"><path d="M 939 511 L 1011 511 L 1011 599.851562 L 939 599.851562 Z M 939 511 " clip-rule="nonzero"/></clipPath><clipPath id="68cb8f8d9b"><path d="M 0 552 L 877 552 L 877 599.851562 L 0 599.851562 Z M 0 552 " clip-rule="nonzero"/></clipPath><clipPath id="725c9fb7e9"><path d="M 0 535 L 46 535 L 46 599.851562 L 0 599.851562 Z M 0 535 " clip-rule="nonzero"/></clipPath><clipPath id="2c8746eb72"><path d="M 43 555 L 87 555 L 87 599.851562 L 43 599.851562 Z M 43 555 " clip-rule="nonzero"/></clipPath><clipPath id="31d246d24d"><path d="M 749 579 L 769 579 L 769 599.851562 L 749 599.851562 Z M 749 579 " clip-rule="nonzero"/></clipPath></defs><g clip-path="url(#a5a97bb813)"><path fill="#ffe2f1" d="M 590.03125 534.417969 C 604.648438 534.285156 619.1875 533.304688 633.910156 531.183594 C 650.019531 528.859375 674.195312 533.902344 693.144531 532.519531 C 702.121094 531.867188 708.585938 527.296875 716.550781 524.914062 C 724.867188 522.421875 734.386719 523.359375 743.125 521.199219 C 753.785156 518.558594 764.800781 511.925781 775.925781 510.628906 C 793.785156 508.554688 794.765625 515.386719 814.15625 509.273438 C 831.121094 503.929688 916.75 471.578125 925.277344 472.476562 C 945.464844 474.597656 975.851562 511.710938 987.738281 522.589844 C 994.246094 528.550781 1002.734375 533.316406 1010.605469 538.433594 L 1010.605469 605.679688 C 990.78125 603.390625 971.023438 600.128906 962.71875 598.480469 C 954.421875 596.828125 875.371094 584.542969 787.738281 571.035156 C 757.121094 566.316406 725.453125 561.449219 695.390625 556.835938 C 622.605469 545.664062 559.222656 535.980469 542.886719 533.484375 C 544.84375 533.160156 547.082031 532.703125 548.5625 532.820312 C 562.601562 533.929688 576.351562 534.546875 590.03125 534.417969 Z M 542.886719 533.484375 C 540.566406 533.863281 538.632812 534.050781 538.808594 532.859375 C 538.808594 532.859375 540.222656 533.078125 542.886719 533.484375 Z M 542.886719 533.484375 " fill-opacity="1" fill-rule="evenodd"/></g><g clip-path="url(#143c46ca88)"><g clip-path="url(#1d69f79a78)"><path fill="#ffffff" d="M 927.890625 473.066406 C 917.699219 473.636719 898.761719 485.679688 892.863281 491.667969 C 889.949219 494.625 888.390625 498.109375 885.171875 500.929688 C 878.636719 506.65625 859.285156 516.082031 849.457031 518.675781 C 841.535156 520.761719 832.542969 520.964844 824.226562 521.867188 C 817.851562 522.558594 812.136719 523.902344 805.988281 521.910156 C 801.207031 520.363281 796.832031 516.09375 793.636719 513.257812 C 791.835938 511.65625 789.097656 509.214844 789.039062 507.109375 C 788.679688 494.449219 842.527344 483.824219 855.507812 480.636719 C 874.5625 475.960938 893.808594 471.433594 912.339844 465.855469 C 915.785156 464.820312 927.890625 473.066406 927.890625 473.066406 Z M 927.890625 473.066406 " fill-opacity="1" fill-rule="evenodd"/></g></g><g clip-path="url(#ccd4d26b9c)"><g clip-path="url(#23c2a219e9)"><path fill="#ffffff" d="M 774.089844 506.625 C 774.214844 506.703125 781.671875 510.097656 781.550781 510.058594 C 779.636719 509.445312 774.683594 512.308594 773.046875 512.863281 C 768.351562 514.445312 764.015625 516.734375 760.175781 519.144531 C 742.171875 530.441406 736.34375 524.925781 717.9375 529.613281 C 711.390625 531.28125 705.378906 535.640625 698.175781 535.929688 C 694.011719 536.097656 674.699219 529.792969 674.882812 527.664062 C 675.183594 524.160156 683.371094 521.285156 686.871094 519.511719 C 690.375 517.742188 774.089844 506.625 774.089844 506.625 Z M 774.089844 506.625 " fill-opacity="1" fill-rule="evenodd"/></g></g><g clip-path="url(#5bf613ba77)"><path fill="#fff6e9" d="M 48.324219 600.070312 C 47.773438 600.441406 49.691406 599.558594 50.433594 599.40625 C 60.683594 597.289062 70.578125 594.960938 80.582031 592.316406 C 98.230469 587.648438 115.714844 583.003906 132.464844 576.957031 C 146.695312 571.820312 162.976562 563.648438 179.359375 562.132812 C 192.804688 560.890625 206.453125 563.582031 219.589844 560.613281 C 244.589844 554.96875 269.09375 545.136719 294.910156 541.574219 C 315.949219 538.671875 350.664062 557.933594 376.019531 556.59375 C 389.890625 555.863281 401.46875 549.019531 415.023438 547.582031 C 425.789062 546.441406 438.464844 550.570312 448.667969 547.503906 C 472.082031 540.464844 492.136719 526.050781 517.417969 522.226562 C 550.070312 517.28125 587.871094 536.945312 619.976562 541.410156 C 638.25 543.953125 654.722656 542.078125 672.558594 547.03125 C 699.453125 554.503906 727.144531 559.296875 755.5625 563.230469 C 762.898438 564.246094 770.25 565.214844 777.59375 566.199219 C 778.382812 566.304688 789.890625 567.160156 789.363281 568.589844 C 783.707031 584.039062 697.988281 588.566406 695.683594 591.03125 C 693.378906 593.496094 48.324219 600.070312 48.324219 600.070312 Z M 48.324219 600.070312 " fill-opacity="1" fill-rule="evenodd"/></g><g clip-path="url(#1cd0945113)"><path fill="#ff7c7c" d="M 1010.605469 608.1875 L 858.054688 608.1875 C 765.394531 604.171875 641.835938 598.753906 540.167969 594.28125 C 468.328125 591.121094 407.417969 588.4375 376.050781 587.050781 C 389.269531 586.925781 401.601562 585.0625 413.386719 581.9375 C 424.511719 578.992188 435.148438 574.917969 445.59375 570.121094 C 452.34375 567.019531 458.078125 561.917969 465.992188 560.199219 C 473.773438 558.503906 484.988281 559.566406 493.179688 559.585938 C 498.578125 559.601562 503.972656 559.855469 509.367188 560.222656 C 526.527344 561.386719 543.671875 563.671875 560.710938 562.945312 C 569.175781 562.585938 577.3125 560.800781 585.40625 559.078125 C 593.804688 557.292969 602.15625 555.578125 610.785156 555.585938 C 628.792969 555.609375 641.089844 563.8125 659.828125 561.570312 C 671.136719 560.214844 684.074219 559.175781 695.390625 556.835938 C 697.351562 556.433594 699.261719 555.988281 701.109375 555.496094 C 702.144531 555.21875 703.183594 554.929688 704.222656 554.625 C 729.71875 547.207031 756.085938 532.3125 784.785156 533.460938 C 821.851562 534.945312 848.546875 563.261719 884.640625 567.660156 C 885.152344 567.722656 885.664062 567.78125 886.175781 567.835938 C 898.003906 569.109375 910.347656 568.574219 922.492188 568.632812 C 923.882812 568.640625 925.277344 568.652344 926.660156 568.679688 C 932.214844 568.785156 937.707031 569.074219 943.066406 569.777344 C 944.558594 569.976562 946.058594 570.214844 947.5625 570.496094 C 947.757812 570.53125 947.949219 570.570312 948.144531 570.605469 C 949.957031 570.957031 951.777344 571.363281 953.601562 571.820312 C 954.636719 572.082031 955.679688 572.359375 956.71875 572.648438 C 973.703125 577.421875 990.910156 586.246094 1006.511719 593.875 C 1007.890625 594.550781 1009.253906 595.214844 1010.605469 595.863281 Z M 376.050781 587.050781 C 373.136719 587.082031 370.175781 587.023438 367.171875 586.878906 C 362.550781 586.65625 356.054688 588.59375 353.335938 586.050781 C 353.335938 586.050781 361.523438 586.410156 376.050781 587.050781 Z M 376.050781 587.050781 " fill-opacity="1" fill-rule="evenodd"/></g><g clip-path="url(#7aabe68855)"><path fill="#ff7c7c" d="M 953.921875 586.546875 C 954.136719 586.527344 954.25 586.46875 954.117188 586.34375 C 954.109375 586.332031 954.023438 586.429688 953.921875 586.546875 C 953.585938 586.582031 952.996094 586.53125 952.707031 586.558594 C 951.671875 586.65625 950.632812 586.679688 949.597656 586.816406 C 948.359375 586.988281 943.082031 589.808594 942.984375 588.1875 C 942.722656 583.957031 955.789062 576.546875 955.808594 576.296875 C 955.820312 576.125 954.84375 576.183594 954.71875 576.195312 C 952.585938 576.425781 946.699219 579.367188 946.546875 577.765625 C 946.335938 575.597656 955.507812 570.738281 957.253906 569.714844 C 957.421875 569.613281 959 568.84375 958.757812 568.503906 C 958.089844 567.5625 948.167969 570.652344 947.679688 570.710938 C 947.664062 570.710938 947.484375 570.75 947.445312 570.6875 C 947.34375 570.503906 948.710938 569.617188 948.800781 569.554688 C 952.101562 567.277344 955.578125 565.28125 959.171875 563.480469 C 959.28125 563.425781 960.703125 562.84375 960.617188 562.632812 C 960.425781 562.15625 957.855469 562.179688 957.402344 562.085938 C 956.839844 561.96875 956.640625 561.605469 957.089844 561.195312 C 957.125 561.164062 957.183594 561.125 957.25 561.09375 C 957.390625 561.046875 957.511719 561 957.597656 560.957031 C 957.726562 560.894531 957.449219 560.988281 957.25 561.09375 C 955.464844 561.6875 949.886719 562.488281 949.46875 561.089844 C 949.441406 560.992188 949.441406 560.820312 949.460938 560.722656 C 950.035156 557.347656 956.515625 555.308594 958.074219 552.765625 C 958.089844 552.738281 958.015625 552.726562 957.980469 552.730469 C 957.335938 552.796875 955.703125 553.234375 956.859375 552.304688 C 957.867188 551.492188 958.867188 550.648438 959.945312 549.929688 C 959.988281 549.898438 960.074219 549.886719 960.074219 549.835938 C 960.074219 549.746094 959.898438 549.902344 959.808594 549.929688 C 959.246094 550.074219 958.6875 550.230469 958.132812 550.386719 C 952.597656 551.96875 950.886719 551.179688 950.90625 551.035156 C 950.90625 551.011719 960.855469 544.65625 960.792969 544.40625 C 960.78125 544.371094 960.421875 544.394531 960.410156 544.394531 C 959.890625 544.394531 956.746094 544.4375 956.617188 543.894531 C 956.554688 543.628906 958.792969 541.6875 959.035156 541.371094 C 959.425781 540.855469 959.742188 540.292969 960.109375 539.757812 C 960.121094 539.734375 960.140625 539.703125 960.15625 539.679688 C 960.203125 539.65625 960.230469 539.644531 960.222656 539.640625 C 960.203125 539.621094 960.179688 539.644531 960.15625 539.679688 C 959.941406 539.765625 959.285156 539.980469 959.242188 539.992188 C 958.914062 540.078125 956.085938 540.796875 955.886719 540.308594 C 955.847656 540.210938 956.191406 539.917969 956.246094 539.859375 C 958.035156 537.921875 960.519531 536.734375 962.445312 534.9375 C 963.125 534.300781 963.742188 533.609375 964.363281 532.921875 C 964.554688 532.710938 965.15625 532.113281 964.953125 532.3125 C 964.621094 532.636719 961.550781 532.285156 961.554688 532.265625 C 962.066406 530.257812 965.042969 527.960938 966.445312 526.496094 C 966.507812 526.433594 966.9375 526.074219 966.875 525.949219 C 966.738281 525.6875 964.15625 525.738281 964.15625 525.523438 C 964.15625 525.476562 964.734375 525.25 964.769531 525.226562 C 966.339844 524.410156 967.816406 523.625 969.035156 522.320312 C 969.195312 522.148438 969.566406 521.859375 969.566406 521.859375 C 969.566406 521.859375 968.269531 521.550781 967.613281 521.414062 C 967.40625 521.371094 966.976562 521.578125 966.976562 521.371094 C 966.976562 521.351562 969.941406 518.183594 970.132812 517.964844 C 971.835938 516.054688 975.078125 511.722656 975.082031 511.699219 C 975.148438 511.730469 978.308594 516.054688 980.011719 517.964844 C 980.203125 518.183594 983.167969 521.351562 983.167969 521.371094 C 983.167969 521.578125 982.738281 521.371094 982.53125 521.414062 C 981.878906 521.550781 980.578125 521.859375 980.578125 521.859375 C 980.578125 521.859375 980.949219 522.148438 981.109375 522.320312 C 982.328125 523.625 983.804688 524.410156 985.375 525.226562 C 985.414062 525.25 985.988281 525.476562 985.988281 525.523438 C 985.988281 525.738281 983.40625 525.6875 983.269531 525.949219 C 983.207031 526.074219 983.636719 526.433594 983.699219 526.496094 C 985.101562 527.960938 988.078125 530.257812 988.589844 532.265625 C 988.59375 532.285156 985.523438 532.636719 985.191406 532.3125 C 984.988281 532.113281 985.589844 532.710938 985.78125 532.921875 C 986.402344 533.609375 987.019531 534.300781 987.699219 534.9375 C 989.625 536.734375 992.109375 537.921875 993.898438 539.859375 C 993.953125 539.917969 994.296875 540.210938 994.257812 540.308594 C 994.058594 540.796875 991.230469 540.078125 990.902344 539.992188 C 990.859375 539.980469 990.207031 539.765625 989.988281 539.679688 C 989.964844 539.644531 989.941406 539.621094 989.921875 539.640625 C 989.917969 539.644531 989.941406 539.65625 989.988281 539.679688 C 990.007812 539.703125 990.023438 539.734375 990.035156 539.757812 C 990.402344 540.292969 990.71875 540.855469 991.109375 541.371094 C 991.351562 541.6875 993.589844 543.628906 993.527344 543.894531 C 993.402344 544.4375 990.253906 544.394531 989.734375 544.394531 C 989.722656 544.394531 989.363281 544.371094 989.351562 544.40625 C 989.289062 544.65625 999.238281 551.011719 999.242188 551.035156 C 999.257812 551.179688 997.546875 551.96875 992.011719 550.386719 C 991.457031 550.230469 990.898438 550.074219 990.335938 549.929688 C 990.246094 549.902344 990.070312 549.746094 990.070312 549.835938 C 990.070312 549.886719 990.15625 549.898438 990.199219 549.929688 C 991.277344 550.648438 992.277344 551.492188 993.285156 552.304688 C 994.441406 553.234375 992.808594 552.796875 992.164062 552.730469 C 992.128906 552.726562 992.054688 552.738281 992.070312 552.765625 C 993.628906 555.308594 1000.109375 557.347656 1000.6875 560.722656 C 1000.703125 560.820312 1000.703125 560.992188 1000.675781 561.089844 C 1000.257812 562.488281 994.679688 561.6875 992.894531 561.09375 C 992.695312 560.988281 992.417969 560.894531 992.546875 560.957031 C 992.636719 561 992.753906 561.046875 992.894531 561.09375 C 992.960938 561.125 993.019531 561.164062 993.054688 561.195312 C 993.503906 561.605469 993.304688 561.96875 992.742188 562.085938 C 992.289062 562.179688 989.71875 562.15625 989.527344 562.632812 C 989.441406 562.84375 990.863281 563.425781 990.972656 563.480469 C 994.566406 565.28125 998.042969 567.277344 1001.34375 569.554688 C 1001.4375 569.617188 1002.800781 570.503906 1002.699219 570.6875 C 1002.664062 570.75 1002.484375 570.710938 1002.464844 570.710938 C 1001.976562 570.652344 992.054688 567.5625 991.390625 568.503906 C 991.144531 568.84375 992.722656 569.613281 992.890625 569.714844 C 994.636719 570.738281 1003.808594 575.597656 1003.601562 577.765625 C 1003.445312 579.367188 997.558594 576.425781 995.425781 576.195312 C 995.300781 576.183594 994.324219 576.125 994.335938 576.296875 C 994.355469 576.546875 1007.421875 583.957031 1007.160156 588.1875 C 1007.0625 589.808594 1001.785156 586.988281 1000.546875 586.816406 C 999.511719 586.679688 998.476562 586.65625 997.4375 586.558594 C 997.148438 586.53125 996.558594 586.582031 996.222656 586.546875 C 996.121094 586.429688 996.035156 586.332031 996.027344 586.34375 C 995.894531 586.46875 996.007812 586.527344 996.222656 586.546875 C 996.371094 586.722656 996.558594 586.960938 996.582031 586.988281 C 997.828125 588.496094 1000.210938 589.210938 1001.832031 590.238281 C 1002.425781 590.613281 1011.347656 597.128906 1010.550781 598.832031 C 1010.03125 599.9375 1003.949219 597.035156 1002.511719 597.035156 C 1000.347656 597.035156 997.617188 596.515625 995.527344 596.808594 C 992.816406 597.1875 990.742188 598.703125 987.769531 598.53125 C 983.363281 598.269531 979.402344 596.007812 975.074219 595.855469 C 970.742188 596.007812 966.78125 598.269531 962.375 598.53125 C 959.402344 598.703125 957.328125 597.1875 954.617188 596.808594 C 952.527344 596.515625 949.796875 597.035156 947.632812 597.035156 C 946.195312 597.035156 940.113281 599.9375 939.59375 598.832031 C 938.796875 597.128906 947.71875 590.613281 948.3125 590.238281 C 949.933594 589.210938 952.316406 588.496094 953.5625 586.988281 C 953.585938 586.960938 953.773438 586.722656 953.921875 586.546875 Z M 953.921875 586.546875 " fill-opacity="1" fill-rule="evenodd"/></g><path fill="#ff7c7c" d="M 924.476562 572.5625 C 924.628906 572.554688 924.707031 572.523438 924.613281 572.453125 C 924.605469 572.445312 924.546875 572.5 924.476562 572.5625 C 924.234375 572.582031 923.816406 572.554688 923.609375 572.570312 C 922.871094 572.625 922.132812 572.636719 921.390625 572.714844 C 920.507812 572.808594 916.75 574.367188 916.679688 573.472656 C 916.492188 571.132812 925.804688 567.035156 925.816406 566.894531 C 925.828125 566.796875 925.128906 566.832031 925.042969 566.839844 C 923.523438 566.964844 919.324219 568.59375 919.214844 567.707031 C 919.070312 566.507812 925.605469 563.820312 926.847656 563.253906 C 926.96875 563.195312 928.09375 562.773438 927.917969 562.585938 C 927.445312 562.0625 920.375 563.773438 920.023438 563.804688 C 920.011719 563.804688 919.886719 563.828125 919.859375 563.792969 C 919.785156 563.691406 920.757812 563.199219 920.824219 563.164062 C 923.175781 561.90625 925.65625 560.800781 928.214844 559.804688 C 928.296875 559.773438 929.308594 559.453125 929.246094 559.335938 C 929.109375 559.074219 927.277344 559.085938 926.957031 559.035156 C 926.554688 558.96875 926.410156 558.765625 926.734375 558.539062 C 926.757812 558.523438 926.796875 558.503906 926.84375 558.484375 C 926.949219 558.457031 927.03125 558.433594 927.09375 558.410156 C 927.1875 558.375 926.988281 558.425781 926.84375 558.484375 C 925.574219 558.8125 921.597656 559.257812 921.300781 558.484375 C 921.28125 558.429688 921.28125 558.332031 921.292969 558.277344 C 921.703125 556.410156 926.324219 555.285156 927.433594 553.878906 C 927.445312 553.863281 927.390625 553.855469 927.367188 553.859375 C 926.90625 553.894531 925.746094 554.136719 926.566406 553.621094 C 927.285156 553.171875 928 552.707031 928.769531 552.308594 C 928.800781 552.292969 928.859375 552.285156 928.859375 552.257812 C 928.859375 552.207031 928.734375 552.292969 928.667969 552.308594 C 928.269531 552.390625 927.871094 552.476562 927.476562 552.5625 C 923.53125 553.4375 922.3125 553 922.324219 552.921875 C 922.324219 552.910156 929.417969 549.394531 929.371094 549.253906 C 929.363281 549.234375 929.109375 549.246094 929.097656 549.246094 C 928.730469 549.246094 926.484375 549.273438 926.394531 548.96875 C 926.351562 548.824219 927.949219 547.75 928.117188 547.574219 C 928.398438 547.289062 928.625 546.976562 928.882812 546.683594 C 928.894531 546.667969 928.90625 546.652344 928.917969 546.640625 C 928.949219 546.628906 928.96875 546.621094 928.964844 546.617188 C 928.949219 546.609375 928.933594 546.621094 928.917969 546.640625 C 928.761719 546.6875 928.296875 546.804688 928.265625 546.8125 C 928.03125 546.859375 926.015625 547.257812 925.875 546.988281 C 925.847656 546.933594 926.089844 546.769531 926.132812 546.738281 C 927.40625 545.667969 929.175781 545.011719 930.550781 544.015625 C 931.03125 543.664062 931.472656 543.28125 931.917969 542.902344 C 932.050781 542.785156 932.480469 542.457031 932.335938 542.5625 C 932.101562 542.742188 929.910156 542.550781 929.914062 542.539062 C 930.28125 541.429688 932.398438 540.15625 933.402344 539.347656 C 933.445312 539.3125 933.75 539.113281 933.707031 539.046875 C 933.609375 538.898438 931.769531 538.925781 931.769531 538.808594 C 931.769531 538.785156 932.179688 538.65625 932.207031 538.644531 C 933.324219 538.195312 934.375 537.757812 935.246094 537.039062 C 935.359375 536.941406 935.625 536.78125 935.625 536.78125 C 935.625 536.78125 934.699219 536.609375 934.234375 536.539062 C 934.085938 536.511719 933.78125 536.625 933.78125 536.511719 C 933.78125 536.503906 935.890625 534.75 936.03125 534.628906 C 937.242188 533.570312 939.554688 531.175781 939.554688 531.160156 C 939.601562 531.179688 941.855469 533.570312 943.066406 534.628906 C 943.207031 534.75 945.316406 536.503906 945.316406 536.511719 C 945.316406 536.625 945.011719 536.511719 944.863281 536.539062 C 944.398438 536.609375 943.472656 536.78125 943.472656 536.78125 C 943.472656 536.78125 943.738281 536.941406 943.851562 537.039062 C 944.722656 537.757812 945.773438 538.195312 946.890625 538.644531 C 946.917969 538.65625 947.328125 538.785156 947.328125 538.808594 C 947.328125 538.925781 945.488281 538.898438 945.390625 539.046875 C 945.347656 539.113281 945.652344 539.3125 945.699219 539.347656 C 946.699219 540.15625 948.816406 541.429688 949.183594 542.539062 C 949.1875 542.550781 946.996094 542.742188 946.761719 542.5625 C 946.617188 542.457031 947.046875 542.785156 947.179688 542.902344 C 947.625 543.28125 948.0625 543.664062 948.550781 544.015625 C 949.921875 545.011719 951.691406 545.667969 952.964844 546.738281 C 953.007812 546.769531 953.25 546.933594 953.222656 546.988281 C 953.082031 547.257812 951.066406 546.859375 950.832031 546.8125 C 950.800781 546.804688 950.335938 546.6875 950.179688 546.640625 C 950.164062 546.621094 950.148438 546.609375 950.132812 546.617188 C 950.128906 546.621094 950.148438 546.628906 950.179688 546.640625 C 950.191406 546.652344 950.203125 546.667969 950.214844 546.683594 C 950.472656 546.976562 950.699219 547.289062 950.980469 547.574219 C 951.152344 547.75 952.746094 548.824219 952.703125 548.96875 C 952.613281 549.273438 950.367188 549.246094 950 549.246094 C 949.988281 549.246094 949.734375 549.234375 949.726562 549.253906 C 949.679688 549.394531 956.773438 552.910156 956.773438 552.921875 C 956.785156 553 955.566406 553.4375 951.625 552.5625 C 951.226562 552.476562 950.828125 552.390625 950.429688 552.308594 C 950.363281 552.292969 950.238281 552.207031 950.238281 552.257812 C 950.238281 552.285156 950.296875 552.292969 950.328125 552.308594 C 951.097656 552.707031 951.8125 553.171875 952.53125 553.621094 C 953.351562 554.136719 952.191406 553.894531 951.730469 553.859375 C 951.707031 553.855469 951.652344 553.863281 951.664062 553.878906 C 952.773438 555.285156 957.394531 556.410156 957.804688 558.277344 C 957.816406 558.332031 957.816406 558.429688 957.796875 558.484375 C 957.5 559.257812 953.523438 558.8125 952.253906 558.484375 C 952.109375 558.425781 951.910156 558.375 952.003906 558.410156 C 952.066406 558.433594 952.152344 558.457031 952.253906 558.484375 C 952.300781 558.503906 952.339844 558.523438 952.363281 558.539062 C 952.6875 558.765625 952.542969 558.96875 952.140625 559.035156 C 951.820312 559.085938 949.988281 559.074219 949.851562 559.335938 C 949.789062 559.453125 950.800781 559.773438 950.882812 559.804688 C 953.441406 560.800781 955.921875 561.90625 958.273438 563.164062 C 958.339844 563.199219 959.3125 563.691406 959.238281 563.792969 C 959.210938 563.828125 959.085938 563.804688 959.074219 563.804688 C 958.722656 563.773438 951.652344 562.0625 951.179688 562.585938 C 951.003906 562.773438 952.128906 563.195312 952.25 563.253906 C 953.492188 563.820312 960.03125 566.507812 959.882812 567.707031 C 959.773438 568.59375 955.574219 566.964844 954.054688 566.839844 C 953.96875 566.832031 953.269531 566.796875 953.28125 566.894531 C 953.292969 567.035156 962.605469 571.132812 962.417969 573.472656 C 962.347656 574.367188 958.589844 572.808594 957.707031 572.714844 C 956.964844 572.636719 956.230469 572.625 955.488281 572.570312 C 955.28125 572.554688 954.863281 572.582031 954.621094 572.5625 C 954.550781 572.5 954.492188 572.445312 954.484375 572.453125 C 954.390625 572.523438 954.46875 572.554688 954.621094 572.5625 C 954.730469 572.664062 954.863281 572.792969 954.878906 572.808594 C 955.765625 573.644531 957.464844 574.039062 958.621094 574.605469 C 959.042969 574.8125 965.402344 578.417969 964.835938 579.359375 C 964.464844 579.96875 960.128906 578.367188 959.105469 578.367188 C 957.5625 578.367188 955.617188 578.078125 954.128906 578.238281 C 952.195312 578.449219 950.714844 579.289062 948.597656 579.191406 C 945.457031 579.050781 942.636719 577.796875 939.550781 577.714844 C 936.460938 577.796875 933.640625 579.050781 930.5 579.191406 C 928.382812 579.289062 926.902344 578.449219 924.96875 578.238281 C 923.480469 578.078125 921.535156 578.367188 919.992188 578.367188 C 918.96875 578.367188 914.632812 579.96875 914.261719 579.359375 C 913.695312 578.417969 920.054688 574.8125 920.476562 574.605469 C 921.632812 574.039062 923.332031 573.644531 924.21875 572.808594 C 924.234375 572.792969 924.367188 572.664062 924.476562 572.5625 Z M 924.476562 572.5625 " fill-opacity="1" fill-rule="evenodd"/><path fill="#ff7c7c" d="M 892.003906 563.324219 C 892.148438 563.3125 892.222656 563.269531 892.132812 563.175781 C 892.128906 563.167969 892.070312 563.238281 892.003906 563.324219 C 891.78125 563.351562 891.394531 563.316406 891.203125 563.335938 C 890.519531 563.40625 889.835938 563.421875 889.152344 563.523438 C 888.332031 563.652344 884.851562 565.734375 884.785156 564.535156 C 884.613281 561.414062 893.234375 555.941406 893.25 555.757812 C 893.257812 555.628906 892.613281 555.671875 892.53125 555.683594 C 891.125 555.855469 887.238281 558.027344 887.136719 556.84375 C 887 555.242188 893.050781 551.652344 894.203125 550.898438 C 894.316406 550.824219 895.355469 550.253906 895.195312 550.003906 C 894.753906 549.308594 888.207031 551.589844 887.882812 551.632812 C 887.871094 551.632812 887.753906 551.664062 887.730469 551.617188 C 887.664062 551.480469 888.5625 550.824219 888.625 550.78125 C 890.800781 549.097656 893.097656 547.625 895.46875 546.296875 C 895.542969 546.253906 896.480469 545.828125 896.425781 545.667969 C 896.296875 545.320312 894.601562 545.335938 894.300781 545.265625 C 893.929688 545.179688 893.796875 544.910156 894.097656 544.609375 C 894.117188 544.585938 894.15625 544.558594 894.199219 544.535156 C 894.296875 544.5 894.375 544.464844 894.433594 544.433594 C 894.515625 544.386719 894.335938 544.457031 894.199219 544.535156 C 893.023438 544.972656 889.339844 545.5625 889.066406 544.53125 C 889.046875 544.460938 889.046875 544.332031 889.058594 544.257812 C 889.4375 541.765625 893.71875 540.261719 894.746094 538.386719 C 894.757812 538.367188 894.707031 538.355469 894.683594 538.359375 C 894.257812 538.410156 893.179688 538.734375 893.945312 538.042969 C 894.609375 537.445312 895.269531 536.820312 895.980469 536.289062 C 896.011719 536.269531 896.066406 536.261719 896.066406 536.222656 C 896.066406 536.15625 895.949219 536.269531 895.890625 536.289062 C 895.519531 536.398438 895.152344 536.515625 894.785156 536.628906 C 891.128906 537.796875 890.003906 537.214844 890.011719 537.109375 C 890.015625 537.089844 896.582031 532.398438 896.539062 532.214844 C 896.53125 532.1875 896.296875 532.203125 896.285156 532.203125 C 895.945312 532.203125 893.867188 532.238281 893.785156 531.835938 C 893.742188 531.640625 895.222656 530.207031 895.378906 529.972656 C 895.640625 529.589844 895.847656 529.175781 896.089844 528.78125 C 896.097656 528.765625 896.109375 528.742188 896.121094 528.726562 C 896.148438 528.707031 896.167969 528.699219 896.164062 528.695312 C 896.152344 528.683594 896.132812 528.699219 896.121094 528.726562 C 895.976562 528.789062 895.546875 528.945312 895.515625 528.957031 C 895.300781 529.019531 893.433594 529.550781 893.300781 529.191406 C 893.277344 529.117188 893.503906 528.898438 893.539062 528.855469 C 894.71875 527.425781 896.359375 526.550781 897.628906 525.222656 C 898.078125 524.753906 898.484375 524.242188 898.898438 523.734375 C 899.023438 523.582031 899.421875 523.140625 899.285156 523.285156 C 899.066406 523.523438 897.039062 523.265625 897.042969 523.25 C 897.382812 521.769531 899.34375 520.070312 900.269531 518.992188 C 900.3125 518.945312 900.59375 518.679688 900.554688 518.589844 C 900.464844 518.394531 898.761719 518.429688 898.761719 518.273438 C 898.761719 518.238281 899.140625 518.070312 899.164062 518.054688 C 900.199219 517.453125 901.175781 516.871094 901.980469 515.910156 C 902.085938 515.78125 902.332031 515.566406 902.332031 515.566406 C 902.332031 515.566406 901.472656 515.339844 901.042969 515.242188 C 900.90625 515.207031 900.621094 515.359375 900.621094 515.207031 C 900.621094 515.195312 902.578125 512.855469 902.707031 512.695312 C 903.828125 511.285156 905.96875 508.085938 905.972656 508.066406 C 906.015625 508.089844 908.101562 511.285156 909.222656 512.695312 C 909.351562 512.855469 911.308594 515.195312 911.308594 515.207031 C 911.308594 515.359375 911.023438 515.207031 910.886719 515.242188 C 910.457031 515.339844 909.597656 515.566406 909.597656 515.566406 C 909.597656 515.566406 909.84375 515.78125 909.949219 515.910156 C 910.753906 516.871094 911.730469 517.453125 912.765625 518.054688 C 912.789062 518.070312 913.171875 518.238281 913.171875 518.273438 C 913.171875 518.429688 911.464844 518.394531 911.375 518.589844 C 911.335938 518.679688 911.617188 518.945312 911.660156 518.992188 C 912.585938 520.070312 914.550781 521.769531 914.886719 523.25 C 914.890625 523.265625 912.863281 523.523438 912.644531 523.285156 C 912.511719 523.140625 912.90625 523.582031 913.03125 523.734375 C 913.445312 524.242188 913.851562 524.753906 914.300781 525.222656 C 915.570312 526.550781 917.210938 527.425781 918.390625 528.855469 C 918.429688 528.898438 918.65625 529.117188 918.628906 529.191406 C 918.496094 529.550781 916.632812 529.019531 916.414062 528.957031 C 916.382812 528.945312 915.953125 528.789062 915.808594 528.726562 C 915.796875 528.699219 915.78125 528.683594 915.765625 528.695312 C 915.761719 528.699219 915.78125 528.707031 915.808594 528.726562 C 915.820312 528.742188 915.832031 528.765625 915.839844 528.78125 C 916.082031 529.175781 916.292969 529.589844 916.550781 529.972656 C 916.710938 530.207031 918.1875 531.640625 918.148438 531.835938 C 918.0625 532.238281 915.984375 532.203125 915.644531 532.203125 C 915.632812 532.203125 915.398438 532.1875 915.390625 532.214844 C 915.347656 532.398438 921.914062 537.089844 921.917969 537.109375 C 921.929688 537.214844 920.800781 537.796875 917.148438 536.628906 C 916.777344 536.515625 916.410156 536.398438 916.039062 536.289062 C 915.980469 536.269531 915.863281 536.15625 915.863281 536.222656 C 915.863281 536.261719 915.921875 536.269531 915.949219 536.289062 C 916.660156 536.820312 917.320312 537.445312 917.984375 538.042969 C 918.75 538.734375 917.671875 538.410156 917.246094 538.359375 C 917.222656 538.355469 917.171875 538.367188 917.183594 538.386719 C 918.214844 540.261719 922.492188 541.765625 922.871094 544.257812 C 922.882812 544.332031 922.882812 544.460938 922.863281 544.53125 C 922.589844 545.5625 918.90625 544.972656 917.730469 544.535156 C 917.597656 544.457031 917.414062 544.386719 917.496094 544.433594 C 917.558594 544.464844 917.636719 544.5 917.730469 544.535156 C 917.773438 544.558594 917.8125 544.585938 917.832031 544.609375 C 918.132812 544.910156 918 545.179688 917.628906 545.265625 C 917.328125 545.335938 915.632812 545.320312 915.503906 545.667969 C 915.449219 545.828125 916.386719 546.253906 916.460938 546.296875 C 918.832031 547.625 921.128906 549.097656 923.304688 550.78125 C 923.367188 550.824219 924.265625 551.480469 924.199219 551.617188 C 924.175781 551.664062 924.058594 551.632812 924.046875 551.632812 C 923.722656 551.589844 917.175781 549.308594 916.734375 550.003906 C 916.574219 550.253906 917.613281 550.824219 917.726562 550.898438 C 918.878906 551.652344 924.933594 555.242188 924.792969 556.84375 C 924.695312 558.027344 920.804688 555.855469 919.398438 555.683594 C 919.316406 555.671875 918.671875 555.628906 918.679688 555.757812 C 918.695312 555.941406 927.316406 561.414062 927.144531 564.535156 C 927.078125 565.734375 923.597656 563.652344 922.78125 563.523438 C 922.09375 563.421875 921.410156 563.40625 920.726562 563.335938 C 920.535156 563.316406 920.148438 563.351562 919.925781 563.324219 C 919.859375 563.238281 919.800781 563.167969 919.796875 563.175781 C 919.707031 563.269531 919.785156 563.3125 919.925781 563.324219 C 920.023438 563.457031 920.144531 563.628906 920.160156 563.652344 C 920.984375 564.765625 922.554688 565.292969 923.625 566.050781 C 924.019531 566.328125 929.910156 571.136719 929.382812 572.394531 C 929.039062 573.210938 925.023438 571.066406 924.078125 571.066406 C 922.648438 571.066406 920.84375 570.6875 919.46875 570.898438 C 917.675781 571.179688 916.308594 572.300781 914.34375 572.171875 C 911.4375 571.980469 908.824219 570.308594 905.964844 570.199219 C 903.105469 570.308594 900.492188 571.980469 897.585938 572.171875 C 895.621094 572.300781 894.253906 571.179688 892.464844 570.898438 C 891.085938 570.6875 889.28125 571.066406 887.851562 571.066406 C 886.90625 571.066406 882.890625 573.210938 882.546875 572.394531 C 882.019531 571.136719 887.910156 566.328125 888.304688 566.050781 C 889.375 565.292969 890.945312 564.765625 891.769531 563.652344 C 891.785156 563.628906 891.90625 563.457031 892.003906 563.324219 Z M 892.003906 563.324219 " fill-opacity="1" fill-rule="evenodd"/><g clip-path="url(#68cb8f8d9b)"><path fill="#ff7c7c" d="M 5.652344 598.558594 C 5.878906 598.15625 6.472656 597.796875 6.359375 597.878906 C 6.359375 597.878906 6.101562 598.121094 5.652344 598.558594 Z M 5.652344 598.558594 C 5.542969 598.75 5.519531 598.953125 5.699219 599.121094 C 8.019531 601.3125 16.074219 601.253906 19.425781 601.355469 C 29.664062 601.671875 39.90625 600.832031 49.964844 599.539062 C 52.703125 599.1875 55.429688 598.804688 58.136719 598.398438 C 87.804688 593.980469 122.785156 582.980469 152.816406 581.777344 C 161.414062 581.433594 169.9375 584.796875 178.386719 585.644531 C 193.984375 587.207031 223.324219 584.089844 238.605469 581.804688 C 254.351562 579.453125 274.324219 564.914062 289.738281 565.570312 C 306.046875 566.269531 324.25 573.882812 340.167969 576.785156 C 354.03125 579.316406 386.988281 581.4375 413.386719 581.9375 C 426.019531 582.179688 437.152344 582.046875 443.972656 581.414062 C 467.898438 579.191406 487.894531 568.066406 509.367188 560.222656 C 522.832031 555.304688 536.882812 551.671875 552.847656 552.335938 C 564.203125 552.808594 574.953125 555.519531 585.40625 559.078125 C 602.210938 564.800781 618.253906 572.71875 634.855469 577.0625 C 655.261719 582.40625 677.03125 582.296875 698.0625 585.515625 C 703.390625 586.328125 708.628906 587.265625 713.820312 588.261719 C 732.90625 591.921875 751.371094 596.371094 771.601562 598.429688 C 787.4375 600.042969 850.777344 603.957031 876.738281 608.1875 L 0.683594 608.1875 L 0.683594 603.625 C 2.777344 601.386719 4.671875 599.511719 5.652344 598.558594 Z M 5.652344 598.558594 " fill-opacity="1" fill-rule="evenodd"/></g><g clip-path="url(#725c9fb7e9)"><path fill="#ff7c7c" d="M 0.660156 545.894531 C 1.773438 545.390625 2.808594 544.839844 3.707031 544.058594 C 3.867188 543.917969 4.242188 543.679688 4.242188 543.679688 C 4.242188 543.679688 2.9375 543.429688 2.28125 543.320312 C 2.070312 543.28125 1.640625 543.449219 1.640625 543.28125 C 1.640625 543.269531 4.613281 540.679688 4.808594 540.503906 C 6.515625 538.945312 9.769531 535.40625 9.769531 535.386719 C 9.835938 535.414062 13.007812 538.945312 14.714844 540.503906 C 14.910156 540.679688 17.882812 543.269531 17.882812 543.28125 C 17.882812 543.449219 17.453125 543.28125 17.242188 543.320312 C 16.585938 543.429688 15.28125 543.679688 15.28125 543.679688 C 15.28125 543.679688 15.65625 543.917969 15.816406 544.058594 C 17.039062 545.121094 18.519531 545.765625 20.097656 546.429688 C 20.132812 546.449219 20.710938 546.632812 20.710938 546.671875 C 20.710938 546.847656 18.121094 546.804688 17.984375 547.019531 C 17.921875 547.121094 18.355469 547.414062 18.414062 547.464844 C 19.824219 548.660156 22.804688 550.535156 23.320312 552.175781 C 23.328125 552.191406 20.242188 552.476562 19.910156 552.210938 C 19.707031 552.050781 20.3125 552.539062 20.503906 552.710938 C 21.128906 553.273438 21.746094 553.835938 22.429688 554.355469 C 24.359375 555.824219 26.851562 556.792969 28.644531 558.371094 C 28.703125 558.417969 29.046875 558.660156 29.003906 558.742188 C 28.804688 559.136719 25.96875 558.550781 25.640625 558.480469 C 25.59375 558.472656 24.941406 558.296875 24.722656 558.226562 C 24.699219 558.199219 24.675781 558.179688 24.65625 558.195312 C 24.652344 558.199219 24.675781 558.207031 24.722656 558.226562 C 24.742188 558.246094 24.757812 558.269531 24.769531 558.289062 C 25.136719 558.726562 25.453125 559.183594 25.847656 559.609375 C 26.089844 559.867188 28.335938 561.449219 28.273438 561.664062 C 28.144531 562.109375 24.988281 562.074219 24.46875 562.074219 C 24.457031 562.074219 24.09375 562.054688 24.085938 562.085938 C 24.019531 562.289062 34 567.476562 34.003906 567.496094 C 34.019531 567.609375 32.308594 568.257812 26.753906 566.964844 C 26.195312 566.839844 25.636719 566.710938 25.074219 566.589844 C 24.980469 566.570312 24.804688 566.441406 24.804688 566.515625 C 24.804688 566.558594 24.890625 566.566406 24.933594 566.589844 C 26.015625 567.179688 27.019531 567.867188 28.03125 568.53125 C 29.1875 569.289062 27.554688 568.933594 26.90625 568.878906 C 26.871094 568.875 26.796875 568.886719 26.8125 568.90625 C 28.375 570.980469 34.878906 572.644531 35.453125 575.398438 C 35.46875 575.480469 35.472656 575.621094 35.441406 575.703125 C 35.027344 576.84375 29.429688 576.191406 27.640625 575.707031 C 27.4375 575.617188 27.160156 575.542969 27.289062 575.59375 C 27.378906 575.628906 27.496094 575.667969 27.640625 575.707031 C 27.707031 575.730469 27.765625 575.761719 27.796875 575.785156 C 28.25 576.121094 28.050781 576.421875 27.484375 576.515625 C 27.03125 576.589844 24.453125 576.574219 24.261719 576.960938 C 24.171875 577.132812 25.601562 577.609375 25.710938 577.652344 C 29.316406 579.125 32.804688 580.75 36.113281 582.609375 C 36.207031 582.660156 37.574219 583.386719 37.472656 583.535156 C 37.4375 583.585938 37.253906 583.554688 37.238281 583.554688 C 36.746094 583.503906 26.796875 580.984375 26.128906 581.753906 C 25.882812 582.03125 27.464844 582.65625 27.636719 582.742188 C 29.386719 583.574219 38.585938 587.542969 38.375 589.3125 C 38.222656 590.621094 32.316406 588.21875 30.175781 588.03125 C 30.054688 588.019531 29.070312 587.972656 29.085938 588.113281 C 29.105469 588.316406 42.210938 594.367188 41.949219 597.820312 C 41.847656 599.140625 36.558594 596.839844 35.3125 596.699219 C 34.273438 596.589844 33.234375 596.570312 32.195312 596.488281 C 31.902344 596.46875 31.3125 596.507812 30.976562 596.480469 C 30.875 596.382812 30.789062 596.304688 30.777344 596.316406 C 30.648438 596.417969 30.761719 596.464844 30.976562 596.480469 C 31.125 596.625 31.3125 596.816406 31.335938 596.839844 C 32.585938 598.070312 34.976562 598.652344 36.601562 599.492188 C 37.199219 599.796875 46.148438 605.117188 45.347656 606.507812 C 44.828125 607.40625 38.726562 605.039062 37.285156 605.039062 C 35.113281 605.039062 32.375 604.617188 30.28125 604.855469 C 27.558594 605.164062 25.476562 606.402344 22.496094 606.261719 C 18.078125 606.050781 14.105469 604.203125 9.761719 604.078125 C 6.636719 604.167969 3.703125 605.148438 0.660156 605.769531 L 0.660156 547.828125 C 0.824219 547.703125 0.972656 547.582031 1.109375 547.464844 C 1.167969 547.414062 1.601562 547.121094 1.539062 547.019531 C 1.488281 546.945312 1.117188 546.902344 0.660156 546.863281 Z M 0.660156 545.894531 " fill-opacity="1" fill-rule="evenodd"/></g><g clip-path="url(#2c8746eb72)"><path fill="#ff7c7c" d="M 51.84375 596.390625 C 51.972656 596.382812 52.042969 596.351562 51.960938 596.28125 C 51.957031 596.273438 51.90625 596.328125 51.84375 596.390625 C 51.640625 596.410156 51.285156 596.382812 51.113281 596.398438 C 50.484375 596.453125 49.859375 596.464844 49.234375 596.539062 C 48.488281 596.628906 45.308594 598.160156 45.246094 597.28125 C 45.089844 594.988281 52.96875 590.96875 52.980469 590.832031 C 52.988281 590.738281 52.398438 590.769531 52.324219 590.777344 C 51.039062 590.902344 47.488281 592.5 47.394531 591.628906 C 47.269531 590.453125 52.800781 587.816406 53.851562 587.265625 C 53.953125 587.207031 54.90625 586.792969 54.757812 586.609375 C 54.355469 586.097656 48.375 587.773438 48.078125 587.804688 C 48.070312 587.804688 47.960938 587.824219 47.9375 587.792969 C 47.878906 587.691406 48.699219 587.210938 48.753906 587.175781 C 50.746094 585.941406 52.84375 584.859375 55.007812 583.882812 C 55.074219 583.851562 55.933594 583.539062 55.882812 583.421875 C 55.765625 583.167969 54.214844 583.179688 53.941406 583.128906 C 53.601562 583.0625 53.480469 582.867188 53.753906 582.644531 C 53.773438 582.625 53.808594 582.605469 53.847656 582.589844 C 53.9375 582.5625 54.007812 582.539062 54.0625 582.515625 C 54.136719 582.480469 53.972656 582.53125 53.847656 582.589844 C 52.773438 582.910156 49.410156 583.34375 49.160156 582.585938 C 49.140625 582.535156 49.140625 582.441406 49.152344 582.386719 C 49.5 580.558594 53.40625 579.449219 54.347656 578.074219 C 54.355469 578.058594 54.3125 578.050781 54.292969 578.054688 C 53.902344 578.089844 52.917969 578.328125 53.613281 577.820312 C 54.222656 577.382812 54.828125 576.925781 55.476562 576.535156 C 55.503906 576.515625 55.554688 576.511719 55.554688 576.484375 C 55.554688 576.433594 55.449219 576.519531 55.394531 576.535156 C 55.054688 576.613281 54.71875 576.699219 54.382812 576.785156 C 51.042969 577.640625 50.015625 577.210938 50.023438 577.132812 C 50.023438 577.121094 56.023438 573.675781 55.984375 573.539062 C 55.980469 573.519531 55.761719 573.53125 55.753906 573.53125 C 55.441406 573.53125 53.546875 573.558594 53.46875 573.261719 C 53.429688 573.117188 54.78125 572.066406 54.925781 571.894531 C 55.164062 571.613281 55.355469 571.308594 55.574219 571.019531 C 55.582031 571.007812 55.59375 570.988281 55.601562 570.976562 C 55.628906 570.964844 55.648438 570.957031 55.644531 570.957031 C 55.632812 570.945312 55.617188 570.957031 55.601562 570.976562 C 55.472656 571.023438 55.078125 571.140625 55.050781 571.148438 C 54.851562 571.191406 53.148438 571.582031 53.03125 571.320312 C 53.003906 571.265625 53.210938 571.105469 53.246094 571.074219 C 54.324219 570.023438 55.824219 569.378906 56.984375 568.402344 C 57.394531 568.058594 57.765625 567.683594 58.140625 567.3125 C 58.253906 567.199219 58.617188 566.875 58.496094 566.980469 C 58.296875 567.15625 56.441406 566.964844 56.445312 566.957031 C 56.753906 565.867188 58.546875 564.621094 59.394531 563.828125 C 59.433594 563.792969 59.691406 563.601562 59.652344 563.53125 C 59.570312 563.390625 58.015625 563.414062 58.015625 563.300781 C 58.015625 563.277344 58.363281 563.152344 58.382812 563.140625 C 59.332031 562.695312 60.222656 562.269531 60.957031 561.5625 C 61.054688 561.46875 61.277344 561.3125 61.277344 561.3125 C 61.277344 561.3125 60.496094 561.144531 60.101562 561.074219 C 59.972656 561.046875 59.714844 561.160156 59.714844 561.046875 C 59.714844 561.039062 61.503906 559.320312 61.621094 559.203125 C 62.644531 558.164062 64.601562 555.816406 64.601562 555.804688 C 64.644531 555.820312 66.550781 558.164062 67.574219 559.203125 C 67.691406 559.320312 69.476562 561.039062 69.476562 561.046875 C 69.476562 561.160156 69.21875 561.046875 69.09375 561.074219 C 68.699219 561.144531 67.917969 561.3125 67.917969 561.3125 C 67.917969 561.3125 68.140625 561.46875 68.238281 561.5625 C 68.972656 562.269531 69.863281 562.695312 70.808594 563.140625 C 70.832031 563.152344 71.179688 563.277344 71.179688 563.300781 C 71.179688 563.414062 69.621094 563.390625 69.542969 563.53125 C 69.503906 563.601562 69.761719 563.792969 69.800781 563.828125 C 70.644531 564.621094 72.4375 565.867188 72.75 566.957031 C 72.75 566.964844 70.898438 567.15625 70.699219 566.980469 C 70.578125 566.875 70.941406 567.199219 71.054688 567.3125 C 71.429688 567.683594 71.800781 568.058594 72.210938 568.402344 C 73.371094 569.378906 74.871094 570.023438 75.949219 571.074219 C 75.984375 571.105469 76.191406 571.265625 76.164062 571.320312 C 76.046875 571.582031 74.339844 571.191406 74.144531 571.148438 C 74.117188 571.140625 73.722656 571.023438 73.589844 570.976562 C 73.578125 570.957031 73.5625 570.945312 73.550781 570.957031 C 73.546875 570.957031 73.5625 570.964844 73.589844 570.976562 C 73.601562 570.988281 73.613281 571.007812 73.621094 571.019531 C 73.839844 571.308594 74.03125 571.613281 74.269531 571.894531 C 74.414062 572.066406 75.765625 573.117188 75.726562 573.261719 C 75.648438 573.558594 73.75 573.53125 73.4375 573.53125 C 73.429688 573.53125 73.214844 573.519531 73.207031 573.539062 C 73.167969 573.675781 79.167969 577.121094 79.171875 577.132812 C 79.179688 577.210938 78.152344 577.640625 74.8125 576.785156 C 74.476562 576.699219 74.140625 576.613281 73.800781 576.535156 C 73.746094 576.519531 73.640625 576.433594 73.640625 576.484375 C 73.640625 576.511719 73.691406 576.515625 73.71875 576.535156 C 74.367188 576.925781 74.972656 577.382812 75.578125 577.820312 C 76.277344 578.328125 75.292969 578.089844 74.902344 578.054688 C 74.882812 578.050781 74.835938 578.058594 74.847656 578.074219 C 75.785156 579.449219 79.695312 580.558594 80.042969 582.386719 C 80.050781 582.441406 80.054688 582.535156 80.035156 582.585938 C 79.785156 583.34375 76.421875 582.910156 75.34375 582.589844 C 75.222656 582.53125 75.058594 582.480469 75.132812 582.515625 C 75.1875 582.539062 75.257812 582.5625 75.34375 582.589844 C 75.386719 582.605469 75.417969 582.625 75.441406 582.644531 C 75.710938 582.867188 75.59375 583.0625 75.25 583.128906 C 74.980469 583.179688 73.429688 583.167969 73.3125 583.421875 C 73.261719 583.539062 74.117188 583.851562 74.183594 583.882812 C 76.351562 584.859375 78.449219 585.941406 80.441406 587.175781 C 80.496094 587.210938 81.316406 587.691406 81.253906 587.792969 C 81.234375 587.824219 81.125 587.804688 81.117188 587.804688 C 80.820312 587.773438 74.835938 586.097656 74.4375 586.609375 C 74.289062 586.792969 75.238281 587.207031 75.34375 587.265625 C 76.394531 587.816406 81.925781 590.453125 81.800781 591.628906 C 81.707031 592.5 78.15625 590.902344 76.871094 590.777344 C 76.796875 590.769531 76.207031 590.738281 76.214844 590.832031 C 76.226562 590.96875 84.101562 594.988281 83.945312 597.28125 C 83.886719 598.160156 80.707031 596.628906 79.957031 596.539062 C 79.332031 596.464844 78.710938 596.453125 78.082031 596.398438 C 77.910156 596.382812 77.554688 596.410156 77.351562 596.390625 C 77.289062 596.328125 77.238281 596.273438 77.230469 596.28125 C 77.152344 596.351562 77.222656 596.382812 77.351562 596.390625 C 77.441406 596.488281 77.550781 596.617188 77.566406 596.628906 C 78.320312 597.449219 79.753906 597.835938 80.734375 598.394531 C 81.089844 598.597656 86.472656 602.128906 85.988281 603.054688 C 85.679688 603.652344 82.007812 602.078125 81.144531 602.078125 C 79.839844 602.078125 78.191406 601.796875 76.933594 601.957031 C 75.296875 602.160156 74.046875 602.984375 72.253906 602.890625 C 69.597656 602.75 67.210938 601.523438 64.597656 601.441406 C 61.984375 601.523438 59.597656 602.75 56.941406 602.890625 C 55.148438 602.984375 53.898438 602.160156 52.261719 601.957031 C 51.003906 601.796875 49.355469 602.078125 48.050781 602.078125 C 47.183594 602.078125 43.515625 603.652344 43.203125 603.054688 C 42.722656 602.128906 48.105469 598.597656 48.460938 598.394531 C 49.441406 597.835938 50.875 597.449219 51.628906 596.628906 C 51.640625 596.617188 51.753906 596.488281 51.84375 596.390625 Z M 51.84375 596.390625 " fill-opacity="1" fill-rule="evenodd"/></g><path fill="#ff7c7c" d="M 170.027344 585.195312 C 170.105469 585.191406 170.148438 585.175781 170.097656 585.136719 C 170.09375 585.132812 170.0625 585.160156 170.027344 585.195312 C 169.898438 585.207031 169.679688 585.191406 169.574219 585.199219 C 169.183594 585.230469 168.796875 585.234375 168.410156 585.277344 C 167.949219 585.328125 165.980469 586.160156 165.941406 585.683594 C 165.847656 584.429688 170.722656 582.242188 170.730469 582.167969 C 170.734375 582.117188 170.371094 582.132812 170.324219 582.136719 C 169.527344 582.207031 167.328125 583.074219 167.273438 582.601562 C 167.195312 581.960938 170.617188 580.523438 171.269531 580.222656 C 171.332031 580.191406 171.921875 579.964844 171.828125 579.863281 C 171.582031 579.585938 167.878906 580.5 167.695312 580.515625 C 167.6875 580.515625 167.621094 580.527344 167.609375 580.507812 C 167.570312 580.453125 168.078125 580.191406 168.113281 580.171875 C 169.34375 579.5 170.644531 578.910156 171.984375 578.378906 C 172.027344 578.363281 172.558594 578.191406 172.523438 578.128906 C 172.453125 577.988281 171.492188 577.996094 171.324219 577.964844 C 171.113281 577.933594 171.039062 577.824219 171.207031 577.703125 C 171.21875 577.691406 171.242188 577.683594 171.265625 577.671875 C 171.320312 577.660156 171.363281 577.644531 171.398438 577.632812 C 171.445312 577.613281 171.34375 577.640625 171.265625 577.671875 C 170.601562 577.847656 168.519531 578.085938 168.363281 577.671875 C 168.351562 577.644531 168.351562 577.589844 168.359375 577.5625 C 168.574219 576.566406 170.992188 575.960938 171.574219 575.210938 C 171.582031 575.203125 171.550781 575.199219 171.539062 575.199219 C 171.300781 575.222656 170.691406 575.351562 171.121094 575.074219 C 171.496094 574.835938 171.871094 574.585938 172.273438 574.371094 C 172.289062 574.363281 172.320312 574.359375 172.320312 574.34375 C 172.320312 574.320312 172.257812 574.363281 172.222656 574.371094 C 172.011719 574.417969 171.804688 574.460938 171.597656 574.507812 C 169.53125 574.976562 168.894531 574.742188 168.898438 574.699219 C 168.898438 574.691406 172.613281 572.816406 172.589844 572.742188 C 172.585938 572.730469 172.453125 572.738281 172.445312 572.738281 C 172.253906 572.738281 171.078125 572.75 171.03125 572.589844 C 171.007812 572.511719 171.84375 571.9375 171.933594 571.84375 C 172.082031 571.691406 172.199219 571.523438 172.335938 571.367188 C 172.339844 571.359375 172.34375 571.351562 172.351562 571.34375 C 172.371094 571.335938 172.378906 571.332031 172.378906 571.332031 C 172.371094 571.328125 172.359375 571.332031 172.351562 571.34375 C 172.269531 571.367188 172.027344 571.433594 172.011719 571.4375 C 171.886719 571.460938 170.832031 571.671875 170.757812 571.53125 C 170.742188 571.5 170.871094 571.414062 170.894531 571.394531 C 171.5625 570.824219 172.488281 570.472656 173.207031 569.941406 C 173.460938 569.753906 173.691406 569.550781 173.921875 569.347656 C 173.992188 569.285156 174.21875 569.105469 174.144531 569.164062 C 174.019531 569.261719 172.871094 569.15625 172.875 569.152344 C 173.066406 568.558594 174.175781 567.878906 174.699219 567.445312 C 174.722656 567.425781 174.882812 567.320312 174.859375 567.285156 C 174.808594 567.207031 173.84375 567.222656 173.84375 567.160156 C 173.84375 567.144531 174.058594 567.078125 174.074219 567.070312 C 174.660156 566.828125 175.210938 566.597656 175.667969 566.210938 C 175.726562 566.160156 175.863281 566.074219 175.863281 566.074219 C 175.863281 566.074219 175.378906 565.984375 175.136719 565.945312 C 175.058594 565.929688 174.898438 565.992188 174.898438 565.929688 C 174.898438 565.925781 176.003906 564.988281 176.074219 564.925781 C 176.710938 564.359375 177.921875 563.078125 177.921875 563.070312 C 177.945312 563.082031 179.128906 564.359375 179.761719 564.925781 C 179.835938 564.988281 180.941406 565.925781 180.941406 565.929688 C 180.941406 565.992188 180.78125 565.929688 180.703125 565.945312 C 180.457031 565.984375 179.972656 566.074219 179.972656 566.074219 C 179.972656 566.074219 180.113281 566.160156 180.171875 566.210938 C 180.628906 566.597656 181.179688 566.828125 181.765625 567.070312 C 181.777344 567.078125 181.992188 567.144531 181.992188 567.160156 C 181.992188 567.222656 181.027344 567.207031 180.980469 567.285156 C 180.957031 567.320312 181.117188 567.425781 181.136719 567.445312 C 181.664062 567.878906 182.773438 568.558594 182.964844 569.152344 C 182.964844 569.15625 181.820312 569.261719 181.695312 569.164062 C 181.621094 569.105469 181.84375 569.285156 181.914062 569.347656 C 182.148438 569.550781 182.378906 569.753906 182.632812 569.941406 C 183.351562 570.472656 184.277344 570.824219 184.945312 571.394531 C 184.964844 571.414062 185.09375 571.5 185.078125 571.53125 C 185.003906 571.671875 183.949219 571.460938 183.828125 571.4375 C 183.808594 571.433594 183.566406 571.367188 183.484375 571.34375 C 183.476562 571.332031 183.46875 571.328125 183.460938 571.332031 C 183.457031 571.332031 183.46875 571.335938 183.484375 571.34375 C 183.492188 571.351562 183.5 571.359375 183.503906 571.367188 C 183.640625 571.523438 183.757812 571.691406 183.90625 571.84375 C 183.992188 571.9375 184.832031 572.511719 184.808594 572.589844 C 184.757812 572.75 183.585938 572.738281 183.390625 572.738281 C 183.386719 572.738281 183.253906 572.730469 183.25 572.742188 C 183.226562 572.816406 186.9375 574.691406 186.9375 574.699219 C 186.945312 574.742188 186.308594 574.976562 184.242188 574.507812 C 184.035156 574.460938 183.824219 574.417969 183.617188 574.371094 C 183.582031 574.363281 183.515625 574.320312 183.515625 574.34375 C 183.515625 574.359375 183.546875 574.363281 183.5625 574.371094 C 183.964844 574.585938 184.339844 574.835938 184.714844 575.074219 C 185.148438 575.351562 184.539062 575.222656 184.296875 575.199219 C 184.285156 575.199219 184.257812 575.203125 184.261719 575.210938 C 184.84375 575.960938 187.265625 576.566406 187.476562 577.5625 C 187.484375 577.589844 187.484375 577.644531 187.472656 577.671875 C 187.320312 578.085938 185.238281 577.847656 184.570312 577.671875 C 184.496094 577.640625 184.394531 577.613281 184.441406 577.632812 C 184.472656 577.644531 184.519531 577.660156 184.570312 577.671875 C 184.59375 577.683594 184.617188 577.691406 184.628906 577.703125 C 184.796875 577.824219 184.722656 577.933594 184.511719 577.964844 C 184.34375 577.996094 183.386719 577.988281 183.3125 578.128906 C 183.28125 578.191406 183.8125 578.363281 183.851562 578.378906 C 185.195312 578.910156 186.492188 579.5 187.722656 580.171875 C 187.757812 580.191406 188.265625 580.453125 188.230469 580.507812 C 188.214844 580.527344 188.148438 580.515625 188.144531 580.515625 C 187.960938 580.5 184.257812 579.585938 184.007812 579.863281 C 183.917969 579.964844 184.503906 580.191406 184.570312 580.222656 C 185.222656 580.523438 188.644531 581.960938 188.566406 582.601562 C 188.507812 583.074219 186.3125 582.207031 185.515625 582.136719 C 185.46875 582.132812 185.105469 582.117188 185.109375 582.167969 C 185.117188 582.242188 189.992188 584.429688 189.894531 585.683594 C 189.859375 586.160156 187.890625 585.328125 187.425781 585.277344 C 187.039062 585.234375 186.652344 585.230469 186.265625 585.199219 C 186.15625 585.191406 185.9375 585.207031 185.8125 585.195312 C 185.773438 585.160156 185.742188 585.132812 185.738281 585.136719 C 185.691406 585.175781 185.730469 585.191406 185.8125 585.195312 C 185.867188 585.25 185.9375 585.320312 185.945312 585.328125 C 186.410156 585.773438 187.300781 585.984375 187.90625 586.289062 C 188.128906 586.398438 191.457031 588.324219 191.160156 588.828125 C 190.964844 589.15625 188.695312 588.296875 188.160156 588.296875 C 187.351562 588.296875 186.332031 588.144531 185.554688 588.230469 C 184.542969 588.339844 183.765625 588.789062 182.65625 588.738281 C 181.015625 588.664062 179.535156 587.992188 177.917969 587.949219 C 176.300781 587.992188 174.824219 588.664062 173.179688 588.738281 C 172.070312 588.789062 171.296875 588.339844 170.285156 588.230469 C 169.503906 588.144531 168.484375 588.296875 167.679688 588.296875 C 167.140625 588.296875 164.871094 589.15625 164.679688 588.828125 C 164.378906 588.324219 167.710938 586.398438 167.933594 586.289062 C 168.539062 585.984375 169.425781 585.773438 169.890625 585.328125 C 169.902344 585.320312 169.96875 585.25 170.027344 585.195312 Z M 170.027344 585.195312 " fill-opacity="1" fill-rule="evenodd"/><path fill="#ff7c7c" d="M 205.597656 585.535156 C 205.648438 585.53125 205.675781 585.519531 205.644531 585.496094 C 205.640625 585.492188 205.621094 585.511719 205.597656 585.535156 C 205.515625 585.542969 205.371094 585.53125 205.300781 585.535156 C 205.046875 585.554688 204.792969 585.558594 204.542969 585.585938 C 204.238281 585.621094 202.953125 586.164062 202.925781 585.851562 C 202.863281 585.035156 206.050781 583.601562 206.054688 583.554688 C 206.058594 583.519531 205.820312 583.53125 205.789062 583.535156 C 205.269531 583.578125 203.832031 584.148438 203.796875 583.835938 C 203.746094 583.417969 205.980469 582.476562 206.410156 582.28125 C 206.449219 582.261719 206.835938 582.113281 206.773438 582.046875 C 206.613281 581.863281 204.191406 582.460938 204.074219 582.472656 C 204.070312 582.472656 204.023438 582.480469 204.015625 582.46875 C 203.992188 582.433594 204.324219 582.261719 204.347656 582.25 C 205.152344 581.808594 206 581.421875 206.875 581.074219 C 206.902344 581.066406 207.25 580.953125 207.230469 580.910156 C 207.183594 580.820312 206.554688 580.824219 206.445312 580.804688 C 206.308594 580.78125 206.257812 580.710938 206.367188 580.632812 C 206.378906 580.628906 206.390625 580.621094 206.40625 580.613281 C 206.441406 580.605469 206.472656 580.597656 206.492188 580.585938 C 206.523438 580.574219 206.457031 580.59375 206.40625 580.613281 C 205.972656 580.730469 204.609375 580.882812 204.511719 580.613281 C 204.503906 580.59375 204.503906 580.558594 204.507812 580.542969 C 204.648438 579.890625 206.230469 579.496094 206.609375 579.003906 C 206.613281 579 206.59375 578.996094 206.585938 578.996094 C 206.429688 579.011719 206.03125 579.09375 206.3125 578.914062 C 206.558594 578.757812 206.800781 578.59375 207.066406 578.453125 C 207.074219 578.449219 207.097656 578.445312 207.097656 578.4375 C 207.097656 578.417969 207.054688 578.449219 207.03125 578.453125 C 206.894531 578.484375 206.757812 578.515625 206.621094 578.542969 C 205.273438 578.847656 204.855469 578.695312 204.859375 578.667969 C 204.859375 578.664062 207.289062 577.4375 207.269531 577.386719 C 207.269531 577.378906 207.179688 577.386719 207.179688 577.386719 C 207.050781 577.386719 206.285156 577.394531 206.253906 577.289062 C 206.238281 577.238281 206.785156 576.863281 206.84375 576.800781 C 206.9375 576.699219 207.015625 576.59375 207.105469 576.488281 C 207.109375 576.484375 207.113281 576.476562 207.117188 576.472656 C 207.128906 576.46875 207.132812 576.46875 207.132812 576.464844 C 207.128906 576.460938 207.121094 576.46875 207.117188 576.472656 C 207.0625 576.488281 206.90625 576.53125 206.894531 576.535156 C 206.8125 576.550781 206.125 576.691406 206.074219 576.59375 C 206.066406 576.578125 206.148438 576.519531 206.164062 576.507812 C 206.597656 576.132812 207.207031 575.902344 207.675781 575.554688 C 207.839844 575.433594 207.992188 575.300781 208.144531 575.167969 C 208.1875 575.125 208.335938 575.011719 208.285156 575.050781 C 208.207031 575.113281 207.457031 575.042969 207.457031 575.039062 C 207.582031 574.652344 208.308594 574.207031 208.652344 573.925781 C 208.664062 573.914062 208.769531 573.84375 208.753906 573.820312 C 208.722656 573.769531 208.09375 573.777344 208.09375 573.738281 C 208.09375 573.726562 208.234375 573.683594 208.242188 573.679688 C 208.625 573.523438 208.984375 573.371094 209.28125 573.117188 C 209.320312 573.085938 209.414062 573.027344 209.414062 573.027344 C 209.414062 573.027344 209.09375 572.96875 208.9375 572.941406 C 208.886719 572.933594 208.78125 572.972656 208.78125 572.933594 C 208.78125 572.929688 209.503906 572.316406 209.550781 572.277344 C 209.964844 571.90625 210.757812 571.070312 210.757812 571.0625 C 210.773438 571.070312 211.542969 571.90625 211.960938 572.277344 C 212.007812 572.316406 212.730469 572.929688 212.730469 572.933594 C 212.730469 572.972656 212.625 572.933594 212.574219 572.941406 C 212.414062 572.96875 212.097656 573.027344 212.097656 573.027344 C 212.097656 573.027344 212.1875 573.085938 212.226562 573.117188 C 212.523438 573.371094 212.886719 573.523438 213.269531 573.679688 C 213.277344 573.683594 213.417969 573.726562 213.417969 573.738281 C 213.417969 573.777344 212.789062 573.769531 212.753906 573.820312 C 212.738281 573.84375 212.84375 573.914062 212.859375 573.925781 C 213.203125 574.207031 213.925781 574.652344 214.050781 575.039062 C 214.054688 575.042969 213.304688 575.113281 213.222656 575.050781 C 213.171875 575.011719 213.320312 575.125 213.367188 575.167969 C 213.519531 575.300781 213.667969 575.433594 213.835938 575.554688 C 214.304688 575.902344 214.910156 576.132812 215.347656 576.507812 C 215.359375 576.519531 215.445312 576.578125 215.433594 576.59375 C 215.386719 576.691406 214.695312 576.550781 214.617188 576.535156 C 214.605469 576.53125 214.445312 576.488281 214.394531 576.472656 C 214.386719 576.46875 214.382812 576.460938 214.375 576.464844 C 214.375 576.46875 214.382812 576.46875 214.394531 576.472656 C 214.398438 576.476562 214.402344 576.484375 214.40625 576.488281 C 214.492188 576.59375 214.570312 576.699219 214.667969 576.800781 C 214.726562 576.863281 215.273438 577.238281 215.257812 577.289062 C 215.226562 577.394531 214.457031 577.386719 214.332031 577.386719 C 214.328125 577.386719 214.242188 577.378906 214.238281 577.386719 C 214.222656 577.4375 216.648438 578.664062 216.648438 578.667969 C 216.652344 578.695312 216.238281 578.847656 214.886719 578.542969 C 214.75 578.515625 214.613281 578.484375 214.476562 578.453125 C 214.457031 578.449219 214.414062 578.417969 214.414062 578.4375 C 214.414062 578.445312 214.433594 578.449219 214.445312 578.453125 C 214.707031 578.59375 214.953125 578.757812 215.199219 578.914062 C 215.480469 579.09375 215.082031 579.011719 214.921875 578.996094 C 214.914062 578.996094 214.898438 579 214.902344 579.003906 C 215.28125 579.496094 216.863281 579.890625 217.003906 580.542969 C 217.007812 580.558594 217.007812 580.59375 217 580.613281 C 216.898438 580.882812 215.539062 580.730469 215.101562 580.613281 C 215.054688 580.59375 214.984375 580.574219 215.015625 580.585938 C 215.039062 580.597656 215.066406 580.605469 215.101562 580.613281 C 215.117188 580.621094 215.132812 580.628906 215.140625 580.632812 C 215.25 580.710938 215.203125 580.78125 215.066406 580.804688 C 214.953125 580.824219 214.328125 580.820312 214.28125 580.910156 C 214.257812 580.953125 214.605469 581.066406 214.632812 581.074219 C 215.511719 581.421875 216.359375 581.808594 217.164062 582.25 C 217.183594 582.261719 217.519531 582.433594 217.492188 582.46875 C 217.484375 582.480469 217.441406 582.472656 217.4375 582.472656 C 217.316406 582.460938 214.898438 581.863281 214.734375 582.046875 C 214.675781 582.113281 215.058594 582.261719 215.101562 582.28125 C 215.527344 582.476562 217.765625 583.417969 217.714844 583.835938 C 217.675781 584.148438 216.238281 583.578125 215.71875 583.535156 C 215.6875 583.53125 215.449219 583.519531 215.453125 583.554688 C 215.457031 583.601562 218.644531 585.035156 218.582031 585.851562 C 218.558594 586.164062 217.269531 585.621094 216.96875 585.585938 C 216.714844 585.558594 216.464844 585.554688 216.210938 585.535156 C 216.140625 585.53125 215.996094 585.542969 215.914062 585.535156 C 215.890625 585.511719 215.867188 585.492188 215.867188 585.496094 C 215.832031 585.519531 215.863281 585.53125 215.914062 585.535156 C 215.949219 585.570312 215.996094 585.613281 216 585.621094 C 216.304688 585.910156 216.886719 586.050781 217.28125 586.246094 C 217.425781 586.320312 219.601562 587.582031 219.410156 587.910156 C 219.28125 588.125 217.796875 587.5625 217.449219 587.5625 C 216.921875 587.5625 216.253906 587.460938 215.746094 587.519531 C 215.082031 587.589844 214.578125 587.886719 213.851562 587.851562 C 212.777344 587.800781 211.8125 587.363281 210.753906 587.335938 C 209.699219 587.363281 208.730469 587.800781 207.65625 587.851562 C 206.933594 587.886719 206.425781 587.589844 205.765625 587.519531 C 205.257812 587.460938 204.589844 587.5625 204.0625 587.5625 C 203.710938 587.5625 202.226562 588.125 202.101562 587.910156 C 201.90625 587.582031 204.082031 586.320312 204.226562 586.246094 C 204.625 586.050781 205.203125 585.910156 205.507812 585.621094 C 205.515625 585.613281 205.558594 585.570312 205.597656 585.535156 Z M 205.597656 585.535156 " fill-opacity="1" fill-rule="evenodd"/><path fill="#ff7c7c" d="M 715.25 589.742188 C 715.316406 589.738281 715.351562 589.722656 715.3125 589.691406 C 715.308594 589.691406 715.28125 589.714844 715.25 589.742188 C 715.148438 589.753906 714.96875 589.738281 714.882812 589.746094 C 714.566406 589.769531 714.253906 589.777344 713.9375 589.8125 C 713.5625 589.855469 711.957031 590.558594 711.925781 590.152344 C 711.847656 589.097656 715.816406 587.246094 715.824219 587.183594 C 715.828125 587.140625 715.53125 587.15625 715.492188 587.160156 C 714.84375 587.21875 713.054688 587.953125 713.007812 587.550781 C 712.945312 587.011719 715.730469 585.796875 716.261719 585.542969 C 716.316406 585.515625 716.792969 585.324219 716.71875 585.238281 C 716.515625 585.003906 713.503906 585.777344 713.355469 585.789062 C 713.347656 585.789062 713.292969 585.800781 713.285156 585.785156 C 713.253906 585.738281 713.667969 585.515625 713.695312 585.5 C 714.699219 584.933594 715.753906 584.433594 716.847656 583.984375 C 716.878906 583.972656 717.3125 583.828125 717.285156 583.773438 C 717.226562 583.65625 716.445312 583.660156 716.308594 583.636719 C 716.136719 583.609375 716.078125 583.515625 716.214844 583.414062 C 716.222656 583.40625 716.242188 583.398438 716.261719 583.390625 C 716.304688 583.378906 716.339844 583.367188 716.367188 583.355469 C 716.40625 583.339844 716.324219 583.363281 716.261719 583.390625 C 715.71875 583.539062 714.023438 583.738281 713.898438 583.390625 C 713.890625 583.363281 713.890625 583.320312 713.894531 583.296875 C 714.070312 582.453125 716.039062 581.945312 716.511719 581.3125 C 716.515625 581.304688 716.492188 581.300781 716.484375 581.300781 C 716.289062 581.320312 715.792969 581.425781 716.144531 581.195312 C 716.449219 580.992188 716.753906 580.78125 717.082031 580.601562 C 717.09375 580.59375 717.121094 580.59375 717.121094 580.578125 C 717.121094 580.554688 717.066406 580.59375 717.039062 580.601562 C 716.867188 580.640625 716.699219 580.675781 716.53125 580.714844 C 714.847656 581.109375 714.328125 580.914062 714.335938 580.878906 C 714.335938 580.871094 717.359375 579.285156 717.339844 579.222656 C 717.335938 579.214844 717.226562 579.21875 717.222656 579.21875 C 717.0625 579.21875 716.109375 579.230469 716.070312 579.09375 C 716.050781 579.03125 716.730469 578.546875 716.804688 578.464844 C 716.921875 578.335938 717.019531 578.195312 717.128906 578.0625 C 717.132812 578.058594 717.140625 578.050781 717.144531 578.042969 C 717.160156 578.039062 717.167969 578.035156 717.164062 578.035156 C 717.160156 578.027344 717.152344 578.035156 717.144531 578.042969 C 717.078125 578.066406 716.882812 578.117188 716.867188 578.121094 C 716.765625 578.144531 715.910156 578.320312 715.847656 578.199219 C 715.835938 578.175781 715.941406 578.101562 715.957031 578.089844 C 716.5 577.605469 717.253906 577.308594 717.839844 576.859375 C 718.046875 576.699219 718.234375 576.527344 718.421875 576.355469 C 718.480469 576.304688 718.664062 576.15625 718.601562 576.203125 C 718.503906 576.285156 717.566406 576.195312 717.570312 576.191406 C 717.726562 575.691406 718.628906 575.117188 719.054688 574.753906 C 719.074219 574.738281 719.203125 574.648438 719.1875 574.617188 C 719.144531 574.550781 718.359375 574.5625 718.359375 574.507812 C 718.359375 574.496094 718.535156 574.441406 718.546875 574.4375 C 719.023438 574.230469 719.472656 574.035156 719.84375 573.710938 C 719.890625 573.667969 720.003906 573.59375 720.003906 573.59375 C 720.003906 573.59375 719.609375 573.515625 719.410156 573.484375 C 719.347656 573.472656 719.21875 573.523438 719.21875 573.472656 C 719.21875 573.46875 720.117188 572.675781 720.175781 572.621094 C 720.691406 572.144531 721.679688 571.0625 721.679688 571.058594 C 721.699219 571.066406 722.660156 572.144531 723.175781 572.621094 C 723.234375 572.675781 724.136719 573.46875 724.136719 573.472656 C 724.136719 573.523438 724.007812 573.472656 723.941406 573.484375 C 723.746094 573.515625 723.347656 573.59375 723.347656 573.59375 C 723.347656 573.59375 723.460938 573.667969 723.511719 573.710938 C 723.882812 574.035156 724.332031 574.230469 724.808594 574.4375 C 724.820312 574.441406 724.992188 574.496094 724.992188 574.507812 C 724.992188 574.5625 724.207031 574.550781 724.167969 574.617188 C 724.148438 574.648438 724.28125 574.738281 724.296875 574.753906 C 724.726562 575.117188 725.628906 575.691406 725.785156 576.191406 C 725.785156 576.195312 724.851562 576.285156 724.75 576.203125 C 724.691406 576.15625 724.871094 576.304688 724.929688 576.355469 C 725.121094 576.527344 725.308594 576.699219 725.511719 576.859375 C 726.097656 577.308594 726.851562 577.605469 727.398438 578.089844 C 727.414062 578.101562 727.519531 578.175781 727.503906 578.199219 C 727.445312 578.320312 726.585938 578.144531 726.488281 578.121094 C 726.472656 578.117188 726.273438 578.066406 726.207031 578.042969 C 726.203125 578.035156 726.195312 578.027344 726.1875 578.035156 C 726.1875 578.035156 726.195312 578.039062 726.207031 578.042969 C 726.214844 578.050781 726.21875 578.058594 726.222656 578.0625 C 726.335938 578.195312 726.429688 578.335938 726.550781 578.464844 C 726.621094 578.546875 727.304688 579.03125 727.285156 579.09375 C 727.246094 579.230469 726.289062 579.21875 726.132812 579.21875 C 726.128906 579.21875 726.019531 579.214844 726.015625 579.222656 C 725.996094 579.285156 729.019531 580.871094 729.019531 580.878906 C 729.023438 580.914062 728.507812 581.109375 726.824219 580.714844 C 726.65625 580.675781 726.484375 580.640625 726.316406 580.601562 C 726.285156 580.59375 726.234375 580.554688 726.234375 580.578125 C 726.234375 580.59375 726.257812 580.59375 726.273438 580.601562 C 726.601562 580.78125 726.90625 580.992188 727.210938 581.195312 C 727.5625 581.425781 727.066406 581.320312 726.871094 581.300781 C 726.859375 581.300781 726.835938 581.304688 726.839844 581.3125 C 727.316406 581.945312 729.285156 582.453125 729.460938 583.296875 C 729.464844 583.320312 729.464844 583.363281 729.457031 583.390625 C 729.328125 583.738281 727.632812 583.539062 727.09375 583.390625 C 727.03125 583.363281 726.945312 583.339844 726.984375 583.355469 C 727.011719 583.367188 727.050781 583.378906 727.09375 583.390625 C 727.113281 583.398438 727.128906 583.40625 727.140625 583.414062 C 727.277344 583.515625 727.21875 583.609375 727.046875 583.636719 C 726.90625 583.660156 726.128906 583.65625 726.070312 583.773438 C 726.042969 583.828125 726.472656 583.972656 726.507812 583.984375 C 727.601562 584.433594 728.65625 584.933594 729.660156 585.5 C 729.6875 585.515625 730.101562 585.738281 730.070312 585.785156 C 730.058594 585.800781 730.003906 585.789062 730 585.789062 C 729.851562 585.777344 726.835938 585.003906 726.632812 585.238281 C 726.558594 585.324219 727.039062 585.515625 727.089844 585.542969 C 727.621094 585.796875 730.40625 587.011719 730.34375 587.550781 C 730.296875 587.953125 728.507812 587.21875 727.859375 587.160156 C 727.824219 587.15625 727.527344 587.140625 727.53125 587.183594 C 727.535156 587.246094 731.503906 589.097656 731.425781 590.152344 C 731.394531 590.558594 729.792969 589.855469 729.417969 589.8125 C 729.101562 589.777344 728.789062 589.769531 728.472656 589.746094 C 728.382812 589.738281 728.207031 589.753906 728.101562 589.742188 C 728.070312 589.714844 728.046875 589.691406 728.042969 589.691406 C 728.003906 589.722656 728.039062 589.738281 728.101562 589.742188 C 728.148438 589.789062 728.203125 589.847656 728.210938 589.855469 C 728.589844 590.230469 729.3125 590.410156 729.808594 590.664062 C 729.988281 590.757812 732.699219 592.386719 732.457031 592.8125 C 732.300781 593.085938 730.449219 592.363281 730.015625 592.363281 C 729.355469 592.363281 728.527344 592.234375 727.890625 592.304688 C 727.066406 592.398438 726.4375 592.777344 725.535156 592.734375 C 724.195312 592.671875 722.992188 592.105469 721.675781 592.066406 C 720.359375 592.105469 719.15625 592.671875 717.820312 592.734375 C 716.917969 592.777344 716.285156 592.398438 715.460938 592.304688 C 714.828125 592.234375 713.996094 592.363281 713.339844 592.363281 C 712.902344 592.363281 711.054688 593.085938 710.898438 592.8125 C 710.65625 592.386719 713.367188 590.757812 713.546875 590.664062 C 714.039062 590.410156 714.761719 590.230469 715.140625 589.855469 C 715.148438 589.847656 715.207031 589.789062 715.25 589.742188 Z M 715.25 589.742188 " fill-opacity="1" fill-rule="evenodd"/><path fill="#ff7c7c" d="M 687.132812 583.53125 C 687.222656 583.523438 687.269531 583.5 687.214844 583.445312 C 687.210938 583.441406 687.175781 583.484375 687.132812 583.53125 C 686.992188 583.546875 686.746094 583.527344 686.625 583.539062 C 686.191406 583.578125 685.757812 583.589844 685.320312 583.648438 C 684.800781 583.722656 682.589844 584.925781 682.550781 584.234375 C 682.441406 582.425781 687.914062 579.257812 687.925781 579.148438 C 687.929688 579.074219 687.519531 579.101562 687.46875 579.105469 C 686.574219 579.207031 684.105469 580.464844 684.042969 579.777344 C 683.957031 578.851562 687.796875 576.773438 688.53125 576.335938 C 688.601562 576.289062 689.261719 575.960938 689.160156 575.816406 C 688.878906 575.414062 684.722656 576.734375 684.515625 576.761719 C 684.511719 576.761719 684.433594 576.777344 684.421875 576.75 C 684.378906 576.671875 684.949219 576.292969 684.988281 576.265625 C 686.371094 575.292969 687.828125 574.4375 689.335938 573.667969 C 689.378906 573.644531 689.976562 573.398438 689.941406 573.304688 C 689.859375 573.101562 688.78125 573.113281 688.59375 573.074219 C 688.355469 573.023438 688.273438 572.867188 688.460938 572.691406 C 688.476562 572.675781 688.5 572.664062 688.527344 572.648438 C 688.589844 572.628906 688.636719 572.609375 688.675781 572.589844 C 688.726562 572.5625 688.613281 572.601562 688.527344 572.648438 C 687.78125 572.902344 685.441406 573.246094 685.269531 572.648438 C 685.253906 572.605469 685.257812 572.53125 685.261719 572.488281 C 685.503906 571.046875 688.222656 570.171875 688.875 569.085938 C 688.882812 569.074219 688.847656 569.070312 688.835938 569.074219 C 688.5625 569.101562 687.878906 569.289062 688.363281 568.890625 C 688.785156 568.542969 689.207031 568.179688 689.660156 567.875 C 689.675781 567.859375 689.710938 567.855469 689.710938 567.832031 C 689.710938 567.796875 689.640625 567.863281 689.601562 567.875 C 689.367188 567.9375 689.132812 568.003906 688.898438 568.070312 C 686.578125 568.746094 685.863281 568.40625 685.871094 568.347656 C 685.871094 568.335938 690.039062 565.621094 690.011719 565.511719 C 690.007812 565.496094 689.859375 565.507812 689.851562 565.507812 C 689.636719 565.507812 688.316406 565.527344 688.261719 565.292969 C 688.238281 565.179688 689.175781 564.351562 689.277344 564.214844 C 689.441406 563.992188 689.574219 563.753906 689.726562 563.523438 C 689.730469 563.515625 689.738281 563.5 689.746094 563.492188 C 689.765625 563.480469 689.777344 563.476562 689.773438 563.472656 C 689.765625 563.464844 689.757812 563.476562 689.746094 563.492188 C 689.65625 563.527344 689.382812 563.621094 689.363281 563.625 C 689.226562 563.660156 688.039062 563.96875 687.957031 563.761719 C 687.941406 563.71875 688.085938 563.59375 688.109375 563.566406 C 688.859375 562.738281 689.898438 562.230469 690.707031 561.460938 C 690.992188 561.191406 691.25 560.894531 691.511719 560.601562 C 691.589844 560.511719 691.84375 560.257812 691.757812 560.339844 C 691.617188 560.480469 690.332031 560.328125 690.332031 560.320312 C 690.546875 559.460938 691.792969 558.480469 692.382812 557.851562 C 692.40625 557.828125 692.589844 557.675781 692.5625 557.621094 C 692.503906 557.507812 691.421875 557.527344 691.421875 557.4375 C 691.421875 557.417969 691.664062 557.320312 691.679688 557.3125 C 692.339844 556.960938 692.957031 556.625 693.46875 556.070312 C 693.535156 555.996094 693.691406 555.871094 693.691406 555.871094 C 693.691406 555.871094 693.144531 555.738281 692.871094 555.679688 C 692.785156 555.664062 692.605469 555.75 692.605469 555.664062 C 692.605469 555.65625 693.847656 554.300781 693.929688 554.207031 C 694.640625 553.390625 696 551.535156 696 551.527344 C 696.03125 551.539062 697.355469 553.390625 698.066406 554.207031 C 698.148438 554.300781 699.390625 555.65625 699.390625 555.664062 C 699.390625 555.75 699.210938 555.664062 699.125 555.679688 C 698.847656 555.738281 698.304688 555.871094 698.304688 555.871094 C 698.304688 555.871094 698.460938 555.996094 698.527344 556.070312 C 699.039062 556.625 699.65625 556.960938 700.316406 557.3125 C 700.332031 557.320312 700.574219 557.417969 700.574219 557.4375 C 700.574219 557.527344 699.492188 557.507812 699.433594 557.621094 C 699.40625 557.675781 699.585938 557.828125 699.613281 557.851562 C 700.203125 558.480469 701.449219 559.460938 701.664062 560.320312 C 701.664062 560.328125 700.378906 560.480469 700.238281 560.339844 C 700.152344 560.257812 700.40625 560.511719 700.484375 560.601562 C 700.746094 560.894531 701.003906 561.191406 701.289062 561.460938 C 702.097656 562.230469 703.136719 562.738281 703.886719 563.566406 C 703.910156 563.59375 704.054688 563.71875 704.039062 563.761719 C 703.953125 563.96875 702.769531 563.660156 702.632812 563.625 C 702.613281 563.621094 702.339844 563.527344 702.25 563.492188 C 702.238281 563.476562 702.230469 563.464844 702.21875 563.472656 C 702.21875 563.476562 702.230469 563.480469 702.25 563.492188 C 702.257812 563.5 702.261719 563.515625 702.269531 563.523438 C 702.421875 563.753906 702.554688 563.992188 702.71875 564.214844 C 702.820312 564.351562 703.757812 565.179688 703.730469 565.292969 C 703.679688 565.527344 702.359375 565.507812 702.144531 565.507812 C 702.136719 565.507812 701.988281 565.496094 701.984375 565.511719 C 701.957031 565.621094 706.125 568.335938 706.125 568.347656 C 706.132812 568.40625 705.417969 568.746094 703.097656 568.070312 C 702.863281 568.003906 702.628906 567.9375 702.394531 567.875 C 702.355469 567.863281 702.285156 567.796875 702.285156 567.832031 C 702.285156 567.855469 702.320312 567.859375 702.335938 567.875 C 702.789062 568.179688 703.207031 568.542969 703.628906 568.890625 C 704.113281 569.289062 703.429688 569.101562 703.160156 569.074219 C 703.148438 569.070312 703.113281 569.074219 703.121094 569.085938 C 703.773438 570.171875 706.492188 571.046875 706.730469 572.488281 C 706.738281 572.53125 706.738281 572.605469 706.726562 572.648438 C 706.554688 573.246094 704.214844 572.902344 703.46875 572.648438 C 703.382812 572.601562 703.265625 572.5625 703.320312 572.589844 C 703.359375 572.609375 703.40625 572.628906 703.46875 572.648438 C 703.496094 572.664062 703.519531 572.675781 703.535156 572.691406 C 703.722656 572.867188 703.640625 573.023438 703.402344 573.074219 C 703.214844 573.113281 702.136719 573.101562 702.054688 573.304688 C 702.019531 573.398438 702.613281 573.644531 702.660156 573.667969 C 704.167969 574.4375 705.625 575.292969 707.007812 576.265625 C 707.046875 576.292969 707.617188 576.671875 707.574219 576.75 C 707.558594 576.777344 707.484375 576.761719 707.476562 576.761719 C 707.273438 576.734375 703.113281 575.414062 702.835938 575.816406 C 702.734375 575.960938 703.394531 576.289062 703.464844 576.335938 C 704.199219 576.773438 708.039062 578.851562 707.953125 579.777344 C 707.890625 580.464844 705.421875 579.207031 704.527344 579.105469 C 704.476562 579.101562 704.066406 579.074219 704.070312 579.148438 C 704.078125 579.257812 709.554688 582.425781 709.445312 584.234375 C 709.40625 584.925781 707.191406 583.722656 706.675781 583.648438 C 706.238281 583.589844 705.804688 583.578125 705.371094 583.539062 C 705.25 583.527344 705.003906 583.546875 704.859375 583.53125 C 704.820312 583.484375 704.785156 583.441406 704.777344 583.445312 C 704.722656 583.5 704.773438 583.523438 704.859375 583.53125 C 704.925781 583.609375 705 583.710938 705.011719 583.722656 C 705.535156 584.367188 706.53125 584.671875 707.210938 585.109375 C 707.460938 585.269531 711.199219 588.058594 710.867188 588.785156 C 710.648438 589.257812 708.097656 588.015625 707.496094 588.015625 C 706.589844 588.015625 705.445312 587.796875 704.570312 587.921875 C 703.433594 588.082031 702.5625 588.730469 701.320312 588.65625 C 699.472656 588.546875 697.8125 587.578125 695.996094 587.511719 C 694.183594 587.578125 692.523438 588.546875 690.675781 588.65625 C 689.429688 588.730469 688.5625 588.082031 687.425781 587.921875 C 686.550781 587.796875 685.40625 588.015625 684.496094 588.015625 C 683.894531 588.015625 681.347656 589.257812 681.128906 588.785156 C 680.792969 588.058594 684.535156 585.269531 684.785156 585.109375 C 685.464844 584.671875 686.460938 584.367188 686.984375 583.722656 C 686.992188 583.710938 687.070312 583.609375 687.132812 583.53125 Z M 687.132812 583.53125 " fill-opacity="1" fill-rule="evenodd"/><g clip-path="url(#31d246d24d)"><path fill="#ff7c7c" d="M 753.570312 599.796875 C 753.628906 599.792969 753.660156 599.777344 753.625 599.742188 C 753.621094 599.738281 753.597656 599.765625 753.570312 599.796875 C 753.480469 599.804688 753.320312 599.792969 753.242188 599.800781 C 752.960938 599.828125 752.679688 599.832031 752.398438 599.871094 C 752.0625 599.917969 750.632812 600.679688 750.605469 600.242188 C 750.535156 599.09375 754.078125 597.085938 754.082031 597.019531 C 754.085938 596.972656 753.820312 596.988281 753.789062 596.988281 C 753.210938 597.054688 751.613281 597.851562 751.570312 597.417969 C 751.515625 596.828125 754 595.511719 754.472656 595.234375 C 754.519531 595.203125 754.949219 594.996094 754.882812 594.90625 C 754.699219 594.648438 752.011719 595.488281 751.878906 595.503906 C 751.875 595.503906 751.824219 595.511719 751.816406 595.496094 C 751.789062 595.445312 752.15625 595.207031 752.183594 595.1875 C 753.078125 594.570312 754.019531 594.03125 754.996094 593.542969 C 755.023438 593.527344 755.410156 593.371094 755.386719 593.3125 C 755.335938 593.183594 754.636719 593.191406 754.515625 593.164062 C 754.363281 593.132812 754.308594 593.035156 754.429688 592.921875 C 754.4375 592.914062 754.457031 592.90625 754.472656 592.894531 C 754.511719 592.882812 754.542969 592.871094 754.566406 592.859375 C 754.601562 592.839844 754.527344 592.867188 754.472656 592.894531 C 753.988281 593.058594 752.476562 593.273438 752.363281 592.894531 C 752.355469 592.867188 752.355469 592.820312 752.359375 592.792969 C 752.515625 591.878906 754.273438 591.328125 754.695312 590.636719 C 754.703125 590.628906 754.679688 590.625 754.671875 590.628906 C 754.496094 590.644531 754.054688 590.765625 754.367188 590.511719 C 754.640625 590.292969 754.914062 590.0625 755.203125 589.867188 C 755.214844 589.859375 755.238281 589.855469 755.238281 589.84375 C 755.238281 589.820312 755.191406 589.859375 755.167969 589.867188 C 755.015625 589.90625 754.863281 589.949219 754.710938 589.992188 C 753.210938 590.421875 752.75 590.207031 752.753906 590.167969 C 752.753906 590.164062 755.453125 588.4375 755.433594 588.371094 C 755.429688 588.363281 755.332031 588.367188 755.332031 588.367188 C 755.191406 588.367188 754.335938 588.378906 754.300781 588.230469 C 754.285156 588.160156 754.890625 587.632812 754.957031 587.546875 C 755.0625 587.40625 755.148438 587.253906 755.25 587.109375 C 755.253906 587.105469 755.257812 587.09375 755.261719 587.089844 C 755.273438 587.082031 755.28125 587.078125 755.28125 587.078125 C 755.273438 587.074219 755.265625 587.078125 755.261719 587.089844 C 755.203125 587.113281 755.027344 587.171875 755.011719 587.175781 C 754.925781 587.195312 754.15625 587.390625 754.105469 587.261719 C 754.09375 587.234375 754.1875 587.152344 754.203125 587.136719 C 754.6875 586.613281 755.359375 586.289062 755.882812 585.804688 C 756.066406 585.632812 756.234375 585.445312 756.402344 585.257812 C 756.453125 585.199219 756.617188 585.039062 756.5625 585.089844 C 756.472656 585.179688 755.640625 585.085938 755.640625 585.078125 C 755.78125 584.535156 756.585938 583.910156 756.96875 583.515625 C 756.984375 583.496094 757.101562 583.402344 757.082031 583.367188 C 757.046875 583.296875 756.347656 583.308594 756.347656 583.25 C 756.347656 583.238281 756.503906 583.175781 756.511719 583.171875 C 756.9375 582.949219 757.339844 582.738281 757.667969 582.382812 C 757.710938 582.335938 757.8125 582.257812 757.8125 582.257812 C 757.8125 582.257812 757.460938 582.171875 757.285156 582.136719 C 757.226562 582.125 757.109375 582.179688 757.109375 582.125 C 757.109375 582.121094 757.914062 581.261719 757.96875 581.203125 C 758.429688 580.683594 759.308594 579.507812 759.308594 579.503906 C 759.328125 579.511719 760.183594 580.683594 760.644531 581.203125 C 760.699219 581.261719 761.5 582.121094 761.5 582.125 C 761.5 582.179688 761.386719 582.125 761.328125 582.136719 C 761.152344 582.171875 760.796875 582.257812 760.796875 582.257812 C 760.796875 582.257812 760.898438 582.335938 760.941406 582.382812 C 761.273438 582.738281 761.675781 582.949219 762.101562 583.171875 C 762.109375 583.175781 762.265625 583.238281 762.265625 583.25 C 762.265625 583.308594 761.566406 583.296875 761.527344 583.367188 C 761.511719 583.402344 761.628906 583.496094 761.644531 583.515625 C 762.027344 583.910156 762.832031 584.535156 762.972656 585.078125 C 762.972656 585.085938 762.140625 585.179688 762.050781 585.089844 C 761.996094 585.039062 762.15625 585.199219 762.210938 585.257812 C 762.378906 585.445312 762.546875 585.632812 762.730469 585.804688 C 763.253906 586.289062 763.925781 586.613281 764.410156 587.136719 C 764.425781 587.152344 764.519531 587.234375 764.507812 587.261719 C 764.453125 587.390625 763.6875 587.195312 763.597656 587.175781 C 763.585938 587.171875 763.410156 587.113281 763.351562 587.089844 C 763.34375 587.078125 763.339844 587.074219 763.332031 587.078125 C 763.332031 587.078125 763.339844 587.082031 763.351562 587.089844 C 763.355469 587.09375 763.359375 587.105469 763.363281 587.109375 C 763.460938 587.253906 763.546875 587.40625 763.65625 587.546875 C 763.71875 587.632812 764.328125 588.160156 764.308594 588.230469 C 764.277344 588.378906 763.421875 588.367188 763.28125 588.367188 C 763.277344 588.367188 763.179688 588.363281 763.179688 588.371094 C 763.160156 588.4375 765.859375 590.164062 765.859375 590.167969 C 765.863281 590.207031 765.402344 590.421875 763.898438 589.992188 C 763.75 589.949219 763.597656 589.90625 763.445312 589.867188 C 763.421875 589.859375 763.371094 589.820312 763.371094 589.84375 C 763.371094 589.855469 763.394531 589.859375 763.40625 589.867188 C 763.699219 590.0625 763.972656 590.292969 764.246094 590.511719 C 764.558594 590.765625 764.117188 590.644531 763.941406 590.628906 C 763.929688 590.625 763.910156 590.628906 763.914062 590.636719 C 764.335938 591.328125 766.09375 591.878906 766.25 592.792969 C 766.257812 592.820312 766.257812 592.867188 766.25 592.894531 C 766.136719 593.273438 764.621094 593.058594 764.140625 592.894531 C 764.085938 592.867188 764.007812 592.839844 764.042969 592.859375 C 764.066406 592.871094 764.101562 592.882812 764.140625 592.894531 C 764.15625 592.90625 764.171875 592.914062 764.183594 592.921875 C 764.304688 593.035156 764.25 593.132812 764.097656 593.164062 C 763.972656 593.191406 763.277344 593.183594 763.226562 593.3125 C 763.203125 593.371094 763.585938 593.527344 763.617188 593.542969 C 764.59375 594.03125 765.535156 594.570312 766.429688 595.1875 C 766.453125 595.207031 766.824219 595.445312 766.796875 595.496094 C 766.789062 595.511719 766.738281 595.503906 766.734375 595.503906 C 766.601562 595.488281 763.910156 594.648438 763.730469 594.90625 C 763.664062 594.996094 764.089844 595.203125 764.136719 595.234375 C 764.613281 595.511719 767.097656 596.828125 767.042969 597.417969 C 767 597.851562 765.402344 597.054688 764.824219 596.988281 C 764.792969 596.988281 764.527344 596.972656 764.53125 597.019531 C 764.535156 597.085938 768.078125 599.09375 768.007812 600.242188 C 767.980469 600.679688 766.550781 599.917969 766.214844 599.871094 C 765.933594 599.832031 765.652344 599.828125 765.371094 599.800781 C 765.292969 599.792969 765.132812 599.804688 765.039062 599.796875 C 765.011719 599.765625 764.992188 599.738281 764.988281 599.742188 C 764.953125 599.777344 764.984375 599.792969 765.039062 599.796875 C 765.082031 599.84375 765.132812 599.910156 765.136719 599.917969 C 765.476562 600.324219 766.121094 600.519531 766.5625 600.796875 C 766.722656 600.898438 769.140625 602.664062 768.925781 603.128906 C 768.785156 603.425781 767.136719 602.640625 766.746094 602.640625 C 766.160156 602.640625 765.417969 602.5 764.851562 602.578125 C 764.117188 602.679688 763.554688 603.09375 762.75 603.046875 C 761.554688 602.976562 760.480469 602.363281 759.304688 602.320312 C 758.132812 602.363281 757.058594 602.976562 755.863281 603.046875 C 755.058594 603.09375 754.496094 602.679688 753.757812 602.578125 C 753.191406 602.5 752.453125 602.640625 751.867188 602.640625 C 751.476562 602.640625 749.828125 603.425781 749.6875 603.128906 C 749.46875 602.664062 751.890625 600.898438 752.050781 600.796875 C 752.488281 600.519531 753.136719 600.324219 753.472656 599.917969 C 753.480469 599.910156 753.53125 599.84375 753.570312 599.796875 Z M 753.570312 599.796875 " fill-opacity="1" fill-rule="evenodd"/></g></svg>