<svg xmlns="http://www.w3.org/2000/svg" xmlns:xlink="http://www.w3.org/1999/xlink" width="1350" zoomAndPan="magnify" viewBox="0 0 1012.5 599.999999" height="800" preserveAspectRatio="xMidYMid meet" version="1.0"><defs><g/></defs><g fill="#ffffff" fill-opacity="1"><g transform="translate(248.639857, 316.001324)"><g><path d="M 56.527344 -57.167969 C 51.089844 -54.769531 46.132812 -51.011719 38.777344 -51.011719 C 37.5 -51.011719 36.058594 -51.171875 34.621094 -51.410156 C 33.820312 -52.371094 33.101562 -54.769531 31.183594 -55.25 C 31.023438 -55.25 30.941406 -55.328125 30.78125 -55.328125 C 29.34375 -55.328125 27.746094 -53.492188 25.425781 -53.332031 C 25.347656 -53.332031 25.347656 -53.332031 25.265625 -53.332031 C 23.507812 -53.332031 21.109375 -54.53125 18.550781 -54.847656 C 15.910156 -55.25 13.113281 -55.488281 10.394531 -55.488281 C 5.996094 -55.488281 2.078125 -54.769531 0.078125 -52.929688 C 0.960938 -52.371094 2 -52.132812 3.117188 -52.132812 C 4.558594 -52.132812 6.15625 -52.449219 7.753906 -52.609375 C 8.554688 -52.691406 9.273438 -52.691406 10.074219 -52.691406 C 15.429688 -52.691406 20.949219 -51.730469 24.707031 -50.292969 C 22.945312 -40.296875 22.226562 -27.183594 22.789062 -15.75 C 22.945312 -11.832031 23.1875 -8.796875 24.707031 -6.875 C 25.664062 -1.839844 28.785156 5.917969 33.902344 6.554688 C 34.222656 6.554688 34.621094 6.636719 35.019531 6.636719 C 36.378906 6.636719 37.820312 6.316406 38.457031 5.039062 C 39.019531 0.640625 35.339844 -2.160156 33.902344 -6.554688 C 32.78125 -9.753906 32.460938 -13.914062 32.382812 -17.988281 C 31.902344 -29.742188 33.261719 -39.578125 35.019531 -48.773438 C 36.460938 -48.53125 37.820312 -48.453125 39.257812 -48.453125 C 45.734375 -48.453125 51.8125 -50.691406 55.007812 -53.730469 C 55.890625 -54.53125 57.886719 -56.6875 56.527344 -57.167969 Z M 56.527344 -57.167969 "/></g></g></g><g fill="#ffffff" fill-opacity="1"><g transform="translate(291.094769, 316.001324)"><g><path d="M 27.023438 -3.835938 C 23.265625 -8.714844 24.546875 -23.988281 17.429688 -24.148438 C 13.273438 -24.226562 13.273438 -20.46875 10.554688 -18.390625 C 11.832031 -25.984375 16.152344 -31.742188 16.710938 -39.496094 C 17.109375 -45.253906 14.472656 -47.894531 11.273438 -47.894531 C 9.273438 -47.894531 7.035156 -46.773438 5.195312 -44.855469 C 2.480469 -41.976562 0.640625 -35.582031 0.160156 -29.503906 C -0.398438 -21.828125 0.640625 -10.15625 2.878906 -5.355469 C 3.996094 -2.878906 6.796875 0 9.273438 0 C 9.996094 0 10.632812 -0.238281 11.273438 -0.71875 C 12.632812 -3.199219 13.753906 -3.277344 12.871094 -7.277344 C 11.914062 -10.15625 11.273438 -11.992188 11.671875 -14.152344 C 11.914062 -15.75 14.550781 -18.789062 16.3125 -18.789062 C 14.710938 -9.195312 17.109375 0.558594 25.1875 0.558594 C 29.742188 0.558594 33.660156 -3.117188 36.621094 -6.15625 C 38.9375 -8.476562 41.257812 -11.511719 41.976562 -14.152344 C 41.976562 -14.390625 41.898438 -14.550781 41.738281 -14.550781 C 40.539062 -14.550781 34.539062 -3.996094 27.023438 -3.835938 Z M 11.671875 -45.65625 C 11.753906 -45.65625 11.832031 -45.65625 11.914062 -45.65625 C 12.234375 -45.65625 12.394531 -45.496094 12.472656 -45.253906 C 18.148438 -41.738281 11.992188 -28.945312 9.753906 -24.546875 C 7.515625 -31.183594 7.914062 -40.9375 11.671875 -45.65625 Z M 11.671875 -45.65625 "/></g></g></g><g fill="#ffffff" fill-opacity="1"><g transform="translate(330.511471, 316.001324)"><g><path d="M 15.910156 -4.316406 C 15.273438 -4.078125 14.070312 -3.757812 12.792969 -3.757812 C 11.433594 -3.757812 9.996094 -4.15625 9.355469 -5.4375 C 13.511719 -7.753906 16.070312 -20.386719 11.273438 -23.988281 C 11.113281 -23.988281 10.875 -23.988281 10.714844 -23.988281 C 0.960938 -23.988281 -3.359375 -6.15625 3.199219 -1.199219 C 4.878906 0 6.636719 0.480469 8.554688 0.480469 C 13.433594 0.480469 18.46875 -2.878906 21.269531 -5.4375 C 24.386719 -8.316406 27.90625 -11.914062 27.746094 -14.632812 C 27.746094 -14.871094 27.664062 -15.03125 27.503906 -15.03125 C 26.144531 -15.03125 20.230469 -5.675781 15.910156 -4.316406 Z M 10.15625 -21.347656 C 13.351562 -19.589844 11.035156 -10.792969 8.953125 -9.675781 C 7.996094 -12.3125 8.714844 -19.828125 10.15625 -21.347656 Z M 10.15625 -21.347656 "/></g></g></g><g fill="#ffffff" fill-opacity="1"><g transform="translate(381.041604, 316.001324)"><g><path d="M 39.738281 -12.3125 C 41.015625 -21.746094 39.417969 -29.503906 35.898438 -36.539062 C 33.421875 -41.816406 28.625 -47.894531 22.867188 -49.574219 C 22.308594 -49.8125 21.667969 -49.972656 20.949219 -49.972656 C 20.230469 -49.972656 19.429688 -49.8125 18.628906 -49.574219 C 12.953125 -48.132812 10.632812 -43.257812 7.117188 -39.578125 C 5.757812 -41.097656 4.476562 -41.738281 3.277344 -41.738281 C 0.558594 -41.738281 -3.199219 -36.859375 -3.199219 -34.222656 C -3.277344 -32.542969 -1.839844 -30.703125 -1.277344 -28.464844 C -0.800781 -26.546875 -0.480469 -24.066406 -0.160156 -21.589844 C 0.558594 -16.550781 1.199219 -9.113281 1.039062 -3.519531 C 0.960938 -2.558594 0.800781 -1.199219 0.640625 -0.078125 C 0.238281 2.160156 -1.121094 6.316406 2.160156 7.195312 C 2.398438 7.277344 2.636719 7.277344 2.878906 7.277344 C 4.558594 7.277344 5.917969 5.757812 6.796875 5.675781 C 9.195312 -6.394531 10.792969 -23.90625 8.316406 -37.257812 C 10.554688 -39.976562 11.59375 -43.976562 16.070312 -43.976562 C 20.789062 -43.976562 24.546875 -39.578125 26.707031 -35.738281 C 29.742188 -30.464844 31.503906 -22.945312 30.941406 -13.914062 C 20.46875 -13.351562 11.273438 -7.195312 10.953125 2.636719 C 10.792969 8.554688 14.152344 13.351562 19.667969 13.351562 C 22.386719 13.351562 24.464844 12.394531 26.707031 11.035156 C 32.941406 7.914062 39.097656 -2.957031 39.417969 -9.675781 C 41.175781 -9.59375 41.738281 -8.15625 43.574219 -8.15625 C 43.175781 -10.3125 40.699219 -10.554688 39.738281 -12.3125 Z M 16.710938 7.195312 C 14.230469 5.675781 13.753906 2.238281 14.070312 -0.480469 C 14.953125 -7.597656 23.347656 -11.753906 30.941406 -11.992188 C 29.34375 -3.917969 25.585938 5.277344 16.710938 7.195312 Z M 16.710938 7.195312 "/></g></g></g><g fill="#ffffff" fill-opacity="1"><g transform="translate(426.534715, 316.001324)"><g><path d="M 38.777344 -15.511719 C 37.257812 -15.351562 36.378906 -13.914062 35.339844 -12.871094 C 33.101562 -10.632812 31.183594 -8.316406 29.183594 -6.316406 C 28.304688 -5.515625 27.105469 -3.996094 25.90625 -3.996094 C 25.90625 -3.996094 25.824219 -3.996094 25.746094 -3.996094 C 25.027344 -10.394531 23.027344 -15.429688 19.589844 -19.03125 C 18.949219 -19.589844 18.390625 -19.828125 17.75 -19.828125 C 16.710938 -19.828125 15.671875 -19.109375 14.953125 -18.230469 C 14.390625 -15.273438 13.03125 -12.714844 11.113281 -10.15625 C 9.753906 -8.394531 8.234375 -5.757812 5.757812 -5.757812 C 5.4375 -5.757812 5.039062 -5.757812 4.636719 -5.917969 C 5.675781 -8.636719 8.875 -16.628906 5.757812 -17.671875 C 5.195312 -17.832031 4.636719 -17.910156 4.078125 -17.910156 C -3.917969 -17.910156 -5.117188 0 3.359375 0 C 3.835938 0 4.398438 0 4.957031 -0.160156 C 7.035156 -0.71875 9.273438 -4.15625 10.714844 -6.316406 C 12.554688 -8.953125 13.511719 -11.914062 15.351562 -13.273438 C 15.191406 -7.117188 15.429688 -1.277344 16.152344 3.996094 C 7.515625 12.394531 -12.152344 17.351562 -13.832031 33.179688 C -15.03125 44.535156 -7.914062 49.730469 2.320312 49.730469 C 11.113281 49.730469 16.390625 45.175781 21.109375 38.21875 C 27.664062 28.304688 27.90625 13.59375 26.464844 -0.960938 C 31.023438 -5.4375 35.980469 -9.355469 38.777344 -15.511719 Z M 13.832031 33.179688 C 12.394531 35.5 11.273438 38.21875 8.636719 40.9375 C 5.996094 43.816406 1.359375 45.972656 -1.121094 46.214844 C -1.597656 46.292969 -2.078125 46.292969 -2.558594 46.292969 C -12.074219 46.292969 -13.671875 33.980469 -9.59375 26.707031 C -5.355469 19.1875 9.195312 11.433594 15.75 6.714844 C 15.992188 6.714844 16.230469 6.714844 16.472656 6.714844 C 17.03125 15.75 18.070312 26.304688 13.832031 33.179688 Z M 13.832031 33.179688 "/></g></g></g><g fill="#ffffff" fill-opacity="1"><g transform="translate(461.873841, 316.001324)"><g><path d="M 30.382812 -8.234375 C 28.464844 -5.4375 20.867188 3.996094 15.511719 3.996094 C 14.953125 3.996094 14.390625 3.917969 13.914062 3.679688 C 10.554688 2.078125 10.3125 -11.753906 10.792969 -16.710938 C 13.992188 -20.386719 17.109375 -23.746094 19.667969 -28.945312 C 21.269531 -32.300781 25.027344 -41.335938 23.105469 -46.214844 C 22.226562 -48.453125 18.871094 -49.890625 15.589844 -49.890625 C 13.832031 -49.890625 12.074219 -49.492188 10.792969 -48.53125 C 4.078125 -43.496094 0 -24.945312 0.078125 -13.59375 C 0.078125 -6.796875 1.519531 2.160156 4.316406 5.195312 C 6.078125 7.117188 8.394531 7.914062 10.792969 7.914062 C 21.90625 7.914062 31.261719 -5.835938 36.539062 -13.992188 C 36.539062 -14.472656 36.460938 -14.710938 36.21875 -14.710938 C 35.179688 -14.710938 32.0625 -10.234375 30.382812 -8.234375 Z M 18.871094 -43.574219 C 19.269531 -43.574219 19.667969 -43.574219 20.070312 -43.574219 C 22.226562 -37.738281 19.347656 -32.300781 16.949219 -27.824219 C 15.351562 -24.785156 13.59375 -21.589844 11.195312 -20.148438 C 12.714844 -28.945312 14.152344 -37.898438 18.871094 -43.574219 Z M 18.871094 -43.574219 "/></g></g></g><g fill="#ffffff" fill-opacity="1"><g transform="translate(494.97427, 316.001324)"><g><path d="M 33.5 -14.3125 C 33.339844 -14.550781 33.179688 -14.632812 32.941406 -14.632812 C 31.261719 -14.632812 28.945312 -5.195312 21.507812 -4.71875 C 20.070312 -8.15625 19.347656 -14.871094 16.949219 -18.550781 C 10.394531 -16.628906 10.394531 -8.15625 3.117188 -7.035156 C 1.121094 -13.832031 6.875 -17.191406 11.753906 -17.191406 C 12.3125 -17.191406 12.871094 -17.109375 13.433594 -17.03125 C 13.511719 -19.988281 12.152344 -20.949219 10.394531 -20.949219 C 8.15625 -20.949219 5.195312 -19.347656 4.238281 -18.550781 C 2.878906 -17.429688 1.679688 -15.273438 0.398438 -13.59375 C -1.359375 -11.113281 -2.558594 -9.273438 -2.238281 -7.035156 C -1.839844 -3.996094 -0.078125 -2.957031 2.078125 -2.957031 C 5.4375 -2.957031 9.753906 -5.355469 11.511719 -7.035156 C 12.3125 -2.238281 14.390625 1.519531 18.628906 1.519531 C 21.1875 1.519531 23.1875 -0.320312 24.945312 -2.078125 C 28.703125 -5.757812 31.980469 -10.3125 33.5 -14.3125 Z M 33.5 -14.3125 "/></g></g></g><g fill="#ffffff" fill-opacity="1"><g transform="translate(551.021152, 316.001324)"><g><path d="M 43.894531 -7.277344 C 38.539062 -5.277344 34.460938 1.597656 27.746094 3.039062 C 26.785156 3.277344 25.746094 3.359375 24.625 3.359375 C 21.429688 3.359375 18.070312 2.558594 16.230469 1.519531 C 15.910156 1.359375 15.75 0.640625 15.429688 0.398438 C 14.953125 -0.078125 14.230469 -0.078125 13.914062 -0.398438 C 13.273438 -1.199219 13.03125 -2.796875 12.394531 -4.238281 C 11.273438 -7.035156 10.394531 -9.835938 10.472656 -13.433594 C 10.632812 -20.628906 13.671875 -29.34375 17.03125 -34.140625 C 18.710938 -36.621094 21.109375 -38.699219 23.507812 -41.097656 C 26.066406 -43.65625 28.222656 -45.816406 31.34375 -45.816406 C 34.140625 -45.816406 35.738281 -44.296875 37.339844 -42.214844 C 38.457031 -40.777344 38.699219 -38.140625 41.175781 -37.578125 C 42.855469 -40.136719 41.417969 -42.9375 40.058594 -44.933594 C 37.820312 -48.132812 34.941406 -50.050781 30.304688 -50.050781 C 25.664062 -50.050781 21.347656 -47.894531 17.429688 -45.65625 C 7.914062 -40.378906 1.039062 -29.503906 0.078125 -17.269531 C -0.71875 -6.714844 2.238281 0.558594 7.035156 5.355469 C 7.914062 6.316406 8.476562 6.875 9.675781 7.675781 C 10.632812 8.234375 11.832031 9.355469 12.792969 9.59375 C 13.832031 9.835938 15.273438 9.996094 16.710938 9.996094 C 18.308594 9.996094 19.910156 9.835938 21.1875 9.59375 C 23.265625 9.195312 25.585938 7.675781 28.144531 6.554688 C 32.382812 4.558594 36.378906 2.796875 39.257812 0.398438 C 40.777344 -0.878906 42.136719 -1.917969 43.097656 -3.4375 C 43.816406 -4.636719 45.175781 -5.835938 43.894531 -7.277344 Z M 43.894531 -7.277344 "/></g></g></g><g fill="#ffffff" fill-opacity="1"><g transform="translate(597.393743, 316.001324)"><g><path d="M 30.382812 -8.234375 C 28.464844 -5.4375 20.867188 3.996094 15.511719 3.996094 C 14.953125 3.996094 14.390625 3.917969 13.914062 3.679688 C 10.554688 2.078125 10.3125 -11.753906 10.792969 -16.710938 C 13.992188 -20.386719 17.109375 -23.746094 19.667969 -28.945312 C 21.269531 -32.300781 25.027344 -41.335938 23.105469 -46.214844 C 22.226562 -48.453125 18.871094 -49.890625 15.589844 -49.890625 C 13.832031 -49.890625 12.074219 -49.492188 10.792969 -48.53125 C 4.078125 -43.496094 0 -24.945312 0.078125 -13.59375 C 0.078125 -6.796875 1.519531 2.160156 4.316406 5.195312 C 6.078125 7.117188 8.394531 7.914062 10.792969 7.914062 C 21.90625 7.914062 31.261719 -5.835938 36.539062 -13.992188 C 36.539062 -14.472656 36.460938 -14.710938 36.21875 -14.710938 C 35.179688 -14.710938 32.0625 -10.234375 30.382812 -8.234375 Z M 18.871094 -43.574219 C 19.269531 -43.574219 19.667969 -43.574219 20.070312 -43.574219 C 22.226562 -37.738281 19.347656 -32.300781 16.949219 -27.824219 C 15.351562 -24.785156 13.59375 -21.589844 11.195312 -20.148438 C 12.714844 -28.945312 14.152344 -37.898438 18.871094 -43.574219 Z M 18.871094 -43.574219 "/></g></g></g><g fill="#ffffff" fill-opacity="1"><g transform="translate(630.494194, 316.001324)"><g><path d="M 23.746094 -9.996094 C 21.988281 -8.714844 19.988281 -7.753906 17.269531 -7.277344 C 19.109375 -15.351562 12.792969 -20.628906 6.957031 -20.628906 C 4.238281 -20.628906 1.597656 -19.507812 0 -16.871094 C -0.238281 -15.191406 0.160156 -13.992188 0.398438 -12.714844 C -0.800781 -10.875 -2.558594 -9.355469 -3.117188 -7.675781 C -4.957031 -1.277344 -0.160156 5.757812 6.636719 5.757812 C 7.914062 5.757812 9.273438 5.515625 10.714844 4.957031 C 14.230469 3.597656 15.429688 -0.71875 16.871094 -5.039062 C 24.546875 -5.996094 29.105469 -10.15625 31.421875 -16.550781 C 28.0625 -15.273438 26.546875 -11.914062 23.746094 -9.996094 Z M 8.796875 0 C 8.15625 0.238281 7.4375 0.320312 6.875 0.320312 C 2.636719 0.320312 0.160156 -4.71875 3.4375 -8.875 C 6.238281 -7.277344 8.953125 -5.675781 12.632812 -5.039062 C 11.433594 -2.878906 10.714844 -0.71875 8.796875 0 Z M 13.433594 -6.957031 C 10.554688 -7.675781 7.753906 -8.394531 5.757812 -9.996094 C 6.957031 -11.59375 9.996094 -11.355469 12.234375 -11.914062 C 11.753906 -14.3125 9.113281 -15.351562 6.394531 -15.351562 C 5.039062 -15.351562 3.757812 -15.113281 2.636719 -14.632812 C 3.199219 -17.269531 5.515625 -18.46875 7.996094 -18.46875 C 10.875 -18.46875 13.992188 -16.949219 14.550781 -14.230469 C 15.191406 -11.671875 13.832031 -9.914062 13.433594 -6.957031 Z M 13.433594 -6.957031 "/></g></g></g><g fill="#ffffff" fill-opacity="1"><g transform="translate(658.637567, 316.001324)"><g><path d="M 45.335938 -33.421875 C 41.976562 -32.382812 38.058594 -32.0625 33.902344 -32.0625 C 30.304688 -32.0625 26.546875 -32.300781 22.945312 -32.300781 C 19.589844 -32.300781 16.3125 -32.140625 13.433594 -31.503906 C 14.710938 -35.660156 15.191406 -41.417969 12.3125 -44.136719 C 12.074219 -44.136719 11.914062 -44.136719 11.753906 -44.136719 C 3.996094 -44.136719 4.957031 -36.300781 3.117188 -29.183594 C -0.558594 -28.382812 -4.078125 -27.425781 -5.675781 -24.546875 C -5.355469 -24.546875 -5.039062 -24.464844 -4.796875 -24.464844 C -1.839844 -24.464844 -0.238281 -25.824219 2.398438 -26.144531 C -0.640625 -14.632812 -2.957031 9.273438 7.277344 10.3125 C 7.753906 10.394531 8.234375 10.394531 8.714844 10.394531 C 18.148438 10.394531 25.746094 0.800781 29.582031 -5.039062 C 31.261719 -7.597656 33.582031 -11.671875 33.820312 -14.792969 C 33.660156 -15.191406 33.5 -15.351562 33.339844 -15.351562 C 32.382812 -15.351562 31.023438 -10.074219 28.382812 -6.957031 C 24.066406 -1.917969 19.828125 3.757812 11.914062 4.558594 C 7.597656 -3.4375 10.234375 -19.988281 13.03125 -28.785156 C 16.070312 -29.421875 19.828125 -29.582031 23.828125 -29.582031 C 26.546875 -29.582031 29.34375 -29.503906 32.0625 -29.503906 C 41.175781 -29.503906 49.574219 -30.222656 51.410156 -36.058594 C 49.171875 -35.898438 47.652344 -34.140625 45.335938 -33.421875 Z M 45.335938 -33.421875 "/></g></g></g><g fill="#ffffff" fill-opacity="1"><g transform="translate(689.49931, 316.001324)"><g><path d="M 27.023438 -3.835938 C 23.265625 -8.714844 24.546875 -23.988281 17.429688 -24.148438 C 13.273438 -24.226562 13.273438 -20.46875 10.554688 -18.390625 C 11.832031 -25.984375 16.152344 -31.742188 16.710938 -39.496094 C 17.109375 -45.253906 14.472656 -47.894531 11.273438 -47.894531 C 9.273438 -47.894531 7.035156 -46.773438 5.195312 -44.855469 C 2.480469 -41.976562 0.640625 -35.582031 0.160156 -29.503906 C -0.398438 -21.828125 0.640625 -10.15625 2.878906 -5.355469 C 3.996094 -2.878906 6.796875 0 9.273438 0 C 9.996094 0 10.632812 -0.238281 11.273438 -0.71875 C 12.632812 -3.199219 13.753906 -3.277344 12.871094 -7.277344 C 11.914062 -10.15625 11.273438 -11.992188 11.671875 -14.152344 C 11.914062 -15.75 14.550781 -18.789062 16.3125 -18.789062 C 14.710938 -9.195312 17.109375 0.558594 25.1875 0.558594 C 29.742188 0.558594 33.660156 -3.117188 36.621094 -6.15625 C 38.9375 -8.476562 41.257812 -11.511719 41.976562 -14.152344 C 41.976562 -14.390625 41.898438 -14.550781 41.738281 -14.550781 C 40.539062 -14.550781 34.539062 -3.996094 27.023438 -3.835938 Z M 11.671875 -45.65625 C 11.753906 -45.65625 11.832031 -45.65625 11.914062 -45.65625 C 12.234375 -45.65625 12.394531 -45.496094 12.472656 -45.253906 C 18.148438 -41.738281 11.992188 -28.945312 9.753906 -24.546875 C 7.515625 -31.183594 7.914062 -40.9375 11.671875 -45.65625 Z M 11.671875 -45.65625 "/></g></g></g><g fill="#ffffff" fill-opacity="1"><g transform="translate(728.916, 316.001324)"><g><path d="M 15.910156 -4.316406 C 15.273438 -4.078125 14.070312 -3.757812 12.792969 -3.757812 C 11.433594 -3.757812 9.996094 -4.15625 9.355469 -5.4375 C 13.511719 -7.753906 16.070312 -20.386719 11.273438 -23.988281 C 11.113281 -23.988281 10.875 -23.988281 10.714844 -23.988281 C 0.960938 -23.988281 -3.359375 -6.15625 3.199219 -1.199219 C 4.878906 0 6.636719 0.480469 8.554688 0.480469 C 13.433594 0.480469 18.46875 -2.878906 21.269531 -5.4375 C 24.386719 -8.316406 27.90625 -11.914062 27.746094 -14.632812 C 27.746094 -14.871094 27.664062 -15.03125 27.503906 -15.03125 C 26.144531 -15.03125 20.230469 -5.675781 15.910156 -4.316406 Z M 10.15625 -21.347656 C 13.351562 -19.589844 11.035156 -10.792969 8.953125 -9.675781 C 7.996094 -12.3125 8.714844 -19.828125 10.15625 -21.347656 Z M 10.15625 -21.347656 "/></g></g></g><g fill="#ffffff" fill-opacity="1"><g transform="translate(754.500868, 316.001324)"><g><path d="M 31.503906 -14.390625 C 31.503906 -14.792969 31.503906 -14.953125 31.34375 -14.953125 C 30.863281 -14.953125 28.703125 -10.792969 25.746094 -9.433594 C 23.027344 -8.15625 20.386719 -6.554688 16.949219 -5.597656 C 14.710938 -9.433594 11.355469 -12.074219 8.476562 -15.191406 C 9.273438 -16.710938 10.15625 -17.269531 11.035156 -17.269531 C 13.433594 -17.269531 15.75 -13.03125 16.871094 -13.03125 C 17.03125 -13.03125 17.269531 -13.191406 17.351562 -13.671875 C 19.347656 -19.1875 14.953125 -21.429688 10.234375 -21.429688 C 6.875 -21.429688 3.4375 -20.308594 2 -18.308594 C -2.558594 -12.074219 5.515625 -6.796875 7.753906 -2.558594 C 5.996094 -1.4375 3.117188 -0.480469 1.597656 1.277344 C -2.398438 5.835938 1.757812 10.074219 7.835938 10.074219 C 8.796875 10.074219 9.753906 9.996094 10.792969 9.753906 C 15.75 8.636719 19.1875 2.078125 17.351562 -4.078125 C 24.386719 -6.316406 28.863281 -8.074219 31.503906 -14.390625 Z M 2.320312 5.117188 C 3.597656 2.238281 5.597656 0.160156 8.875 -0.640625 C 9.195312 3.117188 6.078125 5.195312 3.199219 5.195312 C 2.878906 5.195312 2.636719 5.195312 2.320312 5.117188 Z M 2.320312 5.117188 "/></g></g></g></svg>