<svg xmlns="http://www.w3.org/2000/svg" xmlns:xlink="http://www.w3.org/1999/xlink" width="1350" zoomAndPan="magnify" viewBox="0 0 1012.5 599.999999" height="800" preserveAspectRatio="xMidYMid meet" version="1.0"><defs><clipPath id="0c893934d2"><path d="M 711 378 L 757.816406 378 L 757.816406 539 L 711 539 Z M 711 378 " clip-rule="nonzero"/></clipPath><clipPath id="bac08e4171"><path d="M 754 538 L 757.816406 538 L 757.816406 539.824219 L 754 539.824219 Z M 754 538 " clip-rule="nonzero"/></clipPath><clipPath id="2975bbd782"><path d="M 710.589844 538 L 714 538 L 714 539.824219 L 710.589844 539.824219 Z M 710.589844 538 " clip-rule="nonzero"/></clipPath></defs><g clip-path="url(#0c893934d2)"><path fill="#ff7c7c" d="M 757.171875 538.722656 C 757.175781 534.980469 754.753906 534.25 752.328125 532.316406 C 748.949219 529.621094 748.949219 523.816406 749.515625 519.9375 C 750.980469 509.9375 736.125 510.882812 736.125 510.882812 L 736.125 459.632812 L 734.144531 459.632812 C 743.710938 459.550781 751.519531 458.511719 751.519531 458.511719 C 752.558594 455.148438 752.855469 452.65625 752.855469 452.65625 C 755.175781 432.980469 746.175781 424.605469 746.175781 424.605469 C 741.332031 415.230469 746.175781 407.984375 746.175781 407.984375 C 751.878906 400.113281 752.777344 390.625 752.777344 390.625 C 753.363281 387.695312 750.433594 386.132812 750.433594 386.132812 C 747.308594 385.9375 743.207031 384.765625 743.207031 384.765625 C 739.890625 384.179688 739.5 381.640625 739.5 381.640625 L 739.5 378.128906 L 738.890625 378.128906 C 737.945312 378.554688 736.140625 378.847656 734.066406 378.847656 C 731.988281 378.847656 730.179688 378.554688 729.238281 378.128906 L 728.632812 378.128906 L 728.632812 381.640625 C 728.632812 381.640625 728.242188 384.179688 724.921875 384.765625 C 724.921875 384.765625 720.820312 385.9375 717.695312 386.132812 C 717.695312 386.132812 714.765625 387.695312 715.351562 390.625 C 715.351562 390.625 716.25 400.113281 721.953125 407.984375 C 721.953125 407.984375 726.796875 415.230469 721.953125 424.605469 C 721.953125 424.605469 712.953125 432.980469 715.273438 452.65625 C 715.878906 456.851562 717.34375 458.511719 717.34375 458.511719 C 722.207031 459.335938 727.5 459.625 732.4375 459.640625 L 732.4375 510.882812 C 732.4375 510.882812 717.578125 509.9375 719.046875 519.9375 C 719.613281 523.816406 719.613281 529.621094 716.234375 532.316406 C 713.804688 534.25 711.386719 534.980469 711.390625 538.722656 L 713.246094 538.722656 C 713.246094 538.722656 713.832031 536.171875 717.164062 534.953125 C 717.164062 534.953125 724.863281 532.363281 724.902344 522.613281 C 724.902344 522.613281 724.277344 516.738281 732.4375 516.644531 L 732.4375 538.722656 L 736.125 538.722656 L 736.125 516.644531 C 744.28125 516.738281 743.660156 522.613281 743.660156 522.613281 C 743.695312 532.363281 751.394531 534.953125 751.394531 534.953125 C 754.730469 536.171875 755.316406 538.722656 755.316406 538.722656 L 757.171875 538.722656 " fill-opacity="1" fill-rule="nonzero"/></g><g clip-path="url(#bac08e4171)"><path fill="#ff7c7c" d="M 757.503906 538.757812 L 755.195312 538.757812 C 754.949219 538.757812 754.75 538.957031 754.75 539.203125 C 754.75 539.449219 754.949219 539.648438 755.195312 539.648438 L 757.503906 539.648438 C 757.75 539.648438 757.953125 539.449219 757.953125 539.203125 C 757.953125 538.957031 757.75 538.757812 757.503906 538.757812 " fill-opacity="1" fill-rule="nonzero"/></g><g clip-path="url(#2975bbd782)"><path fill="#ff7c7c" d="M 713.355469 538.757812 L 711.046875 538.757812 C 710.800781 538.757812 710.597656 538.957031 710.597656 539.203125 C 710.597656 539.449219 710.800781 539.648438 711.046875 539.648438 L 713.355469 539.648438 C 713.601562 539.648438 713.800781 539.449219 713.800781 539.203125 C 713.800781 538.957031 713.601562 538.757812 713.355469 538.757812 " fill-opacity="1" fill-rule="nonzero"/></g></svg>