<svg xmlns="http://www.w3.org/2000/svg" xmlns:xlink="http://www.w3.org/1999/xlink" width="100" zoomAndPan="magnify" viewBox="0 0 75 74.999997" height="100" preserveAspectRatio="xMidYMid meet" version="1.0"><defs><clipPath id="310f75970d"><path d="M 20.671875 61 L 26 61 L 26 70.5 L 20.671875 70.5 Z M 20.671875 61 " clip-rule="nonzero"/></clipPath><clipPath id="ac788757c0"><path d="M 21 35 L 54 35 L 54 70.5 L 21 70.5 Z M 21 35 " clip-rule="nonzero"/></clipPath></defs><path fill="#ffffff" d="M 41.75 24.273438 C 41.882812 24.855469 42.070312 25.414062 42.289062 25.976562 C 42.292969 25.933594 42.3125 25.902344 42.320312 25.863281 C 42.550781 25.019531 42.472656 24.011719 42.121094 22.953125 C 41.789062 22.003906 41.292969 21.132812 40.683594 20.105469 C 40.402344 19.621094 40.109375 19.121094 39.714844 18.734375 C 39.445312 18.449219 39.132812 18.25 38.824219 18.152344 C 38.796875 18.183594 38.742188 18.304688 38.757812 18.441406 C 38.800781 18.691406 38.976562 18.960938 39.148438 19.21875 L 40.699219 21.558594 C 40.878906 21.828125 41.070312 22.113281 41.222656 22.433594 C 41.460938 22.933594 41.570312 23.445312 41.675781 23.941406 L 41.75 24.273438 " fill-opacity="1" fill-rule="nonzero"/><g clip-path="url(#310f75970d)"><path fill="#ffffff" d="M 22.351562 83.300781 C 22.625 82.007812 22.808594 80.667969 22.898438 79.34375 C 22.921875 78.949219 22.921875 78.546875 22.921875 78.148438 C 22.929688 77.34375 22.929688 76.511719 23.117188 75.695312 C 23.210938 75.308594 23.28125 74.917969 23.351562 74.535156 C 23.484375 73.8125 23.625 73.050781 23.898438 72.28125 C 24.003906 72 24.101562 71.722656 24.214844 71.4375 C 24.5625 70.546875 24.882812 69.703125 25.035156 68.820312 C 25.226562 67.808594 25.203125 66.753906 25.175781 65.730469 C 25.167969 65.175781 25.152344 64.597656 25.046875 64.054688 C 24.828125 63.011719 24.230469 62.046875 23.648438 61.113281 C 23.625 61.078125 23.597656 61.046875 23.582031 61.003906 C 23.515625 61.269531 23.441406 61.503906 23.367188 61.726562 C 23.328125 61.847656 23.28125 61.972656 23.246094 62.101562 C 23.148438 62.464844 23.148438 62.914062 23.136719 63.386719 C 23.136719 63.691406 23.136719 63.984375 23.113281 64.285156 C 23.042969 65.160156 22.914062 66.03125 22.792969 66.863281 L 22.71875 67.339844 C 22.222656 70.679688 21.917969 74.105469 21.617188 77.417969 L 20.660156 88.253906 C 20.921875 88.300781 21.1875 88.324219 21.460938 88.316406 C 21.476562 87.992188 21.507812 87.679688 21.542969 87.359375 C 21.65625 86.390625 21.878906 85.441406 22.085938 84.527344 C 22.175781 84.117188 22.269531 83.714844 22.351562 83.300781 " fill-opacity="1" fill-rule="nonzero"/></g><path fill="#ffffff" d="M 29.042969 24.097656 C 29.078125 23.933594 29.109375 23.761719 29.140625 23.597656 C 29.207031 23.21875 29.285156 22.824219 29.414062 22.441406 C 29.6875 21.644531 30.207031 20.886719 31.003906 20.125 C 32.152344 19.042969 33.625 18.152344 35.417969 17.492188 C 35.976562 17.285156 36.574219 17.085938 37.246094 17.070312 C 37.355469 17.0625 37.464844 17.070312 37.578125 17.070312 C 37.683594 17.070312 37.785156 17.070312 37.882812 17.0625 C 37.777344 16.574219 37.4375 16.089844 36.925781 15.746094 C 36.304688 15.34375 35.554688 15.152344 34.609375 14.996094 C 34.242188 14.941406 33.882812 14.886719 33.574219 14.941406 C 33.21875 15.007812 32.859375 15.203125 32.488281 15.414062 C 32.363281 15.484375 32.234375 15.5625 32.109375 15.621094 L 31.886719 15.742188 C 31.679688 15.84375 31.480469 15.949219 31.324219 16.0625 C 31.003906 16.3125 30.738281 16.714844 30.515625 17.324219 C 30.433594 17.53125 30.367188 17.753906 30.300781 17.960938 C 30.175781 18.351562 30.050781 18.75 29.871094 19.136719 C 29.652344 19.597656 29.371094 20.019531 29.109375 20.425781 C 28.746094 20.96875 28.40625 21.480469 28.25 22.042969 C 28.140625 22.449219 28.125 22.902344 28.125 23.363281 C 28.121094 23.828125 28.121094 24.234375 28.238281 24.59375 C 28.324219 24.84375 28.46875 25.082031 28.636719 25.3125 C 28.804688 24.925781 28.945312 24.523438 29.042969 24.097656 " fill-opacity="1" fill-rule="nonzero"/><path fill="#ffffff" d="M 32.859375 35.464844 C 32.789062 35.460938 32.703125 35.445312 32.613281 35.429688 C 33.648438 35.878906 34.472656 36.804688 34.800781 37.882812 C 35.460938 36.898438 36.375 36.085938 37.417969 35.546875 C 37.179688 35.601562 36.953125 35.640625 36.734375 35.667969 C 36.351562 35.710938 35.976562 35.734375 35.601562 35.734375 C 34.660156 35.734375 33.734375 35.609375 32.859375 35.464844 " fill-opacity="1" fill-rule="nonzero"/><path fill="#ffffff" d="M 24.167969 30.132812 C 25.59375 32.085938 28.042969 34.0625 30.796875 34.011719 C 30.390625 33.339844 30.035156 32.621094 29.730469 31.878906 C 29.175781 32.023438 28.675781 31.921875 28.308594 31.601562 C 28.070312 31.378906 27.945312 31.105469 27.855469 30.902344 C 27.5625 30.222656 27.226562 29.464844 27.144531 28.621094 C 27.070312 27.890625 27.25 26.949219 27.917969 26.417969 C 27.582031 26.003906 27.242188 25.546875 27.058594 24.976562 C 26.890625 24.441406 26.878906 23.902344 26.890625 23.347656 C 26.890625 22.804688 26.910156 22.257812 27.058594 21.714844 C 27.257812 20.960938 27.671875 20.339844 28.074219 19.738281 C 28.324219 19.359375 28.570312 18.996094 28.746094 18.609375 C 28.898438 18.292969 29.003906 17.957031 29.121094 17.589844 C 29.191406 17.355469 29.269531 17.128906 29.351562 16.894531 C 29.664062 16.050781 30.050781 15.476562 30.574219 15.078125 C 30.820312 14.886719 31.074219 14.757812 31.324219 14.632812 L 31.53125 14.535156 C 31.644531 14.46875 31.761719 14.402344 31.878906 14.335938 C 32.304688 14.097656 32.792969 13.816406 33.363281 13.714844 C 33.871094 13.636719 34.355469 13.699219 34.8125 13.78125 C 35.757812 13.941406 36.75 14.164062 37.601562 14.71875 C 38.449219 15.269531 38.992188 16.089844 39.125 16.949219 C 39.648438 17.101562 40.160156 17.417969 40.609375 17.863281 C 41.09375 18.359375 41.445312 18.957031 41.75 19.472656 C 42.261719 20.332031 42.898438 21.40625 43.296875 22.554688 C 43.730469 23.84375 43.808594 25.101562 43.519531 26.183594 C 43.34375 26.851562 43.039062 27.238281 42.75 27.460938 L 42.707031 28.8125 C 42.6875 29.34375 42.664062 29.964844 42.496094 30.550781 C 42.359375 30.988281 42.164062 31.375 41.960938 31.734375 C 43.039062 31 44.144531 30.15625 45.128906 29.164062 C 46.582031 27.695312 47.585938 26.042969 48.027344 24.398438 C 48.253906 23.527344 48.367188 22.585938 48.355469 21.496094 C 48.351562 19.554688 47.988281 17.65625 47.285156 15.84375 C 46.824219 14.664062 46.292969 13.75 45.667969 13.046875 C 45.261719 12.601562 44.753906 12.171875 44.089844 11.707031 C 41.277344 9.761719 37.847656 8.792969 34.449219 8.964844 C 31.035156 9.148438 27.726562 10.480469 25.144531 12.714844 C 24.316406 13.433594 23.691406 14.128906 23.230469 14.855469 C 22.914062 15.34375 22.636719 15.914062 22.378906 16.601562 C 20.980469 20.226562 21.160156 24.480469 22.863281 27.96875 C 23.234375 28.730469 23.671875 29.453125 24.167969 30.132812 " fill-opacity="1" fill-rule="nonzero"/><path fill="#ffffff" d="M 37.832031 28.222656 C 37.828125 28.402344 37.792969 28.609375 37.683594 28.8125 C 37.578125 29.007812 37.382812 29.160156 37.207031 29.199219 C 36.84375 29.289062 36.636719 29.183594 36.503906 29.117188 C 36.363281 29.039062 36.316406 28.96875 36.320312 28.910156 C 36.335938 28.851562 36.421875 28.816406 36.554688 28.792969 C 36.683594 28.769531 36.886719 28.734375 36.984375 28.652344 C 37.066406 28.570312 37.082031 28.507812 37.066406 28.21875 C 37.039062 27.925781 37.015625 27.554688 37 27.191406 C 36.953125 25.71875 37.085938 24.511719 37.320312 24.507812 C 37.554688 24.507812 37.785156 25.695312 37.832031 27.167969 C 37.847656 27.539062 37.847656 27.871094 37.832031 28.222656 Z M 40.761719 31.351562 C 40.964844 30.984375 41.191406 30.59375 41.304688 30.203125 C 41.4375 29.769531 41.453125 29.277344 41.46875 28.769531 L 41.523438 27.238281 C 41.460938 27.183594 41.40625 27.125 41.375 27.046875 C 41.023438 26.25 40.742188 25.40625 40.542969 24.546875 L 40.460938 24.203125 C 40.375 23.75 40.28125 23.332031 40.109375 22.960938 C 39.992188 22.722656 39.835938 22.488281 39.667969 22.242188 L 38.117188 19.914062 C 37.894531 19.570312 37.621094 19.152344 37.539062 18.628906 C 37.515625 18.527344 37.527344 18.417969 37.539062 18.308594 C 37.453125 18.308594 37.363281 18.304688 37.277344 18.308594 C 36.804688 18.324219 36.304688 18.484375 35.851562 18.65625 C 34.226562 19.261719 32.875 20.050781 31.851562 21.03125 C 31.210938 21.644531 30.796875 22.242188 30.589844 22.847656 C 30.480469 23.152344 30.421875 23.472656 30.355469 23.820312 C 30.324219 24 30.289062 24.179688 30.253906 24.367188 C 30.125 24.941406 29.925781 25.496094 29.683594 26.035156 C 29.664062 26.167969 29.648438 26.296875 29.636719 26.4375 C 29.480469 28.054688 29.621094 29.40625 29.386719 29.464844 C 29.21875 29.511719 28.839844 28.609375 28.789062 27.320312 C 28.457031 27.496094 28.332031 28.035156 28.375 28.496094 C 28.441406 29.136719 28.722656 29.785156 28.996094 30.40625 C 29.035156 30.492188 29.09375 30.632812 29.140625 30.675781 C 29.203125 30.738281 29.449219 30.726562 29.796875 30.546875 C 29.953125 30.460938 30.144531 30.445312 30.308594 30.515625 C 30.476562 30.578125 30.597656 30.710938 30.667969 30.875 C 30.992188 31.75 31.394531 32.597656 31.867188 33.402344 C 32.027344 33.660156 32.207031 33.949219 32.425781 34.074219 C 32.582031 34.160156 32.792969 34.203125 33.0625 34.246094 C 34.199219 34.425781 35.40625 34.574219 36.585938 34.4375 C 37.800781 34.285156 38.851562 33.824219 39.546875 33.121094 C 40.03125 32.636719 40.402344 31.984375 40.761719 31.351562 " fill-opacity="1" fill-rule="nonzero"/><g clip-path="url(#ac788757c0)"><path fill="#ffffff" d="M 42.832031 105.230469 C 42.542969 105.359375 40.347656 100.6875 39.4375 94.441406 C 38.484375 88.191406 39.238281 83.078125 39.554688 83.128906 C 39.921875 83.144531 39.753906 88.175781 40.679688 94.253906 C 41.558594 100.339844 43.1875 105.09375 42.832031 105.230469 Z M 38.632812 54.792969 C 38.808594 54.765625 39.042969 55.386719 39.410156 56.355469 C 39.777344 57.320312 40.328125 58.652344 40.808594 60.21875 C 41.292969 61.785156 41.476562 63.34375 41.335938 64.453125 C 41.210938 65.5625 40.859375 66.183594 40.699219 66.144531 C 40.527344 66.089844 40.558594 65.449219 40.457031 64.441406 C 40.363281 63.441406 40.0625 62.085938 39.613281 60.582031 C 39.148438 59.070312 38.710938 57.652344 38.550781 56.578125 C 38.386719 55.5 38.464844 54.816406 38.632812 54.792969 Z M 49.054688 145.496094 C 49.226562 145.4375 49.6875 146.503906 50.390625 148.195312 C 50.679688 148.863281 51 149.632812 51.398438 150.441406 C 50.632812 144.675781 50.242188 138.851562 50.242188 133.050781 C 50.242188 128.585938 50.210938 123.402344 49.765625 118.484375 C 49.710938 117.871094 49.652344 117.265625 49.582031 116.652344 C 49.199219 115.464844 48.746094 114.214844 48.210938 112.933594 C 46.847656 109.703125 45.5 106.78125 44.652344 104.625 C 43.78125 102.476562 43.328125 101.105469 43.484375 101.03125 C 43.644531 100.957031 44.382812 102.195312 45.460938 104.25 C 46.441406 106.175781 47.78125 108.777344 49.074219 111.796875 L 48.753906 108.738281 C 48.460938 105.851562 48.144531 102.863281 48.570312 99.882812 C 48.570312 99.867188 48.574219 99.847656 48.578125 99.832031 C 48.570312 99.785156 48.558594 99.722656 48.546875 99.675781 C 48.382812 99.601562 48.203125 99.554688 48.003906 99.496094 C 47.429688 99.335938 46.722656 99.148438 46.261719 98.503906 C 45.933594 98.058594 45.859375 97.550781 45.804688 97.105469 C 45.542969 94.75 45.628906 92.398438 46.070312 90.074219 C 45.945312 90.015625 45.847656 89.917969 45.765625 89.792969 C 45.597656 89.542969 45.59375 89.199219 45.75 88.9375 C 45.890625 88.6875 45.925781 88.308594 45.957031 87.96875 L 46.777344 87.964844 L 45.960938 87.886719 C 46.21875 85.074219 46.386719 82.21875 46.46875 79.40625 C 46.507812 78.023438 46.523438 76.636719 46.523438 75.265625 C 46.386719 74.855469 46.121094 74.425781 45.84375 73.992188 C 45.734375 73.8125 45.613281 73.636719 45.511719 73.453125 C 45.183594 72.917969 44.921875 72.335938 44.683594 71.835938 L 43.882812 70.085938 C 43.667969 69.617188 43.445312 69.132812 43.28125 68.621094 C 43.160156 68.257812 43.0625 67.863281 42.984375 67.421875 C 42.867188 66.679688 42.816406 65.910156 42.839844 65.148438 C 42.886719 63.855469 43.160156 62.597656 43.425781 61.382812 L 44.050781 58.476562 C 44.0625 58.445312 44.082031 58.429688 44.089844 58.394531 C 44.050781 57.488281 44.03125 56.632812 44.035156 55.929688 C 43.949219 55.453125 43.855469 54.972656 43.765625 54.46875 C 43.714844 54.234375 43.675781 53.984375 43.632812 53.742188 C 43.421875 53.015625 43.152344 52.203125 42.824219 51.359375 C 42.289062 49.925781 41.609375 48.769531 41.195312 47.738281 C 40.777344 46.6875 40.964844 45.917969 41.128906 45.945312 C 41.308594 45.953125 41.445312 46.539062 41.988281 47.339844 C 42.34375 47.851562 42.851562 48.585938 43.3125 49.445312 C 43.328125 49.085938 43.363281 48.726562 43.421875 48.410156 C 43.683594 46.8125 44.3125 45.984375 44.464844 46.066406 C 44.65625 46.152344 44.394531 47.039062 44.402344 48.496094 C 44.394531 49.644531 44.59375 51.175781 44.890625 52.882812 C 45.136719 51.6875 45.484375 50.953125 45.675781 51 C 46.066406 51.082031 45.816406 53.679688 46.027344 56.839844 C 46.066406 57.445312 46.109375 58.03125 46.167969 58.574219 C 46.425781 59.410156 46.640625 60.253906 46.800781 61.113281 C 47.078125 62.628906 47.191406 64.175781 47.300781 65.671875 C 47.351562 66.3125 47.394531 66.949219 47.425781 67.597656 C 47.453125 68.257812 47.46875 68.773438 47.617188 69.347656 C 47.808594 70.074219 47.972656 70.824219 48.101562 71.582031 L 48.160156 71.886719 C 48.257812 72.414062 48.378906 73.015625 48.269531 73.636719 C 48.191406 74.082031 48.175781 74.503906 48.175781 75.015625 C 48.269531 75.347656 48.308594 75.699219 48.269531 76.082031 C 48.257812 76.207031 48.21875 76.3125 48.160156 76.414062 C 48.15625 77.417969 48.144531 78.4375 48.117188 79.453125 C 48.035156 82.300781 47.859375 85.195312 47.605469 88.035156 L 47.597656 88.128906 C 47.589844 88.183594 47.585938 88.257812 47.574219 88.324219 C 48.632812 88.417969 49.710938 88.40625 50.761719 88.390625 C 51.523438 88.382812 52.292969 88.382812 53.066406 88.417969 C 53.089844 88.210938 53.128906 88.035156 53.167969 87.878906 C 53.769531 85.128906 53.390625 82.355469 52.976562 79.410156 C 52.800781 78.148438 52.621094 76.847656 52.53125 75.558594 C 52.410156 73.96875 52.414062 72.375 52.421875 70.820312 L 52.460938 65.671875 C 52.460938 65.207031 52.410156 64.96875 52.339844 64.664062 C 52.269531 64.316406 52.1875 63.929688 52.164062 63.292969 C 52.148438 62.320312 52 61.34375 51.84375 60.3125 C 51.804688 60.027344 51.761719 59.75 51.71875 59.457031 C 51.480469 57.796875 51.34375 56.121094 51.207031 54.511719 C 51.0625 52.769531 50.914062 51 50.886719 49.238281 C 50.882812 48.851562 50.882812 48.453125 50.882812 48.066406 C 50.886719 46.925781 50.886719 45.84375 50.738281 44.789062 C 50.597656 43.730469 50.21875 42.242188 49.226562 41.210938 C 48.464844 40.40625 47.300781 39.839844 45.78125 39.515625 C 45.566406 39.464844 45.34375 39.425781 45.117188 39.382812 C 44.269531 39.226562 43.394531 39.0625 42.550781 38.621094 C 42.503906 38.589844 42.457031 38.558594 42.410156 38.535156 C 42.234375 38.632812 42.054688 38.703125 41.890625 38.773438 C 41.574219 38.878906 41.253906 38.996094 40.917969 39.09375 C 38.21875 39.945312 35.90625 40.03125 35.890625 39.808594 C 35.859375 39.5625 38.058594 39.117188 40.667969 38.300781 C 40.988281 38.191406 41.335938 38.09375 41.636719 37.996094 C 40.933594 37.386719 40.394531 36.59375 40.097656 35.710938 C 40.015625 35.753906 39.933594 35.808594 39.839844 35.847656 C 39.546875 36 39.238281 36.113281 38.929688 36.238281 C 38.664062 36.335938 38.402344 36.433594 38.148438 36.558594 C 36.667969 37.261719 35.53125 38.617188 35.085938 40.183594 C 35.019531 40.433594 34.800781 40.613281 34.546875 40.628906 C 34.519531 40.628906 34.503906 40.628906 34.488281 40.628906 C 34.246094 40.628906 34.035156 40.5 33.925781 40.28125 C 33.734375 39.875 33.730469 39.460938 33.730469 39.09375 C 33.730469 38.996094 33.730469 38.90625 33.71875 38.808594 C 33.671875 37.898438 33.050781 37.027344 32.234375 36.613281 C 32.046875 37.742188 31.746094 38.839844 31.324219 39.894531 C 31.359375 39.90625 31.378906 39.90625 31.417969 39.90625 C 31.777344 39.9375 32.109375 39.988281 32.378906 40.03125 C 32.925781 40.128906 33.273438 40.242188 33.273438 40.359375 C 33.273438 40.472656 32.917969 40.566406 32.363281 40.625 C 32.085938 40.648438 31.753906 40.664062 31.378906 40.671875 C 31.195312 40.671875 31.035156 40.707031 30.71875 40.648438 C 30.703125 40.640625 30.6875 40.628906 30.671875 40.625 C 30.621094 40.648438 30.589844 40.691406 30.535156 40.707031 C 28.628906 41.347656 26.464844 42.082031 24.96875 43.480469 C 24.179688 44.214844 23.558594 45.15625 23.101562 45.898438 C 22.914062 46.203125 22.738281 46.496094 22.667969 46.785156 C 22.527344 47.308594 22.6875 47.9375 22.875 48.65625 C 22.972656 49.03125 23.070312 49.4375 23.136719 49.867188 C 23.789062 49.101562 24.316406 48.449219 24.644531 47.863281 C 25.078125 47.109375 25.210938 46.539062 25.414062 46.539062 C 25.589844 46.523438 25.828125 47.191406 25.558594 48.226562 C 25.3125 49.265625 24.457031 50.480469 23.527344 51.550781 C 23.066406 52.082031 22.683594 52.585938 22.367188 53.058594 C 22.222656 53.570312 22.101562 54.070312 22.054688 54.585938 C 21.933594 55.648438 22.117188 56.617188 22.574219 57.3125 L 22.699219 57.503906 C 22.898438 57.796875 23.082031 58.101562 23.246094 58.429688 C 23.261719 58.433594 23.265625 58.449219 23.277344 58.460938 C 23.367188 58.558594 23.449219 58.65625 23.53125 58.765625 C 23.980469 59.304688 24.34375 59.882812 24.691406 60.453125 C 25.3125 61.433594 25.992188 62.542969 26.257812 63.804688 C 26.390625 64.457031 26.40625 65.117188 26.417969 65.703125 C 26.445312 66.785156 26.464844 67.917969 26.257812 69.042969 C 26.066406 70.042969 25.714844 70.976562 25.367188 71.886719 C 25.269531 72.15625 25.160156 72.429688 25.0625 72.703125 C 24.820312 73.371094 24.699219 74.050781 24.570312 74.757812 C 24.5 75.160156 24.425781 75.570312 24.328125 75.984375 C 24.167969 76.65625 24.167969 77.375 24.164062 78.148438 C 24.164062 78.578125 24.164062 79.007812 24.132812 79.425781 C 24.039062 80.808594 23.847656 82.195312 23.566406 83.558594 C 23.484375 83.972656 23.390625 84.382812 23.292969 84.808594 C 23.097656 85.691406 22.878906 86.605469 22.769531 87.507812 C 22.636719 88.660156 22.652344 89.871094 22.667969 91.035156 C 22.671875 91.546875 22.671875 92.0625 22.671875 92.574219 C 22.65625 93.984375 22.554688 95.402344 22.445312 96.785156 L 22.304688 98.679688 C 22.378906 98.832031 22.425781 99 22.417969 99.171875 L 21.773438 112.960938 C 21.6875 114.78125 21.601562 116.652344 21.617188 118.511719 C 21.632812 119.824219 21.6875 121.171875 21.757812 122.46875 C 21.796875 123.402344 21.847656 124.335938 21.90625 125.269531 C 22.015625 127.109375 22.175781 128.988281 22.386719 130.832031 L 22.445312 131.316406 C 22.574219 132.429688 22.707031 133.582031 22.71875 134.738281 C 22.722656 134.769531 22.722656 134.792969 22.722656 134.832031 C 23.589844 130.691406 24.609375 127.914062 24.828125 127.992188 C 25.1875 128.078125 23.929688 133.476562 23.085938 140.234375 C 23.039062 140.605469 23 140.96875 22.945312 141.328125 C 23.039062 143.058594 23.148438 144.777344 23.25 146.46875 C 23.386719 148.71875 23.53125 151.03125 23.632812 153.328125 C 26.351562 154.175781 29.207031 154.828125 31.785156 154.023438 C 31.894531 153.984375 32 153.953125 32.109375 153.914062 C 32.140625 153.898438 32.183594 153.886719 32.214844 153.882812 C 32.214844 153.882812 32.214844 153.882812 32.222656 153.882812 C 32.734375 153.699219 33.324219 153.5 33.957031 153.484375 C 34.859375 153.441406 35.699219 153.804688 36.429688 154.109375 C 36.597656 154.1875 36.75 154.253906 36.917969 154.316406 C 37.976562 154.734375 39.089844 154.953125 40.222656 154.964844 C 41.054688 154.96875 41.90625 154.871094 42.800781 154.757812 L 43.535156 154.671875 C 45.070312 154.492188 46.625 154.410156 48.132812 154.332031 L 50.550781 154.203125 C 47.007812 152.804688 44.160156 152.574219 44.195312 152.277344 C 44.203125 152.128906 45.320312 151.976562 47.125 152.195312 C 48.378906 152.34375 49.957031 152.707031 51.632812 153.347656 C 50.539062 151.601562 49.933594 149.820312 49.558594 148.492188 C 49.0625 146.683594 48.894531 145.546875 49.054688 145.496094 " fill-opacity="1" fill-rule="nonzero"/></g></svg>