<svg xmlns="http://www.w3.org/2000/svg" xmlns:xlink="http://www.w3.org/1999/xlink" width="100" zoomAndPan="magnify" viewBox="0 0 75 74.999997" height="100" preserveAspectRatio="xMidYMid meet" version="1.0"><defs><clipPath id="e206700dc7"><path d="M 45 38 L 67 38 L 67 65.828125 L 45 65.828125 Z M 45 38 " clip-rule="nonzero"/></clipPath><clipPath id="38c6953268"><path d="M 3.851562 15 L 25 15 L 25 31 L 3.851562 31 Z M 3.851562 15 " clip-rule="nonzero"/></clipPath><clipPath id="9f04600c3b"><path d="M 9 11.828125 L 71.351562 11.828125 L 71.351562 35 L 9 35 Z M 9 11.828125 " clip-rule="nonzero"/></clipPath><clipPath id="414a992a8e"><path d="M 17 38 L 35 38 L 35 65.828125 L 17 65.828125 Z M 17 38 " clip-rule="nonzero"/></clipPath><clipPath id="693bce9b73"><path d="M 34 31 L 44 31 L 44 65.828125 L 34 65.828125 Z M 34 31 " clip-rule="nonzero"/></clipPath></defs><g clip-path="url(#e206700dc7)"><path fill="#ffffff" d="M 45.652344 38.644531 C 45.808594 40.234375 45.828125 42 45.691406 44.039062 C 45.59375 45.46875 45.515625 46.800781 45.4375 48.117188 L 62.613281 65.015625 C 63.21875 65.585938 64.023438 65.917969 64.886719 65.917969 L 65.90625 65.917969 C 66.511719 65.917969 66.769531 65.46875 66.828125 65.332031 C 66.886719 65.191406 67.0625 64.703125 66.691406 64.230469 Z M 45.652344 38.644531 " fill-opacity="1" fill-rule="nonzero"/></g><path fill="#ffffff" d="M 36.222656 30.488281 C 36.222656 30.910156 36.179688 31.328125 36.097656 31.742188 C 36.015625 32.152344 35.894531 32.554688 35.734375 32.941406 C 35.574219 33.332031 35.375 33.703125 35.140625 34.050781 C 34.90625 34.402344 34.640625 34.726562 34.34375 35.023438 C 34.046875 35.320312 33.722656 35.585938 33.371094 35.820312 C 33.023438 36.054688 32.652344 36.25 32.265625 36.414062 C 31.875 36.574219 31.472656 36.695312 31.0625 36.777344 C 30.648438 36.859375 30.230469 36.902344 29.808594 36.902344 C 29.390625 36.902344 28.972656 36.859375 28.558594 36.777344 C 28.148438 36.695312 27.746094 36.574219 27.355469 36.414062 C 26.96875 36.25 26.597656 36.054688 26.25 35.820312 C 25.898438 35.585938 25.574219 35.320312 25.277344 35.023438 C 24.980469 34.726562 24.714844 34.402344 24.480469 34.050781 C 24.246094 33.703125 24.046875 33.332031 23.886719 32.941406 C 23.726562 32.554688 23.605469 32.152344 23.523438 31.742188 C 23.441406 31.328125 23.398438 30.910156 23.398438 30.488281 C 23.398438 30.070312 23.441406 29.652344 23.523438 29.238281 C 23.605469 28.824219 23.726562 28.425781 23.886719 28.035156 C 24.046875 27.648438 24.246094 27.277344 24.480469 26.925781 C 24.714844 26.578125 24.980469 26.253906 25.277344 25.957031 C 25.574219 25.660156 25.898438 25.394531 26.25 25.160156 C 26.597656 24.925781 26.96875 24.726562 27.355469 24.566406 C 27.746094 24.40625 28.148438 24.285156 28.558594 24.203125 C 28.972656 24.121094 29.390625 24.078125 29.808594 24.078125 C 30.230469 24.078125 30.648438 24.121094 31.0625 24.203125 C 31.472656 24.285156 31.875 24.40625 32.265625 24.566406 C 32.652344 24.726562 33.023438 24.925781 33.371094 25.160156 C 33.722656 25.394531 34.046875 25.660156 34.34375 25.957031 C 34.640625 26.253906 34.90625 26.578125 35.140625 26.925781 C 35.375 27.277344 35.574219 27.648438 35.734375 28.035156 C 35.894531 28.425781 36.015625 28.824219 36.097656 29.238281 C 36.179688 29.652344 36.222656 30.070312 36.222656 30.488281 Z M 36.222656 30.488281 " fill-opacity="1" fill-rule="nonzero"/><g clip-path="url(#38c6953268)"><path fill="#ffffff" d="M 21.066406 30.488281 C 21.066406 27.765625 22.339844 25.351562 24.300781 23.746094 L 8.105469 16.15625 C 6.96875 15.628906 5.675781 15.609375 4.519531 16.097656 L 3.851562 16.371094 L 21.046875 30.625 C 21.085938 30.585938 21.066406 30.546875 21.066406 30.488281 Z M 21.066406 30.488281 " fill-opacity="1" fill-rule="nonzero"/></g><g clip-path="url(#9f04600c3b)"><path fill="#ffffff" d="M 29.808594 21.765625 C 33.828125 21.765625 37.203125 24.507812 38.203125 28.214844 C 40.515625 29.332031 42.222656 30.625 43.4375 32.292969 L 45.535156 34.863281 C 50.613281 24.46875 66.355469 20.765625 71.140625 19.863281 C 70.160156 17.472656 66.828125 12.15625 56.496094 11.960938 C 50.632812 11.84375 48.023438 13.628906 45.457031 15.375 C 42.003906 17.707031 38.75 19.921875 29.339844 16.058594 C 20.320312 12.355469 13.539062 13.136719 9.617188 14.332031 L 26.75 22.351562 C 27.710938 21.980469 28.730469 21.765625 29.808594 21.765625 Z M 29.808594 21.765625 " fill-opacity="1" fill-rule="nonzero"/></g><g clip-path="url(#414a992a8e)"><path fill="#ffffff" d="M 25.632812 52.742188 L 34.359375 49.351562 C 33.730469 44.332031 32.96875 40.585938 32.554688 38.761719 C 31.691406 39.058594 30.769531 39.253906 29.808594 39.253906 C 28.398438 39.253906 27.105469 38.882812 25.910156 38.292969 L 27.769531 42.625 C 28.007812 43.175781 27.789062 43.820312 27.261719 44.117188 L 18.125 49.15625 C 17.28125 50.117188 17.183594 51.566406 17.890625 52.644531 L 25.320312 65.9375 L 29.007812 65.9375 L 24.949219 54.234375 C 24.753906 53.625 25.046875 52.957031 25.632812 52.742188 Z M 25.632812 52.742188 " fill-opacity="1" fill-rule="nonzero"/></g><g clip-path="url(#693bce9b73)"><path fill="#ffffff" d="M 41.300781 33.371094 C 40.574219 32.46875 39.632812 31.707031 38.476562 31.019531 C 38.300781 33.804688 36.867188 36.253906 34.691406 37.722656 C 35.183594 39.78125 36.417969 45.46875 37.105469 53.273438 C 37.691406 59.878906 37.867188 63.625 37.730469 65.78125 C 37.769531 65.898438 38.164062 66.152344 40.085938 65.917969 C 40.730469 65.839844 41.003906 65.800781 41.457031 63.957031 C 42.476562 59.761719 42.710938 55.234375 42.984375 50.015625 C 43.003906 49.585938 43.023438 49.136719 43.0625 48.703125 C 43.042969 48.546875 43.042969 48.390625 43.082031 48.253906 C 43.164062 46.839844 43.242188 45.410156 43.339844 43.878906 C 43.671875 39 43.183594 35.863281 41.457031 33.566406 Z M 41.300781 33.371094 " fill-opacity="1" fill-rule="nonzero"/></g></svg>