<svg xmlns="http://www.w3.org/2000/svg" xmlns:xlink="http://www.w3.org/1999/xlink" width="100" zoomAndPan="magnify" viewBox="0 0 75 74.999997" height="100" preserveAspectRatio="xMidYMid meet" version="1.0"><defs><clipPath id="2aa5eb3114"><path d="M 5.207031 2.882812 L 69.707031 2.882812 L 69.707031 68.882812 L 5.207031 68.882812 Z M 5.207031 2.882812 " clip-rule="nonzero"/></clipPath></defs><g clip-path="url(#2aa5eb3114)"><path fill="#ffffff" d="M 16.65625 34.328125 C 13.808594 34.957031 11.601562 37.3125 11.152344 40.195312 C 11.128906 40.363281 10.882812 40.363281 10.855469 40.195312 C 10.410156 37.3125 8.199219 34.957031 5.351562 34.328125 C 5.199219 34.292969 5.199219 34.066406 5.351562 34.035156 C 8.199219 33.402344 10.410156 31.046875 10.855469 28.167969 C 10.882812 28 11.128906 28 11.152344 28.167969 C 11.601562 31.046875 13.808594 33.402344 16.65625 34.035156 C 16.8125 34.066406 16.8125 34.292969 16.65625 34.328125 Z M 30.234375 24.039062 C 30.160156 24.058594 30.117188 24.128906 30.128906 24.203125 L 30.691406 27.390625 C 30.703125 27.457031 30.761719 27.507812 30.832031 27.507812 L 46.234375 27.507812 C 46.304688 27.507812 46.363281 27.457031 46.375 27.390625 L 46.9375 24.203125 C 46.949219 24.128906 46.90625 24.058594 46.832031 24.039062 C 41.625 22.703125 35.441406 22.703125 30.234375 24.039062 Z M 22.171875 10.511719 C 22.328125 10.476562 22.324219 10.253906 22.171875 10.21875 C 20.011719 9.738281 18.332031 7.953125 17.992188 5.761719 C 17.96875 5.59375 17.722656 5.597656 17.695312 5.761719 C 17.359375 7.953125 15.679688 9.738281 13.515625 10.21875 C 13.363281 10.253906 13.363281 10.476562 13.515625 10.511719 C 15.679688 10.992188 17.359375 12.78125 17.695312 14.96875 C 17.722656 15.136719 17.96875 15.136719 17.992188 14.96875 C 18.332031 12.78125 20.011719 10.992188 22.171875 10.511719 Z M 28.050781 18.753906 C 28.050781 19.941406 28.472656 21.105469 29.273438 22.152344 C 29.308594 22.199219 29.367188 22.21875 29.421875 22.203125 C 35.199219 20.648438 41.921875 20.652344 47.695312 22.214844 C 47.75 22.230469 47.808594 22.210938 47.84375 22.167969 C 48.652344 21.117188 49.074219 19.949219 49.074219 18.753906 C 49.074219 12.527344 46.25 11.777344 50.859375 3.90625 C 50.894531 3.847656 50.882812 3.769531 50.832031 3.726562 L 49.914062 2.9375 C 49.882812 2.914062 49.847656 2.902344 49.808594 2.90625 C 49.769531 2.910156 49.738281 2.925781 49.710938 2.957031 C 46.476562 6.882812 42.890625 9.929688 39.039062 12.027344 C 38.746094 12.1875 38.390625 12.1875 38.097656 12.03125 C 34.046875 9.878906 30.535156 6.90625 27.398438 2.972656 C 27.375 2.941406 27.34375 2.921875 27.300781 2.917969 C 27.261719 2.914062 27.226562 2.925781 27.195312 2.953125 L 26.214844 3.792969 C 26.164062 3.839844 26.152344 3.910156 26.183594 3.96875 C 30.367188 11.546875 28.050781 12.371094 28.050781 18.753906 Z M 69.621094 22.390625 C 66.042969 21.59375 63.265625 18.632812 62.703125 15.011719 C 62.675781 14.84375 62.433594 14.84375 62.40625 15.011719 C 61.84375 18.636719 59.066406 21.597656 55.484375 22.390625 C 55.332031 22.425781 55.332031 22.648438 55.484375 22.683594 C 59.066406 23.476562 61.84375 26.4375 62.40625 30.0625 C 62.433594 30.230469 62.675781 30.226562 62.703125 30.0625 C 63.265625 26.4375 66.042969 23.476562 69.621094 22.683594 C 69.78125 22.644531 69.78125 22.425781 69.621094 22.390625 Z M 23.089844 62.695312 C 24.84375 62.695312 26.503906 61.839844 27.523438 60.40625 C 27.917969 59.851562 28.742188 59.847656 29.136719 60.40625 C 31.304688 63.457031 35.835938 63.460938 38.007812 60.40625 C 38.402344 59.851562 39.226562 59.847656 39.621094 60.40625 C 41.792969 63.460938 46.320312 63.457031 48.492188 60.40625 C 48.886719 59.851562 49.710938 59.847656 50.105469 60.40625 C 51.976562 63.039062 55.726562 63.460938 58.132812 61.339844 C 58.167969 61.3125 58.183594 61.273438 58.179688 61.226562 C 57.460938 48.359375 53.226562 36.585938 46.792969 29.535156 C 46.765625 29.503906 46.730469 29.488281 46.6875 29.488281 L 44.316406 29.488281 C 44.269531 29.488281 44.230469 29.511719 44.203125 29.550781 C 44.175781 29.585938 44.167969 29.632812 44.183594 29.675781 C 46.855469 37.429688 48.34375 50.613281 48.757812 54.6875 C 48.8125 55.234375 48.414062 55.71875 47.871094 55.773438 C 47.328125 55.828125 46.839844 55.4375 46.785156 54.886719 C 46.363281 50.730469 44.8125 36.945312 42.042969 29.582031 C 42.019531 29.523438 41.96875 29.488281 41.910156 29.488281 L 39.644531 29.488281 C 39.566406 29.488281 39.503906 29.554688 39.5 29.628906 L 39.363281 53.886719 C 39.359375 54.429688 38.917969 54.871094 38.375 54.871094 C 37.824219 54.871094 37.378906 54.425781 37.382812 53.875 L 37.519531 29.632812 C 37.519531 29.59375 37.507812 29.558594 37.480469 29.53125 C 37.449219 29.503906 37.417969 29.488281 37.378906 29.488281 L 35.15625 29.488281 C 35.097656 29.488281 35.042969 29.523438 35.023438 29.582031 C 32.257812 36.945312 30.703125 50.730469 30.28125 54.886719 C 30.230469 55.398438 29.800781 55.78125 29.296875 55.78125 C 28.714844 55.78125 28.25 55.269531 28.308594 54.6875 C 28.71875 50.613281 30.207031 37.429688 32.882812 29.675781 C 32.898438 29.632812 32.890625 29.585938 32.863281 29.550781 C 32.835938 29.511719 32.796875 29.488281 32.75 29.488281 L 30.351562 29.488281 C 30.308594 29.488281 30.273438 29.503906 30.246094 29.535156 C 23.917969 36.46875 19.699219 48.027344 18.890625 60.652344 C 18.890625 60.691406 18.898438 60.726562 18.925781 60.753906 C 19.953125 61.976562 21.480469 62.695312 23.089844 62.695312 Z M 57.886719 63.953125 C 57.84375 63.929688 57.800781 63.925781 57.757812 63.949219 C 54.976562 65.28125 51.632812 64.753906 49.398438 62.609375 C 49.34375 62.554688 49.257812 62.554688 49.203125 62.609375 C 46.355469 65.367188 41.761719 65.367188 38.914062 62.609375 C 38.859375 62.558594 38.773438 62.558594 38.71875 62.609375 C 35.867188 65.367188 31.273438 65.367188 28.425781 62.609375 C 28.371094 62.554688 28.285156 62.554688 28.230469 62.605469 C 25.824219 64.917969 22.191406 65.335938 19.324219 63.644531 C 19.28125 63.621094 19.230469 63.617188 19.1875 63.640625 C 19.144531 63.664062 19.117188 63.703125 19.109375 63.753906 C 19.023438 64.625 18.949219 65.5 18.890625 66.375 C 18.890625 66.414062 18.902344 66.449219 18.925781 66.476562 C 19.953125 67.699219 21.480469 68.417969 23.089844 68.417969 C 24.84375 68.417969 26.503906 67.5625 27.523438 66.128906 C 27.917969 65.574219 28.742188 65.570312 29.136719 66.128906 C 31.304688 69.179688 35.835938 69.183594 38.007812 66.128906 C 38.402344 65.574219 39.226562 65.570312 39.621094 66.128906 C 41.792969 69.183594 46.320312 69.179688 48.492188 66.128906 C 48.886719 65.574219 49.710938 65.570312 50.105469 66.128906 C 51.972656 68.753906 55.722656 69.195312 58.132812 67.0625 C 58.167969 67.035156 58.183594 66.996094 58.179688 66.949219 C 58.125 65.984375 58.050781 65.019531 57.957031 64.0625 C 57.953125 64.015625 57.929688 63.976562 57.886719 63.953125 Z M 57.886719 63.953125 " fill-opacity="1" fill-rule="nonzero"/></g></svg>