<svg xmlns="http://www.w3.org/2000/svg" xmlns:xlink="http://www.w3.org/1999/xlink" width="100" zoomAndPan="magnify" viewBox="0 0 75 74.999997" height="100" preserveAspectRatio="xMidYMid meet" version="1.0"><defs><clipPath id="58bce90b3e"><path d="M 22.609375 5.667969 L 52.609375 5.667969 L 52.609375 72.417969 L 22.609375 72.417969 Z M 22.609375 5.667969 " clip-rule="nonzero"/></clipPath></defs><g clip-path="url(#58bce90b3e)"><path fill="#ffffff" d="M 27.132812 20.050781 C 27.140625 20.042969 27.144531 20.035156 27.148438 20.03125 C 27.160156 20.015625 27.167969 20.003906 27.183594 19.988281 C 27.167969 20.007812 27.152344 20.027344 27.132812 20.050781 Z M 31.925781 10.414062 C 33.503906 10.414062 35.082031 10.414062 36.660156 10.414062 C 38.234375 10.414062 39.804688 10.414062 41.375 10.414062 C 42.804688 10.414062 44.230469 10.414062 45.660156 10.414062 C 46.828125 10.414062 48 10.414062 49.171875 10.414062 C 49.367188 10.414062 49.566406 10.414062 49.765625 10.414062 C 49.601562 9.253906 49.441406 8.292969 49.304688 7.554688 C 49.109375 6.5 48.195312 5.738281 47.121094 5.738281 L 27.875 5.738281 C 26.804688 5.738281 25.890625 6.5 25.695312 7.554688 C 25.5625 8.292969 25.398438 9.253906 25.234375 10.414062 C 25.992188 10.414062 26.75 10.414062 27.507812 10.414062 C 28.980469 10.414062 30.453125 10.414062 31.925781 10.414062 Z M 45.417969 12.90625 C 45.433594 12.988281 45.445312 13.074219 45.445312 13.15625 C 45.445312 13.789062 45.480469 14.417969 45.558594 15.046875 C 45.558594 15.054688 45.558594 15.058594 45.558594 15.0625 C 45.570312 15.125 45.578125 15.191406 45.585938 15.253906 C 45.609375 15.394531 45.632812 15.535156 45.660156 15.675781 C 45.710938 15.953125 45.773438 16.230469 45.839844 16.5 C 45.96875 17.007812 46.121094 17.507812 46.304688 17.996094 C 46.347656 18.105469 46.390625 18.214844 46.4375 18.324219 C 46.449219 18.359375 46.464844 18.394531 46.480469 18.425781 C 46.574219 18.640625 46.679688 18.851562 46.789062 19.058594 C 47 19.460938 47.230469 19.851562 47.492188 20.21875 C 47.554688 20.308594 47.617188 20.394531 47.679688 20.476562 C 47.707031 20.511719 47.738281 20.546875 47.765625 20.582031 C 47.894531 20.738281 48.027344 20.890625 48.167969 21.035156 C 48.316406 21.191406 48.472656 21.339844 48.632812 21.484375 C 48.683594 21.53125 48.734375 21.570312 48.785156 21.617188 C 48.765625 21.601562 48.839844 21.667969 48.890625 21.703125 C 48.890625 21.703125 48.894531 21.707031 48.894531 21.707031 C 48.875 21.691406 48.859375 21.675781 48.839844 21.664062 C 48.824219 21.648438 48.804688 21.632812 48.789062 21.617188 C 48.800781 21.628906 48.835938 21.65625 48.914062 21.71875 C 49.21875 21.941406 49.546875 22.140625 49.886719 22.308594 C 49.992188 22.359375 50.355469 22.492188 49.921875 22.332031 C 50.015625 22.367188 50.113281 22.40625 50.210938 22.4375 C 50.371094 22.496094 50.535156 22.542969 50.703125 22.585938 C 50.710938 22.585938 50.726562 22.589844 50.738281 22.589844 L 50.734375 22.558594 C 50.730469 22.351562 50.722656 22.140625 50.71875 21.925781 C 50.609375 18.394531 50.359375 15.363281 50.082031 12.90625 C 49.527344 12.90625 48.96875 12.90625 48.414062 12.90625 C 47.414062 12.90625 46.414062 12.90625 45.417969 12.90625 Z M 27.039062 20.164062 C 27.046875 20.160156 27.089844 20.113281 27.117188 20.074219 C 27.125 20.066406 27.128906 20.058594 27.136719 20.050781 C 27.113281 20.074219 27.09375 20.101562 27.074219 20.125 C 27.0625 20.136719 27.050781 20.152344 27.039062 20.164062 Z M 24.867188 21.917969 C 24.960938 21.875 25.054688 21.828125 25.148438 21.777344 C 25.335938 21.675781 25.515625 21.566406 25.691406 21.445312 C 25.757812 21.402344 25.824219 21.355469 25.890625 21.304688 C 25.929688 21.273438 25.957031 21.25 25.976562 21.234375 C 25.972656 21.238281 25.964844 21.246094 25.957031 21.25 C 25.941406 21.265625 25.921875 21.28125 25.90625 21.292969 C 25.90625 21.292969 25.910156 21.292969 25.910156 21.289062 C 25.960938 21.253906 26.046875 21.179688 26.003906 21.210938 C 26.304688 20.957031 26.589844 20.683594 26.847656 20.390625 C 26.914062 20.316406 26.976562 20.242188 27.039062 20.164062 C 27.035156 20.167969 27.0625 20.132812 27.148438 20.03125 C 27.261719 19.875 27.371094 19.71875 27.476562 19.558594 C 27.734375 19.167969 27.964844 18.757812 28.171875 18.335938 C 28.230469 18.210938 28.289062 18.082031 28.347656 17.957031 C 28.351562 17.945312 28.355469 17.9375 28.359375 17.929688 C 28.320312 18.015625 28.257812 18.125 28.382812 17.875 C 28.378906 17.882812 28.378906 17.886719 28.375 17.890625 C 28.382812 17.871094 28.390625 17.855469 28.398438 17.835938 C 28.394531 17.84375 28.394531 17.847656 28.390625 17.855469 C 28.476562 17.640625 28.558594 17.425781 28.632812 17.207031 C 28.792969 16.726562 28.929688 16.242188 29.039062 15.75 C 29.101562 15.472656 29.15625 15.191406 29.203125 14.914062 C 29.21875 14.792969 29.234375 14.671875 29.253906 14.554688 C 29.179688 14.976562 29.253906 14.558594 29.265625 14.453125 C 29.320312 13.941406 29.351562 13.421875 29.355469 12.90625 C 28.40625 12.90625 27.457031 12.90625 26.507812 12.90625 C 25.976562 12.90625 25.449219 12.90625 24.917969 12.90625 C 24.640625 15.363281 24.390625 18.394531 24.28125 21.925781 C 24.28125 21.992188 24.277344 22.058594 24.277344 22.125 C 24.453125 22.074219 24.628906 22.015625 24.796875 21.949219 C 24.820312 21.941406 24.84375 21.929688 24.867188 21.917969 Z M 48.894531 21.707031 C 48.917969 21.726562 48.945312 21.746094 48.96875 21.765625 C 48.949219 21.75 48.929688 21.734375 48.910156 21.71875 C 48.90625 21.714844 48.902344 21.710938 48.894531 21.707031 Z M 25.832031 21.351562 C 25.855469 21.332031 25.882812 21.3125 25.90625 21.292969 C 25.898438 21.296875 25.894531 21.300781 25.890625 21.304688 C 25.871094 21.320312 25.851562 21.335938 25.832031 21.351562 Z M 50.820312 25.128906 C 49.992188 25.023438 49.1875 24.761719 48.441406 24.367188 C 46.691406 23.441406 45.347656 21.789062 44.492188 20.035156 C 43.445312 17.898438 42.953125 15.53125 42.949219 13.15625 C 42.949219 13.070312 42.957031 12.984375 42.976562 12.90625 C 42.066406 12.90625 41.15625 12.90625 40.246094 12.90625 C 38.667969 12.90625 37.085938 12.90625 35.507812 12.90625 C 34.289062 12.90625 33.070312 12.90625 31.851562 12.90625 C 31.835938 14.222656 31.671875 15.546875 31.351562 16.820312 C 30.457031 20.335938 27.976562 24.105469 24.195312 24.6875 L 22.652344 70.152344 C 22.609375 71.402344 23.613281 72.441406 24.867188 72.441406 L 30.085938 72.441406 C 31.210938 72.441406 32.15625 71.601562 32.289062 70.484375 L 37.5 26.347656 L 42.710938 70.484375 C 42.84375 71.601562 43.789062 72.441406 44.914062 72.441406 L 50.132812 72.441406 C 51.386719 72.441406 52.390625 71.402344 52.347656 70.148438 Z M 50.820312 25.128906 " fill-opacity="1" fill-rule="nonzero"/></g></svg>