<svg xmlns="http://www.w3.org/2000/svg" xmlns:xlink="http://www.w3.org/1999/xlink" width="100" zoomAndPan="magnify" viewBox="0 0 75 74.999997" height="100" preserveAspectRatio="xMidYMid meet" version="1.0"><defs><clipPath id="3188a451f6"><path d="M 2.675781 4.5625 L 72.425781 4.5625 L 72.425781 70.5625 L 2.675781 70.5625 Z M 2.675781 4.5625 " clip-rule="nonzero"/></clipPath></defs><g clip-path="url(#3188a451f6)"><path fill="#ffffff" d="M 46 13.683594 C 47.386719 12.296875 47.996094 10.367188 47.691406 8.445312 C 47.679688 8.375 47.714844 8.3125 47.777344 8.285156 L 55.554688 4.582031 C 55.59375 4.5625 55.636719 4.5625 55.679688 4.582031 C 55.722656 4.601562 55.75 4.632812 55.761719 4.679688 C 57.078125 9.457031 57.078125 14.578125 55.761719 19.355469 C 55.75 19.398438 55.722656 19.433594 55.679688 19.453125 C 55.636719 19.472656 55.59375 19.46875 55.554688 19.449219 L 45.371094 14.601562 C 45.324219 14.578125 45.292969 14.539062 45.285156 14.492188 C 45.277344 14.441406 45.292969 14.394531 45.328125 14.359375 Z M 19.300781 19.453125 C 19.34375 19.472656 19.386719 19.46875 19.425781 19.449219 L 29.613281 14.601562 C 29.65625 14.578125 29.6875 14.539062 29.695312 14.492188 C 29.703125 14.441406 29.6875 14.394531 29.652344 14.359375 L 28.980469 13.683594 C 27.585938 12.289062 26.988281 10.378906 27.289062 8.441406 C 27.296875 8.375 27.265625 8.3125 27.203125 8.285156 L 19.425781 4.582031 C 19.386719 4.5625 19.339844 4.5625 19.300781 4.582031 C 19.257812 4.601562 19.230469 4.632812 19.21875 4.675781 C 17.902344 9.457031 17.902344 14.578125 19.21875 19.355469 C 19.230469 19.398438 19.257812 19.433594 19.300781 19.453125 Z M 37.382812 19.109375 C 37.441406 19.167969 37.539062 19.167969 37.597656 19.109375 L 44.511719 12.195312 C 46.042969 10.660156 46.042969 8.148438 44.511719 6.613281 C 42.46875 4.570312 40.160156 5.390625 38.234375 7.3125 C 37.824219 7.722656 37.15625 7.722656 36.746094 7.3125 C 34.824219 5.394531 32.519531 4.566406 30.46875 6.613281 C 28.933594 8.148438 28.9375 10.660156 30.46875 12.195312 Z M 72.300781 27.285156 C 70.425781 19.621094 66.085938 15.160156 59.089844 13.695312 C 59.011719 13.679688 58.9375 13.722656 58.914062 13.796875 L 58.78125 14.1875 C 58.777344 14.199219 58.777344 14.210938 58.777344 14.222656 C 58.597656 16.636719 58.128906 19.03125 57.363281 21.335938 C 57.207031 21.816406 56.746094 22.101562 56.253906 22.050781 C 56.183594 22.046875 56.121094 22.085938 56.097656 22.152344 L 40.019531 69.859375 C 39.996094 69.925781 40.023438 69.996094 40.082031 70.035156 C 40.140625 70.070312 40.214844 70.066406 40.265625 70.015625 L 66.699219 45.238281 C 66.738281 45.199219 66.753906 45.148438 66.742188 45.09375 L 63.09375 29.390625 C 62.949219 28.765625 63.398438 28.152344 64.039062 28.101562 L 72.167969 27.46875 C 72.210938 27.464844 72.25 27.445312 72.277344 27.40625 C 72.304688 27.371094 72.3125 27.328125 72.300781 27.285156 Z M 19.023438 22.132812 C 19 22.058594 18.921875 22.015625 18.847656 22.03125 C 18.320312 22.148438 17.789062 21.859375 17.617188 21.335938 C 16.808594 18.902344 16.332031 16.367188 16.175781 13.8125 C 16.171875 13.769531 16.152344 13.730469 16.117188 13.703125 C 16.082031 13.675781 16.039062 13.667969 15.996094 13.675781 C 8.9375 15.117188 4.566406 19.582031 2.679688 27.285156 C 2.667969 27.328125 2.675781 27.371094 2.703125 27.40625 C 2.730469 27.445312 2.769531 27.464844 2.8125 27.46875 L 10.941406 28.101562 C 11.582031 28.152344 12.03125 28.765625 11.886719 29.390625 L 8.242188 45.09375 C 8.226562 45.148438 8.242188 45.199219 8.285156 45.238281 L 34.734375 70.035156 C 34.785156 70.082031 34.859375 70.089844 34.917969 70.050781 C 34.976562 70.011719 35.003906 69.941406 34.980469 69.875 Z M 54.171875 21.273438 L 37.636719 70.324219 C 37.617188 70.386719 37.558594 70.429688 37.496094 70.429688 C 37.429688 70.429688 37.371094 70.386719 37.351562 70.324219 L 20.9375 21.214844 C 20.914062 21.140625 20.945312 21.0625 21.015625 21.03125 L 31.289062 16.136719 C 31.347656 16.109375 31.414062 16.121094 31.460938 16.167969 L 36.46875 21.175781 C 37.035156 21.738281 37.949219 21.738281 38.507812 21.175781 L 43.519531 16.167969 C 43.566406 16.121094 43.632812 16.109375 43.691406 16.136719 L 54.09375 21.089844 C 54.160156 21.125 54.195312 21.203125 54.171875 21.273438 Z M 38.542969 52.425781 C 38.542969 51.84375 38.074219 51.371094 37.488281 51.371094 C 36.910156 51.371094 36.433594 51.84375 36.433594 52.425781 C 36.433594 53.007812 36.90625 53.480469 37.488281 53.480469 C 38.074219 53.480469 38.542969 53.007812 38.542969 52.425781 Z M 38.542969 41.964844 C 38.542969 41.378906 38.074219 40.910156 37.488281 40.910156 C 36.910156 40.910156 36.433594 41.382812 36.433594 41.964844 C 36.433594 42.546875 36.90625 43.019531 37.488281 43.019531 C 38.074219 43.019531 38.542969 42.546875 38.542969 41.964844 Z M 38.542969 31.503906 C 38.542969 30.917969 38.074219 30.449219 37.488281 30.449219 C 36.910156 30.449219 36.433594 30.921875 36.433594 31.503906 C 36.433594 32.085938 36.90625 32.558594 37.488281 32.558594 C 38.074219 32.558594 38.542969 32.085938 38.542969 31.503906 Z M 38.542969 31.503906 " fill-opacity="1" fill-rule="nonzero"/></g></svg>