<svg xmlns="http://www.w3.org/2000/svg" xmlns:xlink="http://www.w3.org/1999/xlink" width="1360" zoomAndPan="magnify" viewBox="0 0 1020 675.000002" height="900" preserveAspectRatio="xMidYMid meet" version="1.0"><defs><filter x="0%" y="0%" width="100%" height="100%" id="2a1a97adf1"><feColorMatrix values="0 0 0 0 1 0 0 0 0 1 0 0 0 0 1 0 0 0 1 0" color-interpolation-filters="sRGB"/></filter><clipPath id="b91299a2e8"><path d="M 0.753906 0 L 1019.246094 0 L 1019.246094 674 L 0.753906 674 Z M 0.753906 0 " clip-rule="nonzero"/></clipPath><radialGradient gradientTransform="matrix(1, 0, 0, 1, 0.754436, 0.0000199704)" gradientUnits="userSpaceOnUse" r="1221.311653" cx="0" id="b51db5a108" cy="0" fx="0" fy="0"><stop stop-opacity="1" stop-color="rgb(100%, 99.862671%, 99.862671%)" offset="0"/><stop stop-opacity="1" stop-color="rgb(100%, 99.658203%, 99.658203%)" offset="0.0078125"/><stop stop-opacity="1" stop-color="rgb(100%, 99.520874%, 99.520874%)" offset="0.0117188"/><stop stop-opacity="1" stop-color="rgb(100%, 99.385071%, 99.385071%)" offset="0.015625"/><stop stop-opacity="1" stop-color="rgb(100%, 99.249268%, 99.249268%)" offset="0.0195312"/><stop stop-opacity="1" stop-color="rgb(100%, 99.111938%, 99.111938%)" offset="0.0234375"/><stop stop-opacity="1" stop-color="rgb(100%, 98.976135%, 98.976135%)" offset="0.0273438"/><stop stop-opacity="1" stop-color="rgb(100%, 98.840332%, 98.840332%)" offset="0.03125"/><stop stop-opacity="1" stop-color="rgb(100%, 98.703003%, 98.703003%)" offset="0.0351562"/><stop stop-opacity="1" stop-color="rgb(100%, 98.5672%, 98.5672%)" offset="0.0390625"/><stop stop-opacity="1" stop-color="rgb(100%, 98.431396%, 98.431396%)" offset="0.0429688"/><stop stop-opacity="1" stop-color="rgb(100%, 98.294067%, 98.294067%)" offset="0.046875"/><stop stop-opacity="1" stop-color="rgb(100%, 98.158264%, 98.158264%)" offset="0.0507812"/><stop stop-opacity="1" stop-color="rgb(100%, 98.022461%, 98.022461%)" offset="0.0546875"/><stop stop-opacity="1" stop-color="rgb(100%, 97.885132%, 97.885132%)" offset="0.0585938"/><stop stop-opacity="1" stop-color="rgb(100%, 97.749329%, 97.749329%)" offset="0.0625"/><stop stop-opacity="1" stop-color="rgb(100%, 97.613525%, 97.613525%)" offset="0.0664062"/><stop stop-opacity="1" stop-color="rgb(100%, 97.476196%, 97.476196%)" offset="0.0703125"/><stop stop-opacity="1" stop-color="rgb(100%, 97.340393%, 97.340393%)" offset="0.0742188"/><stop stop-opacity="1" stop-color="rgb(100%, 97.20459%, 97.20459%)" offset="0.078125"/><stop stop-opacity="1" stop-color="rgb(100%, 97.067261%, 97.067261%)" offset="0.0820312"/><stop stop-opacity="1" stop-color="rgb(100%, 96.931458%, 96.931458%)" offset="0.0859375"/><stop stop-opacity="1" stop-color="rgb(100%, 96.795654%, 96.795654%)" offset="0.0898438"/><stop stop-opacity="1" stop-color="rgb(100%, 96.658325%, 96.658325%)" offset="0.09375"/><stop stop-opacity="1" stop-color="rgb(100%, 96.522522%, 96.522522%)" offset="0.0976562"/><stop stop-opacity="1" stop-color="rgb(100%, 96.386719%, 96.386719%)" offset="0.101562"/><stop stop-opacity="1" stop-color="rgb(100%, 96.24939%, 96.24939%)" offset="0.105469"/><stop stop-opacity="1" stop-color="rgb(100%, 96.113586%, 96.113586%)" offset="0.109375"/><stop stop-opacity="1" stop-color="rgb(100%, 95.977783%, 95.977783%)" offset="0.113281"/><stop stop-opacity="1" stop-color="rgb(100%, 95.840454%, 95.840454%)" offset="0.117188"/><stop stop-opacity="1" stop-color="rgb(100%, 95.704651%, 95.704651%)" offset="0.121094"/><stop stop-opacity="1" stop-color="rgb(100%, 95.567322%, 95.567322%)" offset="0.125"/><stop stop-opacity="1" stop-color="rgb(100%, 95.431519%, 95.431519%)" offset="0.128906"/><stop stop-opacity="1" stop-color="rgb(100%, 95.295715%, 95.295715%)" offset="0.132812"/><stop stop-opacity="1" stop-color="rgb(100%, 95.158386%, 95.158386%)" offset="0.136719"/><stop stop-opacity="1" stop-color="rgb(100%, 95.022583%, 95.022583%)" offset="0.140625"/><stop stop-opacity="1" stop-color="rgb(100%, 94.88678%, 94.88678%)" offset="0.144531"/><stop stop-opacity="1" stop-color="rgb(100%, 94.749451%, 94.749451%)" offset="0.148438"/><stop stop-opacity="1" stop-color="rgb(100%, 94.613647%, 94.613647%)" offset="0.152344"/><stop stop-opacity="1" stop-color="rgb(100%, 94.477844%, 94.477844%)" offset="0.15625"/><stop stop-opacity="1" stop-color="rgb(100%, 94.340515%, 94.340515%)" offset="0.160156"/><stop stop-opacity="1" stop-color="rgb(100%, 94.204712%, 94.204712%)" offset="0.164062"/><stop stop-opacity="1" stop-color="rgb(100%, 94.068909%, 94.068909%)" offset="0.167969"/><stop stop-opacity="1" stop-color="rgb(100%, 93.93158%, 93.93158%)" offset="0.171875"/><stop stop-opacity="1" stop-color="rgb(100%, 93.795776%, 93.795776%)" offset="0.175781"/><stop stop-opacity="1" stop-color="rgb(100%, 93.659973%, 93.659973%)" offset="0.179688"/><stop stop-opacity="1" stop-color="rgb(100%, 93.522644%, 93.522644%)" offset="0.183594"/><stop stop-opacity="1" stop-color="rgb(100%, 93.386841%, 93.386841%)" offset="0.1875"/><stop stop-opacity="1" stop-color="rgb(100%, 93.251038%, 93.251038%)" offset="0.191406"/><stop stop-opacity="1" stop-color="rgb(100%, 93.113708%, 93.113708%)" offset="0.195312"/><stop stop-opacity="1" stop-color="rgb(100%, 92.977905%, 92.977905%)" offset="0.199219"/><stop stop-opacity="1" stop-color="rgb(100%, 92.842102%, 92.842102%)" offset="0.203125"/><stop stop-opacity="1" stop-color="rgb(100%, 92.704773%, 92.704773%)" offset="0.207031"/><stop stop-opacity="1" stop-color="rgb(100%, 92.56897%, 92.56897%)" offset="0.210938"/><stop stop-opacity="1" stop-color="rgb(100%, 92.433167%, 92.433167%)" offset="0.214844"/><stop stop-opacity="1" stop-color="rgb(100%, 92.295837%, 92.295837%)" offset="0.21875"/><stop stop-opacity="1" stop-color="rgb(100%, 92.160034%, 92.160034%)" offset="0.222656"/><stop stop-opacity="1" stop-color="rgb(100%, 92.024231%, 92.024231%)" offset="0.226562"/><stop stop-opacity="1" stop-color="rgb(100%, 91.886902%, 91.886902%)" offset="0.230469"/><stop stop-opacity="1" stop-color="rgb(100%, 91.751099%, 91.751099%)" offset="0.234375"/><stop stop-opacity="1" stop-color="rgb(100%, 91.615295%, 91.615295%)" offset="0.238281"/><stop stop-opacity="1" stop-color="rgb(100%, 91.477966%, 91.477966%)" offset="0.242188"/><stop stop-opacity="1" stop-color="rgb(100%, 91.342163%, 91.342163%)" offset="0.246094"/><stop stop-opacity="1" stop-color="rgb(100%, 91.204834%, 91.204834%)" offset="0.25"/><stop stop-opacity="1" stop-color="rgb(100%, 91.000366%, 91.000366%)" offset="0.253906"/><stop stop-opacity="1" stop-color="rgb(100%, 90.72876%, 90.72876%)" offset="0.261719"/><stop stop-opacity="1" stop-color="rgb(100%, 90.455627%, 90.455627%)" offset="0.269531"/><stop stop-opacity="1" stop-color="rgb(100%, 90.182495%, 90.182495%)" offset="0.277344"/><stop stop-opacity="1" stop-color="rgb(100%, 89.910889%, 89.910889%)" offset="0.285156"/><stop stop-opacity="1" stop-color="rgb(100%, 89.637756%, 89.637756%)" offset="0.292969"/><stop stop-opacity="1" stop-color="rgb(100%, 89.364624%, 89.364624%)" offset="0.300781"/><stop stop-opacity="1" stop-color="rgb(100%, 89.093018%, 89.093018%)" offset="0.308594"/><stop stop-opacity="1" stop-color="rgb(100%, 88.819885%, 88.819885%)" offset="0.316406"/><stop stop-opacity="1" stop-color="rgb(100%, 88.546753%, 88.546753%)" offset="0.324219"/><stop stop-opacity="1" stop-color="rgb(100%, 88.275146%, 88.275146%)" offset="0.332031"/><stop stop-opacity="1" stop-color="rgb(100%, 88.002014%, 88.002014%)" offset="0.339844"/><stop stop-opacity="1" stop-color="rgb(100%, 87.728882%, 87.728882%)" offset="0.347656"/><stop stop-opacity="1" stop-color="rgb(100%, 87.457275%, 87.457275%)" offset="0.355469"/><stop stop-opacity="1" stop-color="rgb(100%, 87.184143%, 87.184143%)" offset="0.363281"/><stop stop-opacity="1" stop-color="rgb(100%, 86.911011%, 86.911011%)" offset="0.371094"/><stop stop-opacity="1" stop-color="rgb(100%, 86.637878%, 86.637878%)" offset="0.378906"/><stop stop-opacity="1" stop-color="rgb(100%, 86.366272%, 86.366272%)" offset="0.386719"/><stop stop-opacity="1" stop-color="rgb(100%, 86.09314%, 86.09314%)" offset="0.394531"/><stop stop-opacity="1" stop-color="rgb(100%, 85.820007%, 85.820007%)" offset="0.402344"/><stop stop-opacity="1" stop-color="rgb(100%, 85.548401%, 85.548401%)" offset="0.410156"/><stop stop-opacity="1" stop-color="rgb(100%, 85.275269%, 85.275269%)" offset="0.417969"/><stop stop-opacity="1" stop-color="rgb(100%, 85.002136%, 85.002136%)" offset="0.425781"/><stop stop-opacity="1" stop-color="rgb(100%, 84.73053%, 84.73053%)" offset="0.433594"/><stop stop-opacity="1" stop-color="rgb(100%, 84.457397%, 84.457397%)" offset="0.441406"/><stop stop-opacity="1" stop-color="rgb(100%, 84.184265%, 84.184265%)" offset="0.449219"/><stop stop-opacity="1" stop-color="rgb(100%, 83.912659%, 83.912659%)" offset="0.457031"/><stop stop-opacity="1" stop-color="rgb(100%, 83.639526%, 83.639526%)" offset="0.464844"/><stop stop-opacity="1" stop-color="rgb(100%, 83.366394%, 83.366394%)" offset="0.472656"/><stop stop-opacity="1" stop-color="rgb(100%, 83.094788%, 83.094788%)" offset="0.480469"/><stop stop-opacity="1" stop-color="rgb(100%, 82.821655%, 82.821655%)" offset="0.488281"/><stop stop-opacity="1" stop-color="rgb(100%, 82.548523%, 82.548523%)" offset="0.496094"/><stop stop-opacity="1" stop-color="rgb(100%, 82.344055%, 82.344055%)" offset="0.503906"/><stop stop-opacity="1" stop-color="rgb(100%, 82.208252%, 82.208252%)" offset="0.507812"/><stop stop-opacity="1" stop-color="rgb(100%, 82.070923%, 82.070923%)" offset="0.511719"/><stop stop-opacity="1" stop-color="rgb(100%, 81.93512%, 81.93512%)" offset="0.515625"/><stop stop-opacity="1" stop-color="rgb(100%, 81.799316%, 81.799316%)" offset="0.519531"/><stop stop-opacity="1" stop-color="rgb(100%, 81.661987%, 81.661987%)" offset="0.523438"/><stop stop-opacity="1" stop-color="rgb(100%, 81.526184%, 81.526184%)" offset="0.527344"/><stop stop-opacity="1" stop-color="rgb(100%, 81.390381%, 81.390381%)" offset="0.53125"/><stop stop-opacity="1" stop-color="rgb(100%, 81.253052%, 81.253052%)" offset="0.535156"/><stop stop-opacity="1" stop-color="rgb(100%, 81.117249%, 81.117249%)" offset="0.539062"/><stop stop-opacity="1" stop-color="rgb(100%, 80.981445%, 80.981445%)" offset="0.542969"/><stop stop-opacity="1" stop-color="rgb(100%, 80.844116%, 80.844116%)" offset="0.546875"/><stop stop-opacity="1" stop-color="rgb(100%, 80.708313%, 80.708313%)" offset="0.550781"/><stop stop-opacity="1" stop-color="rgb(100%, 80.57251%, 80.57251%)" offset="0.554688"/><stop stop-opacity="1" stop-color="rgb(100%, 80.435181%, 80.435181%)" offset="0.558594"/><stop stop-opacity="1" stop-color="rgb(100%, 80.299377%, 80.299377%)" offset="0.5625"/><stop stop-opacity="1" stop-color="rgb(100%, 80.163574%, 80.163574%)" offset="0.566406"/><stop stop-opacity="1" stop-color="rgb(100%, 80.026245%, 80.026245%)" offset="0.570312"/><stop stop-opacity="1" stop-color="rgb(100%, 79.890442%, 79.890442%)" offset="0.574219"/><stop stop-opacity="1" stop-color="rgb(100%, 79.754639%, 79.754639%)" offset="0.578125"/><stop stop-opacity="1" stop-color="rgb(100%, 79.61731%, 79.61731%)" offset="0.582031"/><stop stop-opacity="1" stop-color="rgb(100%, 79.481506%, 79.481506%)" offset="0.585938"/><stop stop-opacity="1" stop-color="rgb(100%, 79.345703%, 79.345703%)" offset="0.589844"/><stop stop-opacity="1" stop-color="rgb(100%, 79.208374%, 79.208374%)" offset="0.59375"/><stop stop-opacity="1" stop-color="rgb(100%, 79.072571%, 79.072571%)" offset="0.597656"/><stop stop-opacity="1" stop-color="rgb(100%, 78.936768%, 78.936768%)" offset="0.601562"/><stop stop-opacity="1" stop-color="rgb(100%, 78.799438%, 78.799438%)" offset="0.605469"/><stop stop-opacity="1" stop-color="rgb(100%, 78.663635%, 78.663635%)" offset="0.609375"/><stop stop-opacity="1" stop-color="rgb(100%, 78.526306%, 78.526306%)" offset="0.613281"/><stop stop-opacity="1" stop-color="rgb(100%, 78.390503%, 78.390503%)" offset="0.617188"/><stop stop-opacity="1" stop-color="rgb(100%, 78.2547%, 78.2547%)" offset="0.621094"/><stop stop-opacity="1" stop-color="rgb(100%, 78.117371%, 78.117371%)" offset="0.625"/><stop stop-opacity="1" stop-color="rgb(100%, 77.912903%, 77.912903%)" offset="0.628906"/><stop stop-opacity="1" stop-color="rgb(100%, 77.641296%, 77.641296%)" offset="0.636719"/><stop stop-opacity="1" stop-color="rgb(100%, 77.368164%, 77.368164%)" offset="0.644531"/><stop stop-opacity="1" stop-color="rgb(100%, 77.095032%, 77.095032%)" offset="0.652344"/><stop stop-opacity="1" stop-color="rgb(100%, 76.823425%, 76.823425%)" offset="0.660156"/><stop stop-opacity="1" stop-color="rgb(100%, 76.550293%, 76.550293%)" offset="0.667969"/><stop stop-opacity="1" stop-color="rgb(100%, 76.277161%, 76.277161%)" offset="0.675781"/><stop stop-opacity="1" stop-color="rgb(100%, 76.005554%, 76.005554%)" offset="0.683594"/><stop stop-opacity="1" stop-color="rgb(100%, 75.732422%, 75.732422%)" offset="0.691406"/><stop stop-opacity="1" stop-color="rgb(100%, 75.45929%, 75.45929%)" offset="0.699219"/><stop stop-opacity="1" stop-color="rgb(100%, 75.187683%, 75.187683%)" offset="0.707031"/><stop stop-opacity="1" stop-color="rgb(100%, 74.914551%, 74.914551%)" offset="0.714844"/><stop stop-opacity="1" stop-color="rgb(100%, 74.641418%, 74.641418%)" offset="0.722656"/><stop stop-opacity="1" stop-color="rgb(100%, 74.368286%, 74.368286%)" offset="0.730469"/><stop stop-opacity="1" stop-color="rgb(100%, 74.09668%, 74.09668%)" offset="0.738281"/><stop stop-opacity="1" stop-color="rgb(100%, 73.823547%, 73.823547%)" offset="0.746094"/><stop stop-opacity="1" stop-color="rgb(100%, 73.61908%, 73.61908%)" offset="0.753906"/><stop stop-opacity="1" stop-color="rgb(100%, 73.483276%, 73.483276%)" offset="0.757812"/><stop stop-opacity="1" stop-color="rgb(100%, 73.345947%, 73.345947%)" offset="0.761719"/><stop stop-opacity="1" stop-color="rgb(100%, 73.210144%, 73.210144%)" offset="0.765625"/><stop stop-opacity="1" stop-color="rgb(100%, 73.074341%, 73.074341%)" offset="0.769531"/><stop stop-opacity="1" stop-color="rgb(100%, 72.937012%, 72.937012%)" offset="0.773438"/><stop stop-opacity="1" stop-color="rgb(100%, 72.801208%, 72.801208%)" offset="0.777344"/><stop stop-opacity="1" stop-color="rgb(100%, 72.665405%, 72.665405%)" offset="0.78125"/><stop stop-opacity="1" stop-color="rgb(100%, 72.528076%, 72.528076%)" offset="0.785156"/><stop stop-opacity="1" stop-color="rgb(100%, 72.392273%, 72.392273%)" offset="0.789062"/><stop stop-opacity="1" stop-color="rgb(100%, 72.25647%, 72.25647%)" offset="0.792969"/><stop stop-opacity="1" stop-color="rgb(100%, 72.119141%, 72.119141%)" offset="0.796875"/><stop stop-opacity="1" stop-color="rgb(100%, 71.983337%, 71.983337%)" offset="0.800781"/><stop stop-opacity="1" stop-color="rgb(100%, 71.847534%, 71.847534%)" offset="0.804688"/><stop stop-opacity="1" stop-color="rgb(100%, 71.710205%, 71.710205%)" offset="0.808594"/><stop stop-opacity="1" stop-color="rgb(100%, 71.574402%, 71.574402%)" offset="0.8125"/><stop stop-opacity="1" stop-color="rgb(100%, 71.369934%, 71.369934%)" offset="0.816406"/><stop stop-opacity="1" stop-color="rgb(100%, 71.096802%, 71.096802%)" offset="0.824219"/><stop stop-opacity="1" stop-color="rgb(100%, 70.825195%, 70.825195%)" offset="0.832031"/><stop stop-opacity="1" stop-color="rgb(100%, 70.552063%, 70.552063%)" offset="0.839844"/><stop stop-opacity="1" stop-color="rgb(100%, 70.278931%, 70.278931%)" offset="0.847656"/><stop stop-opacity="1" stop-color="rgb(100%, 70.005798%, 70.005798%)" offset="0.855469"/><stop stop-opacity="1" stop-color="rgb(100%, 69.734192%, 69.734192%)" offset="0.863281"/><stop stop-opacity="1" stop-color="rgb(100%, 69.46106%, 69.46106%)" offset="0.871094"/><stop stop-opacity="1" stop-color="rgb(100%, 69.256592%, 69.256592%)" offset="0.878906"/><stop stop-opacity="1" stop-color="rgb(100%, 69.120789%, 69.120789%)" offset="0.882812"/><stop stop-opacity="1" stop-color="rgb(100%, 68.983459%, 68.983459%)" offset="0.886719"/><stop stop-opacity="1" stop-color="rgb(100%, 68.847656%, 68.847656%)" offset="0.890625"/><stop stop-opacity="1" stop-color="rgb(100%, 68.711853%, 68.711853%)" offset="0.894531"/><stop stop-opacity="1" stop-color="rgb(100%, 68.574524%, 68.574524%)" offset="0.898438"/><stop stop-opacity="1" stop-color="rgb(100%, 68.438721%, 68.438721%)" offset="0.902344"/><stop stop-opacity="1" stop-color="rgb(100%, 68.302917%, 68.302917%)" offset="0.90625"/><stop stop-opacity="1" stop-color="rgb(100%, 68.09845%, 68.09845%)" offset="0.910156"/><stop stop-opacity="1" stop-color="rgb(100%, 67.825317%, 67.825317%)" offset="0.917969"/><stop stop-opacity="1" stop-color="rgb(100%, 67.552185%, 67.552185%)" offset="0.925781"/><stop stop-opacity="1" stop-color="rgb(100%, 67.280579%, 67.280579%)" offset="0.933594"/><stop stop-opacity="1" stop-color="rgb(100%, 67.076111%, 67.076111%)" offset="0.941406"/><stop stop-opacity="1" stop-color="rgb(100%, 66.938782%, 66.938782%)" offset="0.945312"/><stop stop-opacity="1" stop-color="rgb(100%, 66.802979%, 66.802979%)" offset="0.949219"/><stop stop-opacity="1" stop-color="rgb(100%, 66.667175%, 66.667175%)" offset="0.953125"/><stop stop-opacity="1" stop-color="rgb(100%, 66.462708%, 66.462708%)" offset="0.957031"/><stop stop-opacity="1" stop-color="rgb(100%, 66.189575%, 66.189575%)" offset="0.964844"/><stop stop-opacity="1" stop-color="rgb(100%, 65.985107%, 65.985107%)" offset="0.972656"/><stop stop-opacity="1" stop-color="rgb(100%, 65.849304%, 65.849304%)" offset="0.976562"/><stop stop-opacity="1" stop-color="rgb(100%, 65.643311%, 65.643311%)" offset="0.980469"/><stop stop-opacity="1" stop-color="rgb(100%, 65.438843%, 65.438843%)" offset="0.988281"/><stop stop-opacity="1" stop-color="rgb(100%, 65.234375%, 65.234375%)" offset="0.992188"/><stop stop-opacity="1" stop-color="rgb(100%, 65.098572%, 65.098572%)" offset="1"/></radialGradient><mask id="fe52f2c9f1"><g filter="url(#2a1a97adf1)"><rect x="-102" width="1224" fill="#000000" y="-67.5" height="810.000002" fill-opacity="0.15"/></g></mask><clipPath id="a109bc2f94"><path d="M 0.0859375 0 L 419 0 L 419 674 L 0.0859375 674 Z M 0.0859375 0 " clip-rule="nonzero"/></clipPath><clipPath id="9cbad122d8"><path d="M 0.117188 223.582031 L 375.765625 -27.039062 L 708.265625 471.335938 L 332.617188 721.960938 Z M 0.117188 223.582031 " clip-rule="nonzero"/></clipPath><clipPath id="45ae49acfe"><path d="M 332.667969 722.039062 L 708.320312 471.414062 L 375.820312 -26.960938 L 0.167969 223.660156 Z M 332.667969 722.039062 " clip-rule="nonzero"/></clipPath><clipPath id="7916f14a3c"><rect x="0" width="709" y="0" height="674"/></clipPath><clipPath id="abf0de31f9"><path d="M 147 0 L 555 0 L 555 674 L 147 674 Z M 147 0 " clip-rule="nonzero"/></clipPath><clipPath id="f84389a6a0"><path d="M 147.601562 203.25 L 512.664062 -40.304688 L 836.019531 444.367188 L 470.960938 687.921875 Z M 147.601562 203.25 " clip-rule="nonzero"/></clipPath><clipPath id="c75bc1b1db"><path d="M 470.933594 687.882812 L 835.996094 444.328125 L 512.636719 -40.34375 L 147.578125 203.214844 Z M 470.933594 687.882812 " clip-rule="nonzero"/></clipPath><clipPath id="c63546bc44"><path d="M 470.933594 687.882812 L 835.996094 444.328125 L 512.636719 -40.34375 L 147.578125 203.214844 Z M 470.933594 687.882812 " clip-rule="nonzero"/></clipPath><clipPath id="74a5964ab2"><path d="M 0.753906 0 L 462 0 L 462 674 L 0.753906 674 Z M 0.753906 0 " clip-rule="nonzero"/></clipPath><clipPath id="46c6157169"><path d="M 0.753906 0 L 467.917969 0 L 467.917969 674 L 0.753906 674 Z M 0.753906 0 " clip-rule="nonzero"/></clipPath></defs><g clip-path="url(#b91299a2e8)"><path fill="#ffffff" d="M 0.753906 0 L 1019.246094 0 L 1019.246094 674 L 0.753906 674 Z M 0.753906 0 " fill-opacity="1" fill-rule="nonzero"/><path fill="url(#b51db5a108)" d="M 0.753906 0 L 0.753906 674 L 1019.246094 674 L 1019.246094 0 Z M 0.753906 0 " fill-rule="nonzero"/></g><g mask="url(#fe52f2c9f1)"><g transform="matrix(1, 0, 0, 1, 155, -0.000000000000005375)"><g clip-path="url(#7916f14a3c)"><g clip-path="url(#a109bc2f94)"><g clip-path="url(#9cbad122d8)"><g clip-path="url(#45ae49acfe)"><path fill="#000000" d="M 353.089844 708.34375 C 346.257812 712.941406 339.003906 716.910156 331.476562 720.25 L 0.132812 223.605469 L 375.84375 -27.054688 C 371.527344 -21.269531 367.34375 -15.390625 363.578125 -9.230469 C 354.214844 6.070312 347.34375 23.605469 348.320312 41.515625 C 349.03125 54.539062 353.863281 67.070312 360.445312 78.335938 C 367.023438 89.601562 375.324219 99.746094 383.578125 109.847656 C 391.828125 119.949219 400.109375 130.113281 406.632812 141.410156 C 413.160156 152.703125 417.90625 165.273438 418.5 178.304688 C 419.152344 192.808594 414.601562 207.195312 407.539062 219.878906 C 400.476562 232.558594 390.976562 243.707031 381.09375 254.339844 C 371.210938 264.972656 360.863281 275.203125 351.769531 286.519531 C 342.671875 297.832031 334.792969 310.367188 330.601562 324.265625 C 325.894531 339.871094 326.039062 356.691406 329.410156 372.640625 C 332.785156 388.585938 339.292969 403.730469 347.09375 418.042969 C 362.695312 446.667969 383.539062 472.3125 397.636719 501.703125 C 412.34375 532.363281 419.320312 566.976562 415.675781 600.785156 C 412.03125 634.597656 397.476562 667.449219 373.480469 691.539062 C 367.25 697.792969 360.402344 703.414062 353.089844 708.34375 Z M 353.089844 708.34375 " fill-opacity="1" fill-rule="nonzero"/></g></g></g></g></g></g><g clip-path="url(#abf0de31f9)"><g clip-path="url(#f84389a6a0)"><g clip-path="url(#c75bc1b1db)"><g clip-path="url(#c63546bc44)"><path fill="#ffffff" d="M 490.777344 674.578125 C 484.140625 679.046875 477.089844 682.902344 469.773438 686.148438 L 147.589844 203.234375 L 512.65625 -40.324219 C 508.460938 -34.703125 504.398438 -28.984375 500.738281 -23 C 491.644531 -8.125 484.972656 8.917969 485.925781 26.328125 C 486.621094 38.992188 491.324219 51.171875 497.722656 62.125 C 504.117188 73.078125 512.191406 82.945312 520.214844 92.765625 C 528.238281 102.589844 536.289062 112.476562 542.632812 123.457031 C 548.980469 134.4375 553.597656 146.660156 554.175781 159.332031 C 554.8125 173.425781 550.398438 187.414062 543.539062 199.738281 C 536.679688 212.066406 527.449219 222.902344 517.847656 233.230469 C 508.246094 243.566406 498.191406 253.511719 489.359375 264.507812 C 480.519531 275.5 472.867188 287.6875 468.796875 301.195312 C 464.230469 316.363281 464.375 332.71875 467.65625 348.222656 C 470.941406 363.722656 477.273438 378.449219 484.855469 392.367188 C 500.027344 420.199219 520.292969 445.132812 534.007812 473.710938 C 548.308594 503.519531 555.101562 537.175781 551.566406 570.039062 C 548.039062 602.910156 533.902344 634.835938 510.589844 658.25 C 504.535156 664.328125 497.886719 669.789062 490.777344 674.578125 Z M 490.777344 674.578125 " fill-opacity="1" fill-rule="nonzero"/></g></g></g></g><g clip-path="url(#74a5964ab2)"><path fill="#ffffff" d="M 303.167969 -224.859375 C 307.953125 -221.570312 313.03125 -217.363281 317.289062 -213.402344 C 325.835938 -214.300781 334.78125 -214.199219 342.679688 -210.765625 C 353.164062 -206.179688 360.84375 -196.089844 371.875 -192.953125 C 375.089844 -192.03125 378.273438 -192.011719 381.21875 -193.597656 C 379.949219 -191.675781 379.894531 -189.140625 380.546875 -186.945312 C 381.191406 -184.726562 381.871094 -181.960938 383.183594 -180.066406 C 386.574219 -175.207031 390.90625 -171.394531 394.824219 -166.914062 C 398.257812 -162.980469 401.902344 -159.066406 404.085938 -154.308594 C 406.679688 -148.679688 406.90625 -142.199219 407.222656 -135.996094 C 413.027344 -135.054688 418.679688 -133.234375 423.964844 -130.59375 C 425.832031 -129.652344 427.726562 -128.574219 429.070312 -126.960938 C 430.410156 -125.363281 431.136719 -123.34375 431.660156 -121.304688 C 434.253906 -111.414062 432.558594 -100.449219 427.101562 -91.808594 C 431.460938 -86.40625 436.664062 -79.5 437.988281 -72.703125 C 439.058594 -67.199219 437.933594 -61.441406 439.011719 -55.933594 C 440.308594 -49.335938 445.3125 -43.652344 451.417969 -40.859375 C 447.484375 -38.59375 445.4375 -33.910156 445.140625 -29.375 C 444.867188 -24.84375 446.0625 -20.359375 447.332031 -16 C 448.574219 -11.636719 449.898438 -7.207031 449.796875 -2.667969 C 449.726562 0.523438 448.972656 3.660156 448.203125 6.75 C 447.378906 10.140625 446.535156 13.550781 445.710938 16.9375 C 450.742188 18.507812 455.101562 23.238281 457.71875 27.824219 C 459.261719 30.515625 460.511719 33.429688 460.910156 36.519531 C 461.582031 41.75 459.667969 47.058594 456.695312 51.417969 C 453.726562 55.777344 449.796875 59.367188 445.882812 62.929688 L 445.636719 62.929688 C 452.515625 72.871094 453.984375 86.324219 449.453125 97.535156 C 448.582031 99.703125 447.457031 101.921875 447.632812 104.289062 C 447.777344 106.15625 448.703125 107.847656 449.625 109.472656 C 451.195312 112.234375 452.761719 115.027344 454.332031 117.792969 C 449.347656 120.710938 447.453125 126.4375 446.632812 132.167969 C 445.816406 137.894531 446.308594 143.722656 445.566406 149.460938 C 444.566406 157.253906 441.230469 164.730469 436.101562 170.6875 C 440.214844 174.203125 442.78125 178.910156 444.574219 183.992188 C 445.941406 187.855469 446.742188 192.039062 445.941406 196.074219 C 445.097656 200.40625 442.480469 204.222656 439.191406 207.160156 C 435.902344 210.097656 431.316406 212.21875 427.308594 214.039062 L 427.28125 214.039062 C 431.867188 227.617188 429.203125 243.535156 420.582031 254.996094 C 420.4375 256.539062 420.683594 258.136719 421.308594 259.558594 C 421.605469 260.28125 422.03125 260.953125 422.628906 261.425781 C 423.625 262.195312 425.046875 262.347656 425.867188 263.292969 C 425.042969 264.234375 423.625 264.386719 422.628906 265.160156 C 422.003906 265.632812 421.605469 266.328125 421.308594 267.027344 C 420.683594 268.449219 420.4375 270.042969 420.582031 271.585938 C 429.203125 283.042969 431.867188 298.96875 427.28125 312.546875 L 427.308594 312.546875 C 431.320312 314.367188 435.902344 316.507812 439.191406 319.425781 C 442.480469 322.363281 445.09375 326.203125 445.941406 330.507812 C 446.742188 334.542969 445.941406 338.730469 444.574219 342.589844 C 442.753906 347.695312 440.214844 352.382812 436.101562 355.898438 C 441.230469 361.851562 444.574219 369.328125 445.566406 377.125 C 446.308594 382.851562 445.808594 388.707031 446.632812 394.417969 C 447.457031 400.144531 449.351562 405.875 454.332031 408.792969 C 452.761719 411.558594 451.195312 414.347656 449.625 417.113281 C 448.703125 418.734375 447.785156 420.429688 447.632812 422.296875 C 447.457031 424.636719 448.574219 426.855469 449.453125 429.050781 C 454.011719 440.261719 452.515625 453.710938 445.636719 463.65625 L 445.808594 463.65625 C 449.726562 467.191406 453.660156 470.777344 456.625 475.164062 C 459.585938 479.523438 461.480469 484.828125 460.835938 490.066406 C 460.4375 493.15625 459.195312 496.066406 457.648438 498.757812 C 455.027344 503.34375 450.667969 508.101562 445.636719 509.644531 C 446.460938 513.035156 447.304688 516.445312 448.128906 519.832031 C 448.875 522.921875 449.652344 526.058594 449.726562 529.25 C 449.824219 533.78125 448.503906 538.222656 447.257812 542.582031 C 446.015625 546.941406 444.792969 551.429688 445.066406 555.960938 C 445.339844 560.492188 447.40625 565.152344 451.347656 567.445312 C 445.246094 570.261719 440.234375 575.9375 438.9375 582.519531 C 437.867188 588.019531 438.992188 593.777344 437.914062 599.285156 C 436.59375 606.085938 431.390625 612.988281 427.027344 618.394531 C 432.484375 627.039062 434.179688 638 431.589844 647.886719 C 431.0625 649.90625 430.34375 651.921875 428.996094 653.542969 C 427.648438 655.164062 425.78125 656.234375 423.890625 657.179688 C 418.636719 659.796875 412.953125 661.636719 407.152344 662.582031 C 406.824219 668.78125 406.605469 675.261719 404.015625 680.890625 C 401.820312 685.648438 398.183594 689.539062 394.75 693.5 C 390.863281 697.984375 386.855469 700.648438 383.464844 705.507812 C 382.140625 707.402344 381.125 711.308594 380.472656 713.53125 C 379.828125 715.75 379.875 718.261719 381.144531 720.183594 C 378.207031 718.585938 375.019531 718.941406 371.800781 719.855469 C 360.789062 722.992188 353.121094 733.089844 342.605469 737.667969 C 334.730469 741.105469 325.789062 741.203125 317.21875 740.304688 C 312.984375 744.242188 307.875 748.480469 303.09375 751.765625 C 300.03125 753.859375 296.695312 755.878906 292.980469 756.078125 C 288.421875 756.324219 284.1875 753.785156 280.671875 750.894531 C 276.636719 747.578125 273.09375 743.695312 270.210938 739.355469 C 269.242188 737.886719 268.316406 736.367188 267.019531 735.167969 C 265.726562 733.972656 264.003906 733.128906 262.261719 733.347656 C 252.746094 734.691406 241.585938 731.980469 234.0625 726.023438 C 230.628906 723.285156 227.664062 719.921875 224.019531 717.476562 C 219.390625 714.339844 213.507812 712.820312 208.050781 714.140625 C 205.710938 714.710938 203.519531 715.761719 201.226562 716.40625 C 195.796875 717.929688 190.015625 717.050781 184.457031 716.179688 C 180.867188 712.992188 174.59375 712.394531 170.054688 714.042969 C 165.542969 715.683594 161.734375 718.800781 157.902344 721.691406 C 152.445312 725.804688 146.664062 729.613281 140.308594 732.152344 C 133.957031 734.691406 126.976562 735.964844 120.230469 734.890625 C 118.191406 739.148438 115.128906 743.308594 111.757812 746.648438 C 108.394531 749.964844 104.179688 752.527344 99.550781 753.472656 C 93.867188 754.640625 87.867188 753.300781 82.78125 750.507812 C 77.695312 747.714844 73.390625 743.382812 69.929688 738.726562 C 60.582031 741.0625 50.320312 741.742188 41.703125 737.480469 C 37.46875 735.386719 33.855469 732.226562 30.265625 729.132812 C 26.675781 726.042969 23.015625 722.933594 18.679688 721.011719 C 14.367188 719.074219 8.265625 718.222656 3.960938 720.144531 C 5.203125 718.222656 5.28125 715.683594 4.632812 713.488281 C 3.988281 711.296875 2.691406 709.328125 1.367188 707.433594 C -2.019531 702.578125 -5.757812 697.945312 -9.644531 693.460938 C -13.082031 689.523438 -16.722656 685.609375 -18.910156 680.851562 C -21.5 675.222656 -21.726562 668.742188 -22.046875 662.542969 C -27.847656 661.597656 -33.503906 659.777344 -38.785156 657.140625 C -40.65625 656.195312 -42.546875 655.117188 -43.890625 653.503906 C -45.234375 651.910156 -45.957031 649.886719 -46.484375 647.847656 C -49.074219 637.957031 -47.378906 626.992188 -41.921875 618.351562 C -46.285156 612.949219 -51.488281 606.042969 -52.808594 599.246094 C -53.878906 593.742188 -52.761719 587.988281 -53.832031 582.476562 C -55.128906 575.878906 -60.132812 570.195312 -66.242188 567.40625 C -62.308594 565.136719 -60.261719 560.453125 -59.960938 555.921875 C -59.6875 551.386719 -60.882812 546.902344 -62.152344 542.542969 C -63.398438 538.183594 -64.71875 533.75 -64.621094 529.210938 C -64.546875 526.019531 -63.796875 522.882812 -63.023438 519.792969 C -62.199219 516.402344 -61.355469 512.996094 -60.53125 509.605469 C -65.5625 508.035156 -69.921875 503.304688 -72.542969 498.71875 C -74.082031 496.027344 -75.332031 493.117188 -75.730469 490.027344 C -76.402344 484.796875 -74.488281 479.484375 -71.519531 475.125 C -68.546875 470.765625 -64.621094 467.175781 -60.707031 463.613281 L -60.53125 463.613281 C -67.410156 453.671875 -68.878906 440.222656 -64.347656 429.007812 C -63.449219 426.84375 -62.351562 424.621094 -62.527344 422.257812 C -62.652344 420.390625 -63.597656 418.695312 -64.519531 417.074219 C -66.089844 414.308594 -67.65625 411.515625 -69.226562 408.753906 C -64.242188 405.835938 -62.347656 400.105469 -61.53125 394.378906 C -60.707031 388.648438 -61.203125 382.820312 -60.460938 377.085938 C -59.460938 369.289062 -56.125 361.8125 -50.996094 355.855469 C -55.109375 352.339844 -57.675781 347.636719 -59.46875 342.550781 C -60.839844 338.691406 -61.609375 334.503906 -60.839844 330.46875 C -59.996094 326.136719 -57.375 322.320312 -54.085938 319.382812 C -50.796875 316.445312 -46.210938 314.328125 -42.203125 312.503906 L -42.175781 312.503906 C -46.761719 298.929688 -44.097656 283.011719 -35.476562 271.546875 C -35.332031 270.003906 -35.578125 268.410156 -36.203125 266.988281 C -36.5 266.261719 -36.925781 265.589844 -37.523438 265.121094 C -38.519531 264.347656 -39.941406 264.195312 -40.761719 263.253906 C -39.9375 262.308594 -38.519531 262.15625 -37.523438 261.382812 C -36.898438 260.914062 -36.5 260.214844 -36.203125 259.515625 C -35.578125 258.09375 -35.332031 256.5 -35.476562 254.957031 C -44.097656 243.5 -46.761719 227.578125 -42.175781 214 L -42.203125 214 C -46.21875 212.179688 -50.796875 210.039062 -54.085938 207.121094 C -57.375 204.183594 -59.988281 200.339844 -60.839844 196.035156 C -61.636719 192 -60.839844 187.8125 -59.46875 183.953125 C -57.648438 178.847656 -55.109375 174.164062 -50.996094 170.648438 C -56.125 164.691406 -59.46875 157.214844 -60.460938 149.421875 C -61.203125 143.691406 -60.707031 137.835938 -61.53125 132.128906 C -62.351562 126.398438 -64.246094 120.667969 -69.226562 117.753906 C -67.65625 114.988281 -66.089844 112.195312 -64.519531 109.429688 C -63.597656 107.808594 -62.679688 106.113281 -62.527344 104.246094 C -62.351562 101.90625 -63.46875 99.6875 -64.347656 97.496094 C -68.90625 86.285156 -67.410156 72.832031 -60.53125 62.890625 L -60.632812 62.890625 C -64.546875 59.355469 -68.480469 55.765625 -71.445312 51.378906 C -74.410156 46.992188 -76.304688 41.714844 -75.660156 36.476562 C -75.261719 33.386719 -74.015625 30.476562 -72.46875 27.785156 C -69.851562 23.199219 -65.492188 18.441406 -60.460938 16.898438 C -61.285156 13.511719 -62.128906 10.101562 -62.953125 6.710938 C -63.695312 3.621094 -64.472656 0.484375 -64.546875 -2.707031 C -64.644531 -7.238281 -63.324219 -11.679688 -62.082031 -16.039062 C -60.839844 -20.398438 -59.617188 -24.882812 -59.886719 -29.417969 C -60.160156 -33.949219 -62.226562 -38.609375 -66.167969 -40.902344 C -60.066406 -43.71875 -55.054688 -49.394531 -53.761719 -55.972656 C -52.691406 -61.476562 -53.808594 -67.230469 -52.738281 -72.742188 C -51.414062 -79.539062 -46.210938 -86.445312 -41.851562 -91.847656 C -47.308594 -100.496094 -49 -111.453125 -46.410156 -121.34375 C -45.886719 -123.363281 -45.167969 -125.378906 -43.816406 -127 C -42.476562 -128.621094 -40.601562 -129.691406 -38.714844 -130.632812 C -33.457031 -133.253906 -27.773438 -135.09375 -21.972656 -136.039062 C -21.648438 -142.238281 -21.425781 -148.71875 -18.835938 -154.347656 C -16.640625 -159.105469 -13.007812 -162.992188 -9.570312 -166.953125 C -5.683594 -171.441406 -1.351562 -175.25 2.066406 -180.105469 C 3.386719 -182 4.058594 -184.765625 4.703125 -186.984375 C 5.347656 -189.207031 5.300781 -191.71875 4.03125 -193.636719 C 8.367188 -191.71875 14.449219 -192.242188 18.753906 -194.183594 C 23.066406 -196.125 26.75 -199.214844 30.335938 -202.304688 C 33.925781 -205.394531 37.515625 -208.558594 41.777344 -210.652344 C 50.394531 -214.910156 60.683594 -214.242188 70 -211.894531 C 73.464844 -216.527344 77.796875 -220.867188 82.855469 -223.679688 C 87.910156 -226.46875 93.941406 -227.8125 99.621094 -226.640625 C 104.253906 -225.699219 108.46875 -223.125 111.832031 -219.816406 C 115.195312 -216.507812 118.257812 -212.339844 120.304688 -208.058594 C 127.054688 -209.128906 134.027344 -207.859375 140.382812 -205.320312 C 146.734375 -202.78125 152.492188 -198.96875 157.972656 -194.859375 C 161.808594 -191.96875 165.625 -188.859375 170.128906 -187.210938 C 174.640625 -185.570312 180.914062 -186.167969 184.53125 -189.351562 C 190.085938 -190.222656 195.867188 -191.074219 201.296875 -189.578125 C 203.617188 -188.933594 205.8125 -187.882812 208.125 -187.3125 C 213.554688 -185.988281 219.4375 -187.511719 224.09375 -190.648438 C 227.730469 -193.113281 230.675781 -196.476562 234.136719 -199.195312 C 241.660156 -205.148438 252.84375 -207.867188 262.335938 -206.519531 C 264.078125 -206.273438 265.824219 -207.144531 267.09375 -208.339844 C 268.390625 -209.535156 269.3125 -211.058594 270.285156 -212.527344 C 273.175781 -216.859375 276.710938 -220.746094 280.746094 -224.0625 C 284.261719 -226.953125 288.492188 -229.492188 293.054688 -229.246094 C 296.769531 -228.96875 300.105469 -226.953125 303.167969 -224.859375 Z M 303.167969 -224.859375 " fill-opacity="1" fill-rule="nonzero"/></g><g clip-path="url(#46c6157169)"><path fill="#ffffff" d="M -82.515625 761.71875 L -82.515625 -235.175781 L 467.816406 -235.175781 L 467.816406 761.71875 Z M -82.515625 761.71875 " fill-opacity="1" fill-rule="nonzero"/></g></svg>